G04 #@! TF.GenerationSoftware,KiCad,Pcbnew,(5.1.5)-3*
G04 #@! TF.CreationDate,2020-11-18T18:17:57+13:00*
G04 #@! TF.ProjectId,MidiControllerV1,4d696469-436f-46e7-9472-6f6c6c657256,rev?*
G04 #@! TF.SameCoordinates,Original*
G04 #@! TF.FileFunction,Copper,L1,Top*
G04 #@! TF.FilePolarity,Positive*
%FSLAX46Y46*%
G04 Gerber Fmt 4.6, Leading zero omitted, Abs format (unit mm)*
G04 Created by KiCad (PCBNEW (5.1.5)-3) date 2020-11-18 18:17:57*
%MOMM*%
%LPD*%
G04 APERTURE LIST*
%ADD10C,2.000000*%
%ADD11R,2.000000X3.200000*%
%ADD12R,2.000000X2.000000*%
%ADD13O,1.700000X1.700000*%
%ADD14R,1.700000X1.700000*%
%ADD15C,1.600000*%
%ADD16C,0.150000*%
%ADD17C,0.800000*%
%ADD18C,0.250000*%
%ADD19C,0.254000*%
G04 APERTURE END LIST*
D10*
X30440000Y-25000000D03*
X25440000Y-25000000D03*
D11*
X33540000Y-32000000D03*
X22340000Y-32000000D03*
D10*
X30440000Y-39500000D03*
X27940000Y-39500000D03*
D12*
X25440000Y-39500000D03*
D13*
X103040000Y-24900000D03*
X105580000Y-24900000D03*
X108120000Y-24900000D03*
X110660000Y-24900000D03*
X113200000Y-24900000D03*
X115740000Y-24900000D03*
X118280000Y-24900000D03*
X120820000Y-24900000D03*
X123360000Y-24900000D03*
X125900000Y-24900000D03*
X128440000Y-24900000D03*
X130980000Y-24900000D03*
X133520000Y-24900000D03*
X136060000Y-24900000D03*
X138600000Y-24900000D03*
X141140000Y-24900000D03*
X143680000Y-24900000D03*
X146220000Y-24900000D03*
X148760000Y-24900000D03*
D14*
X151300000Y-24900000D03*
D15*
X40000000Y-21500000D03*
X45000000Y-21500000D03*
X23000000Y-21500000D03*
X28000000Y-21500000D03*
D13*
X70720000Y-42000000D03*
X73260000Y-42000000D03*
X75800000Y-42000000D03*
X78340000Y-42000000D03*
X80880000Y-42000000D03*
X83420000Y-42000000D03*
X85960000Y-42000000D03*
D14*
X88500000Y-42000000D03*
X57300000Y-28270000D03*
D13*
X57300000Y-30810000D03*
X57300000Y-33350000D03*
X57300000Y-35890000D03*
D14*
X103080000Y-42610000D03*
D13*
X105620000Y-42610000D03*
X108160000Y-42610000D03*
X110700000Y-42610000D03*
X113240000Y-42610000D03*
X115780000Y-42610000D03*
X118320000Y-42610000D03*
X120860000Y-42610000D03*
X123400000Y-42610000D03*
X125940000Y-42610000D03*
X128480000Y-42610000D03*
X131020000Y-42610000D03*
X133560000Y-42610000D03*
X136100000Y-42610000D03*
X138640000Y-42610000D03*
X141180000Y-42610000D03*
X143720000Y-42610000D03*
X146260000Y-42610000D03*
X148800000Y-42610000D03*
X151340000Y-42610000D03*
G04 #@! TA.AperFunction,SMDPad,CuDef*
D16*
G36*
X26149504Y-44276204D02*
G01*
X26173773Y-44279804D01*
X26197571Y-44285765D01*
X26220671Y-44294030D01*
X26242849Y-44304520D01*
X26263893Y-44317133D01*
X26283598Y-44331747D01*
X26301777Y-44348223D01*
X26318253Y-44366402D01*
X26332867Y-44386107D01*
X26345480Y-44407151D01*
X26355970Y-44429329D01*
X26364235Y-44452429D01*
X26370196Y-44476227D01*
X26373796Y-44500496D01*
X26375000Y-44525000D01*
X26375000Y-45275000D01*
X26373796Y-45299504D01*
X26370196Y-45323773D01*
X26364235Y-45347571D01*
X26355970Y-45370671D01*
X26345480Y-45392849D01*
X26332867Y-45413893D01*
X26318253Y-45433598D01*
X26301777Y-45451777D01*
X26283598Y-45468253D01*
X26263893Y-45482867D01*
X26242849Y-45495480D01*
X26220671Y-45505970D01*
X26197571Y-45514235D01*
X26173773Y-45520196D01*
X26149504Y-45523796D01*
X26125000Y-45525000D01*
X24875000Y-45525000D01*
X24850496Y-45523796D01*
X24826227Y-45520196D01*
X24802429Y-45514235D01*
X24779329Y-45505970D01*
X24757151Y-45495480D01*
X24736107Y-45482867D01*
X24716402Y-45468253D01*
X24698223Y-45451777D01*
X24681747Y-45433598D01*
X24667133Y-45413893D01*
X24654520Y-45392849D01*
X24644030Y-45370671D01*
X24635765Y-45347571D01*
X24629804Y-45323773D01*
X24626204Y-45299504D01*
X24625000Y-45275000D01*
X24625000Y-44525000D01*
X24626204Y-44500496D01*
X24629804Y-44476227D01*
X24635765Y-44452429D01*
X24644030Y-44429329D01*
X24654520Y-44407151D01*
X24667133Y-44386107D01*
X24681747Y-44366402D01*
X24698223Y-44348223D01*
X24716402Y-44331747D01*
X24736107Y-44317133D01*
X24757151Y-44304520D01*
X24779329Y-44294030D01*
X24802429Y-44285765D01*
X24826227Y-44279804D01*
X24850496Y-44276204D01*
X24875000Y-44275000D01*
X26125000Y-44275000D01*
X26149504Y-44276204D01*
G37*
G04 #@! TD.AperFunction*
G04 #@! TA.AperFunction,SMDPad,CuDef*
G36*
X26149504Y-41476204D02*
G01*
X26173773Y-41479804D01*
X26197571Y-41485765D01*
X26220671Y-41494030D01*
X26242849Y-41504520D01*
X26263893Y-41517133D01*
X26283598Y-41531747D01*
X26301777Y-41548223D01*
X26318253Y-41566402D01*
X26332867Y-41586107D01*
X26345480Y-41607151D01*
X26355970Y-41629329D01*
X26364235Y-41652429D01*
X26370196Y-41676227D01*
X26373796Y-41700496D01*
X26375000Y-41725000D01*
X26375000Y-42475000D01*
X26373796Y-42499504D01*
X26370196Y-42523773D01*
X26364235Y-42547571D01*
X26355970Y-42570671D01*
X26345480Y-42592849D01*
X26332867Y-42613893D01*
X26318253Y-42633598D01*
X26301777Y-42651777D01*
X26283598Y-42668253D01*
X26263893Y-42682867D01*
X26242849Y-42695480D01*
X26220671Y-42705970D01*
X26197571Y-42714235D01*
X26173773Y-42720196D01*
X26149504Y-42723796D01*
X26125000Y-42725000D01*
X24875000Y-42725000D01*
X24850496Y-42723796D01*
X24826227Y-42720196D01*
X24802429Y-42714235D01*
X24779329Y-42705970D01*
X24757151Y-42695480D01*
X24736107Y-42682867D01*
X24716402Y-42668253D01*
X24698223Y-42651777D01*
X24681747Y-42633598D01*
X24667133Y-42613893D01*
X24654520Y-42592849D01*
X24644030Y-42570671D01*
X24635765Y-42547571D01*
X24629804Y-42523773D01*
X24626204Y-42499504D01*
X24625000Y-42475000D01*
X24625000Y-41725000D01*
X24626204Y-41700496D01*
X24629804Y-41676227D01*
X24635765Y-41652429D01*
X24644030Y-41629329D01*
X24654520Y-41607151D01*
X24667133Y-41586107D01*
X24681747Y-41566402D01*
X24698223Y-41548223D01*
X24716402Y-41531747D01*
X24736107Y-41517133D01*
X24757151Y-41504520D01*
X24779329Y-41494030D01*
X24802429Y-41485765D01*
X24826227Y-41479804D01*
X24850496Y-41476204D01*
X24875000Y-41475000D01*
X26125000Y-41475000D01*
X26149504Y-41476204D01*
G37*
G04 #@! TD.AperFunction*
G04 #@! TA.AperFunction,SMDPad,CuDef*
G36*
X43549504Y-41601204D02*
G01*
X43573773Y-41604804D01*
X43597571Y-41610765D01*
X43620671Y-41619030D01*
X43642849Y-41629520D01*
X43663893Y-41642133D01*
X43683598Y-41656747D01*
X43701777Y-41673223D01*
X43718253Y-41691402D01*
X43732867Y-41711107D01*
X43745480Y-41732151D01*
X43755970Y-41754329D01*
X43764235Y-41777429D01*
X43770196Y-41801227D01*
X43773796Y-41825496D01*
X43775000Y-41850000D01*
X43775000Y-42600000D01*
X43773796Y-42624504D01*
X43770196Y-42648773D01*
X43764235Y-42672571D01*
X43755970Y-42695671D01*
X43745480Y-42717849D01*
X43732867Y-42738893D01*
X43718253Y-42758598D01*
X43701777Y-42776777D01*
X43683598Y-42793253D01*
X43663893Y-42807867D01*
X43642849Y-42820480D01*
X43620671Y-42830970D01*
X43597571Y-42839235D01*
X43573773Y-42845196D01*
X43549504Y-42848796D01*
X43525000Y-42850000D01*
X42275000Y-42850000D01*
X42250496Y-42848796D01*
X42226227Y-42845196D01*
X42202429Y-42839235D01*
X42179329Y-42830970D01*
X42157151Y-42820480D01*
X42136107Y-42807867D01*
X42116402Y-42793253D01*
X42098223Y-42776777D01*
X42081747Y-42758598D01*
X42067133Y-42738893D01*
X42054520Y-42717849D01*
X42044030Y-42695671D01*
X42035765Y-42672571D01*
X42029804Y-42648773D01*
X42026204Y-42624504D01*
X42025000Y-42600000D01*
X42025000Y-41850000D01*
X42026204Y-41825496D01*
X42029804Y-41801227D01*
X42035765Y-41777429D01*
X42044030Y-41754329D01*
X42054520Y-41732151D01*
X42067133Y-41711107D01*
X42081747Y-41691402D01*
X42098223Y-41673223D01*
X42116402Y-41656747D01*
X42136107Y-41642133D01*
X42157151Y-41629520D01*
X42179329Y-41619030D01*
X42202429Y-41610765D01*
X42226227Y-41604804D01*
X42250496Y-41601204D01*
X42275000Y-41600000D01*
X43525000Y-41600000D01*
X43549504Y-41601204D01*
G37*
G04 #@! TD.AperFunction*
G04 #@! TA.AperFunction,SMDPad,CuDef*
G36*
X43549504Y-44401204D02*
G01*
X43573773Y-44404804D01*
X43597571Y-44410765D01*
X43620671Y-44419030D01*
X43642849Y-44429520D01*
X43663893Y-44442133D01*
X43683598Y-44456747D01*
X43701777Y-44473223D01*
X43718253Y-44491402D01*
X43732867Y-44511107D01*
X43745480Y-44532151D01*
X43755970Y-44554329D01*
X43764235Y-44577429D01*
X43770196Y-44601227D01*
X43773796Y-44625496D01*
X43775000Y-44650000D01*
X43775000Y-45400000D01*
X43773796Y-45424504D01*
X43770196Y-45448773D01*
X43764235Y-45472571D01*
X43755970Y-45495671D01*
X43745480Y-45517849D01*
X43732867Y-45538893D01*
X43718253Y-45558598D01*
X43701777Y-45576777D01*
X43683598Y-45593253D01*
X43663893Y-45607867D01*
X43642849Y-45620480D01*
X43620671Y-45630970D01*
X43597571Y-45639235D01*
X43573773Y-45645196D01*
X43549504Y-45648796D01*
X43525000Y-45650000D01*
X42275000Y-45650000D01*
X42250496Y-45648796D01*
X42226227Y-45645196D01*
X42202429Y-45639235D01*
X42179329Y-45630970D01*
X42157151Y-45620480D01*
X42136107Y-45607867D01*
X42116402Y-45593253D01*
X42098223Y-45576777D01*
X42081747Y-45558598D01*
X42067133Y-45538893D01*
X42054520Y-45517849D01*
X42044030Y-45495671D01*
X42035765Y-45472571D01*
X42029804Y-45448773D01*
X42026204Y-45424504D01*
X42025000Y-45400000D01*
X42025000Y-44650000D01*
X42026204Y-44625496D01*
X42029804Y-44601227D01*
X42035765Y-44577429D01*
X42044030Y-44554329D01*
X42054520Y-44532151D01*
X42067133Y-44511107D01*
X42081747Y-44491402D01*
X42098223Y-44473223D01*
X42116402Y-44456747D01*
X42136107Y-44442133D01*
X42157151Y-44429520D01*
X42179329Y-44419030D01*
X42202429Y-44410765D01*
X42226227Y-44404804D01*
X42250496Y-44401204D01*
X42275000Y-44400000D01*
X43525000Y-44400000D01*
X43549504Y-44401204D01*
G37*
G04 #@! TD.AperFunction*
G04 #@! TA.AperFunction,SMDPad,CuDef*
G36*
X31149504Y-41476204D02*
G01*
X31173773Y-41479804D01*
X31197571Y-41485765D01*
X31220671Y-41494030D01*
X31242849Y-41504520D01*
X31263893Y-41517133D01*
X31283598Y-41531747D01*
X31301777Y-41548223D01*
X31318253Y-41566402D01*
X31332867Y-41586107D01*
X31345480Y-41607151D01*
X31355970Y-41629329D01*
X31364235Y-41652429D01*
X31370196Y-41676227D01*
X31373796Y-41700496D01*
X31375000Y-41725000D01*
X31375000Y-42475000D01*
X31373796Y-42499504D01*
X31370196Y-42523773D01*
X31364235Y-42547571D01*
X31355970Y-42570671D01*
X31345480Y-42592849D01*
X31332867Y-42613893D01*
X31318253Y-42633598D01*
X31301777Y-42651777D01*
X31283598Y-42668253D01*
X31263893Y-42682867D01*
X31242849Y-42695480D01*
X31220671Y-42705970D01*
X31197571Y-42714235D01*
X31173773Y-42720196D01*
X31149504Y-42723796D01*
X31125000Y-42725000D01*
X29875000Y-42725000D01*
X29850496Y-42723796D01*
X29826227Y-42720196D01*
X29802429Y-42714235D01*
X29779329Y-42705970D01*
X29757151Y-42695480D01*
X29736107Y-42682867D01*
X29716402Y-42668253D01*
X29698223Y-42651777D01*
X29681747Y-42633598D01*
X29667133Y-42613893D01*
X29654520Y-42592849D01*
X29644030Y-42570671D01*
X29635765Y-42547571D01*
X29629804Y-42523773D01*
X29626204Y-42499504D01*
X29625000Y-42475000D01*
X29625000Y-41725000D01*
X29626204Y-41700496D01*
X29629804Y-41676227D01*
X29635765Y-41652429D01*
X29644030Y-41629329D01*
X29654520Y-41607151D01*
X29667133Y-41586107D01*
X29681747Y-41566402D01*
X29698223Y-41548223D01*
X29716402Y-41531747D01*
X29736107Y-41517133D01*
X29757151Y-41504520D01*
X29779329Y-41494030D01*
X29802429Y-41485765D01*
X29826227Y-41479804D01*
X29850496Y-41476204D01*
X29875000Y-41475000D01*
X31125000Y-41475000D01*
X31149504Y-41476204D01*
G37*
G04 #@! TD.AperFunction*
G04 #@! TA.AperFunction,SMDPad,CuDef*
G36*
X31149504Y-44276204D02*
G01*
X31173773Y-44279804D01*
X31197571Y-44285765D01*
X31220671Y-44294030D01*
X31242849Y-44304520D01*
X31263893Y-44317133D01*
X31283598Y-44331747D01*
X31301777Y-44348223D01*
X31318253Y-44366402D01*
X31332867Y-44386107D01*
X31345480Y-44407151D01*
X31355970Y-44429329D01*
X31364235Y-44452429D01*
X31370196Y-44476227D01*
X31373796Y-44500496D01*
X31375000Y-44525000D01*
X31375000Y-45275000D01*
X31373796Y-45299504D01*
X31370196Y-45323773D01*
X31364235Y-45347571D01*
X31355970Y-45370671D01*
X31345480Y-45392849D01*
X31332867Y-45413893D01*
X31318253Y-45433598D01*
X31301777Y-45451777D01*
X31283598Y-45468253D01*
X31263893Y-45482867D01*
X31242849Y-45495480D01*
X31220671Y-45505970D01*
X31197571Y-45514235D01*
X31173773Y-45520196D01*
X31149504Y-45523796D01*
X31125000Y-45525000D01*
X29875000Y-45525000D01*
X29850496Y-45523796D01*
X29826227Y-45520196D01*
X29802429Y-45514235D01*
X29779329Y-45505970D01*
X29757151Y-45495480D01*
X29736107Y-45482867D01*
X29716402Y-45468253D01*
X29698223Y-45451777D01*
X29681747Y-45433598D01*
X29667133Y-45413893D01*
X29654520Y-45392849D01*
X29644030Y-45370671D01*
X29635765Y-45347571D01*
X29629804Y-45323773D01*
X29626204Y-45299504D01*
X29625000Y-45275000D01*
X29625000Y-44525000D01*
X29626204Y-44500496D01*
X29629804Y-44476227D01*
X29635765Y-44452429D01*
X29644030Y-44429329D01*
X29654520Y-44407151D01*
X29667133Y-44386107D01*
X29681747Y-44366402D01*
X29698223Y-44348223D01*
X29716402Y-44331747D01*
X29736107Y-44317133D01*
X29757151Y-44304520D01*
X29779329Y-44294030D01*
X29802429Y-44285765D01*
X29826227Y-44279804D01*
X29850496Y-44276204D01*
X29875000Y-44275000D01*
X31125000Y-44275000D01*
X31149504Y-44276204D01*
G37*
G04 #@! TD.AperFunction*
G04 #@! TA.AperFunction,SMDPad,CuDef*
G36*
X48549504Y-41601204D02*
G01*
X48573773Y-41604804D01*
X48597571Y-41610765D01*
X48620671Y-41619030D01*
X48642849Y-41629520D01*
X48663893Y-41642133D01*
X48683598Y-41656747D01*
X48701777Y-41673223D01*
X48718253Y-41691402D01*
X48732867Y-41711107D01*
X48745480Y-41732151D01*
X48755970Y-41754329D01*
X48764235Y-41777429D01*
X48770196Y-41801227D01*
X48773796Y-41825496D01*
X48775000Y-41850000D01*
X48775000Y-42600000D01*
X48773796Y-42624504D01*
X48770196Y-42648773D01*
X48764235Y-42672571D01*
X48755970Y-42695671D01*
X48745480Y-42717849D01*
X48732867Y-42738893D01*
X48718253Y-42758598D01*
X48701777Y-42776777D01*
X48683598Y-42793253D01*
X48663893Y-42807867D01*
X48642849Y-42820480D01*
X48620671Y-42830970D01*
X48597571Y-42839235D01*
X48573773Y-42845196D01*
X48549504Y-42848796D01*
X48525000Y-42850000D01*
X47275000Y-42850000D01*
X47250496Y-42848796D01*
X47226227Y-42845196D01*
X47202429Y-42839235D01*
X47179329Y-42830970D01*
X47157151Y-42820480D01*
X47136107Y-42807867D01*
X47116402Y-42793253D01*
X47098223Y-42776777D01*
X47081747Y-42758598D01*
X47067133Y-42738893D01*
X47054520Y-42717849D01*
X47044030Y-42695671D01*
X47035765Y-42672571D01*
X47029804Y-42648773D01*
X47026204Y-42624504D01*
X47025000Y-42600000D01*
X47025000Y-41850000D01*
X47026204Y-41825496D01*
X47029804Y-41801227D01*
X47035765Y-41777429D01*
X47044030Y-41754329D01*
X47054520Y-41732151D01*
X47067133Y-41711107D01*
X47081747Y-41691402D01*
X47098223Y-41673223D01*
X47116402Y-41656747D01*
X47136107Y-41642133D01*
X47157151Y-41629520D01*
X47179329Y-41619030D01*
X47202429Y-41610765D01*
X47226227Y-41604804D01*
X47250496Y-41601204D01*
X47275000Y-41600000D01*
X48525000Y-41600000D01*
X48549504Y-41601204D01*
G37*
G04 #@! TD.AperFunction*
G04 #@! TA.AperFunction,SMDPad,CuDef*
G36*
X48549504Y-44401204D02*
G01*
X48573773Y-44404804D01*
X48597571Y-44410765D01*
X48620671Y-44419030D01*
X48642849Y-44429520D01*
X48663893Y-44442133D01*
X48683598Y-44456747D01*
X48701777Y-44473223D01*
X48718253Y-44491402D01*
X48732867Y-44511107D01*
X48745480Y-44532151D01*
X48755970Y-44554329D01*
X48764235Y-44577429D01*
X48770196Y-44601227D01*
X48773796Y-44625496D01*
X48775000Y-44650000D01*
X48775000Y-45400000D01*
X48773796Y-45424504D01*
X48770196Y-45448773D01*
X48764235Y-45472571D01*
X48755970Y-45495671D01*
X48745480Y-45517849D01*
X48732867Y-45538893D01*
X48718253Y-45558598D01*
X48701777Y-45576777D01*
X48683598Y-45593253D01*
X48663893Y-45607867D01*
X48642849Y-45620480D01*
X48620671Y-45630970D01*
X48597571Y-45639235D01*
X48573773Y-45645196D01*
X48549504Y-45648796D01*
X48525000Y-45650000D01*
X47275000Y-45650000D01*
X47250496Y-45648796D01*
X47226227Y-45645196D01*
X47202429Y-45639235D01*
X47179329Y-45630970D01*
X47157151Y-45620480D01*
X47136107Y-45607867D01*
X47116402Y-45593253D01*
X47098223Y-45576777D01*
X47081747Y-45558598D01*
X47067133Y-45538893D01*
X47054520Y-45517849D01*
X47044030Y-45495671D01*
X47035765Y-45472571D01*
X47029804Y-45448773D01*
X47026204Y-45424504D01*
X47025000Y-45400000D01*
X47025000Y-44650000D01*
X47026204Y-44625496D01*
X47029804Y-44601227D01*
X47035765Y-44577429D01*
X47044030Y-44554329D01*
X47054520Y-44532151D01*
X47067133Y-44511107D01*
X47081747Y-44491402D01*
X47098223Y-44473223D01*
X47116402Y-44456747D01*
X47136107Y-44442133D01*
X47157151Y-44429520D01*
X47179329Y-44419030D01*
X47202429Y-44410765D01*
X47226227Y-44404804D01*
X47250496Y-44401204D01*
X47275000Y-44400000D01*
X48525000Y-44400000D01*
X48549504Y-44401204D01*
G37*
G04 #@! TD.AperFunction*
G04 #@! TA.AperFunction,SMDPad,CuDef*
G36*
X30799504Y-21026204D02*
G01*
X30823773Y-21029804D01*
X30847571Y-21035765D01*
X30870671Y-21044030D01*
X30892849Y-21054520D01*
X30913893Y-21067133D01*
X30933598Y-21081747D01*
X30951777Y-21098223D01*
X30968253Y-21116402D01*
X30982867Y-21136107D01*
X30995480Y-21157151D01*
X31005970Y-21179329D01*
X31014235Y-21202429D01*
X31020196Y-21226227D01*
X31023796Y-21250496D01*
X31025000Y-21275000D01*
X31025000Y-22525000D01*
X31023796Y-22549504D01*
X31020196Y-22573773D01*
X31014235Y-22597571D01*
X31005970Y-22620671D01*
X30995480Y-22642849D01*
X30982867Y-22663893D01*
X30968253Y-22683598D01*
X30951777Y-22701777D01*
X30933598Y-22718253D01*
X30913893Y-22732867D01*
X30892849Y-22745480D01*
X30870671Y-22755970D01*
X30847571Y-22764235D01*
X30823773Y-22770196D01*
X30799504Y-22773796D01*
X30775000Y-22775000D01*
X30025000Y-22775000D01*
X30000496Y-22773796D01*
X29976227Y-22770196D01*
X29952429Y-22764235D01*
X29929329Y-22755970D01*
X29907151Y-22745480D01*
X29886107Y-22732867D01*
X29866402Y-22718253D01*
X29848223Y-22701777D01*
X29831747Y-22683598D01*
X29817133Y-22663893D01*
X29804520Y-22642849D01*
X29794030Y-22620671D01*
X29785765Y-22597571D01*
X29779804Y-22573773D01*
X29776204Y-22549504D01*
X29775000Y-22525000D01*
X29775000Y-21275000D01*
X29776204Y-21250496D01*
X29779804Y-21226227D01*
X29785765Y-21202429D01*
X29794030Y-21179329D01*
X29804520Y-21157151D01*
X29817133Y-21136107D01*
X29831747Y-21116402D01*
X29848223Y-21098223D01*
X29866402Y-21081747D01*
X29886107Y-21067133D01*
X29907151Y-21054520D01*
X29929329Y-21044030D01*
X29952429Y-21035765D01*
X29976227Y-21029804D01*
X30000496Y-21026204D01*
X30025000Y-21025000D01*
X30775000Y-21025000D01*
X30799504Y-21026204D01*
G37*
G04 #@! TD.AperFunction*
G04 #@! TA.AperFunction,SMDPad,CuDef*
G36*
X33599504Y-21026204D02*
G01*
X33623773Y-21029804D01*
X33647571Y-21035765D01*
X33670671Y-21044030D01*
X33692849Y-21054520D01*
X33713893Y-21067133D01*
X33733598Y-21081747D01*
X33751777Y-21098223D01*
X33768253Y-21116402D01*
X33782867Y-21136107D01*
X33795480Y-21157151D01*
X33805970Y-21179329D01*
X33814235Y-21202429D01*
X33820196Y-21226227D01*
X33823796Y-21250496D01*
X33825000Y-21275000D01*
X33825000Y-22525000D01*
X33823796Y-22549504D01*
X33820196Y-22573773D01*
X33814235Y-22597571D01*
X33805970Y-22620671D01*
X33795480Y-22642849D01*
X33782867Y-22663893D01*
X33768253Y-22683598D01*
X33751777Y-22701777D01*
X33733598Y-22718253D01*
X33713893Y-22732867D01*
X33692849Y-22745480D01*
X33670671Y-22755970D01*
X33647571Y-22764235D01*
X33623773Y-22770196D01*
X33599504Y-22773796D01*
X33575000Y-22775000D01*
X32825000Y-22775000D01*
X32800496Y-22773796D01*
X32776227Y-22770196D01*
X32752429Y-22764235D01*
X32729329Y-22755970D01*
X32707151Y-22745480D01*
X32686107Y-22732867D01*
X32666402Y-22718253D01*
X32648223Y-22701777D01*
X32631747Y-22683598D01*
X32617133Y-22663893D01*
X32604520Y-22642849D01*
X32594030Y-22620671D01*
X32585765Y-22597571D01*
X32579804Y-22573773D01*
X32576204Y-22549504D01*
X32575000Y-22525000D01*
X32575000Y-21275000D01*
X32576204Y-21250496D01*
X32579804Y-21226227D01*
X32585765Y-21202429D01*
X32594030Y-21179329D01*
X32604520Y-21157151D01*
X32617133Y-21136107D01*
X32631747Y-21116402D01*
X32648223Y-21098223D01*
X32666402Y-21081747D01*
X32686107Y-21067133D01*
X32707151Y-21054520D01*
X32729329Y-21044030D01*
X32752429Y-21035765D01*
X32776227Y-21029804D01*
X32800496Y-21026204D01*
X32825000Y-21025000D01*
X33575000Y-21025000D01*
X33599504Y-21026204D01*
G37*
G04 #@! TD.AperFunction*
G04 #@! TA.AperFunction,SMDPad,CuDef*
G36*
X48299504Y-21026204D02*
G01*
X48323773Y-21029804D01*
X48347571Y-21035765D01*
X48370671Y-21044030D01*
X48392849Y-21054520D01*
X48413893Y-21067133D01*
X48433598Y-21081747D01*
X48451777Y-21098223D01*
X48468253Y-21116402D01*
X48482867Y-21136107D01*
X48495480Y-21157151D01*
X48505970Y-21179329D01*
X48514235Y-21202429D01*
X48520196Y-21226227D01*
X48523796Y-21250496D01*
X48525000Y-21275000D01*
X48525000Y-22525000D01*
X48523796Y-22549504D01*
X48520196Y-22573773D01*
X48514235Y-22597571D01*
X48505970Y-22620671D01*
X48495480Y-22642849D01*
X48482867Y-22663893D01*
X48468253Y-22683598D01*
X48451777Y-22701777D01*
X48433598Y-22718253D01*
X48413893Y-22732867D01*
X48392849Y-22745480D01*
X48370671Y-22755970D01*
X48347571Y-22764235D01*
X48323773Y-22770196D01*
X48299504Y-22773796D01*
X48275000Y-22775000D01*
X47525000Y-22775000D01*
X47500496Y-22773796D01*
X47476227Y-22770196D01*
X47452429Y-22764235D01*
X47429329Y-22755970D01*
X47407151Y-22745480D01*
X47386107Y-22732867D01*
X47366402Y-22718253D01*
X47348223Y-22701777D01*
X47331747Y-22683598D01*
X47317133Y-22663893D01*
X47304520Y-22642849D01*
X47294030Y-22620671D01*
X47285765Y-22597571D01*
X47279804Y-22573773D01*
X47276204Y-22549504D01*
X47275000Y-22525000D01*
X47275000Y-21275000D01*
X47276204Y-21250496D01*
X47279804Y-21226227D01*
X47285765Y-21202429D01*
X47294030Y-21179329D01*
X47304520Y-21157151D01*
X47317133Y-21136107D01*
X47331747Y-21116402D01*
X47348223Y-21098223D01*
X47366402Y-21081747D01*
X47386107Y-21067133D01*
X47407151Y-21054520D01*
X47429329Y-21044030D01*
X47452429Y-21035765D01*
X47476227Y-21029804D01*
X47500496Y-21026204D01*
X47525000Y-21025000D01*
X48275000Y-21025000D01*
X48299504Y-21026204D01*
G37*
G04 #@! TD.AperFunction*
G04 #@! TA.AperFunction,SMDPad,CuDef*
G36*
X51099504Y-21026204D02*
G01*
X51123773Y-21029804D01*
X51147571Y-21035765D01*
X51170671Y-21044030D01*
X51192849Y-21054520D01*
X51213893Y-21067133D01*
X51233598Y-21081747D01*
X51251777Y-21098223D01*
X51268253Y-21116402D01*
X51282867Y-21136107D01*
X51295480Y-21157151D01*
X51305970Y-21179329D01*
X51314235Y-21202429D01*
X51320196Y-21226227D01*
X51323796Y-21250496D01*
X51325000Y-21275000D01*
X51325000Y-22525000D01*
X51323796Y-22549504D01*
X51320196Y-22573773D01*
X51314235Y-22597571D01*
X51305970Y-22620671D01*
X51295480Y-22642849D01*
X51282867Y-22663893D01*
X51268253Y-22683598D01*
X51251777Y-22701777D01*
X51233598Y-22718253D01*
X51213893Y-22732867D01*
X51192849Y-22745480D01*
X51170671Y-22755970D01*
X51147571Y-22764235D01*
X51123773Y-22770196D01*
X51099504Y-22773796D01*
X51075000Y-22775000D01*
X50325000Y-22775000D01*
X50300496Y-22773796D01*
X50276227Y-22770196D01*
X50252429Y-22764235D01*
X50229329Y-22755970D01*
X50207151Y-22745480D01*
X50186107Y-22732867D01*
X50166402Y-22718253D01*
X50148223Y-22701777D01*
X50131747Y-22683598D01*
X50117133Y-22663893D01*
X50104520Y-22642849D01*
X50094030Y-22620671D01*
X50085765Y-22597571D01*
X50079804Y-22573773D01*
X50076204Y-22549504D01*
X50075000Y-22525000D01*
X50075000Y-21275000D01*
X50076204Y-21250496D01*
X50079804Y-21226227D01*
X50085765Y-21202429D01*
X50094030Y-21179329D01*
X50104520Y-21157151D01*
X50117133Y-21136107D01*
X50131747Y-21116402D01*
X50148223Y-21098223D01*
X50166402Y-21081747D01*
X50186107Y-21067133D01*
X50207151Y-21054520D01*
X50229329Y-21044030D01*
X50252429Y-21035765D01*
X50276227Y-21029804D01*
X50300496Y-21026204D01*
X50325000Y-21025000D01*
X51075000Y-21025000D01*
X51099504Y-21026204D01*
G37*
G04 #@! TD.AperFunction*
D10*
X47900000Y-24995000D03*
X42900000Y-24995000D03*
D11*
X51000000Y-31995000D03*
X39800000Y-31995000D03*
D10*
X47900000Y-39495000D03*
X45400000Y-39495000D03*
D12*
X42900000Y-39495000D03*
D17*
X93000000Y-38000000D03*
D18*
X23000000Y-22560000D02*
X23000000Y-21500000D01*
X25440000Y-25000000D02*
X23000000Y-22560000D01*
X40000000Y-22095000D02*
X40000000Y-21500000D01*
X42900000Y-24995000D02*
X40000000Y-22095000D01*
X88500000Y-43100000D02*
X89900000Y-44500000D01*
X88500000Y-42000000D02*
X88500000Y-43100000D01*
X116430000Y-44500000D02*
X118320000Y-42610000D01*
X89900000Y-44500000D02*
X116430000Y-44500000D01*
X120010001Y-43459999D02*
X120860000Y-42610000D01*
X118519991Y-44950009D02*
X120010001Y-43459999D01*
X88910009Y-44950009D02*
X118519991Y-44950009D01*
X85960000Y-42000000D02*
X88910009Y-44950009D01*
X122550001Y-43459999D02*
X123400000Y-42610000D01*
X120609982Y-45400018D02*
X122550001Y-43459999D01*
X86820018Y-45400018D02*
X120609982Y-45400018D01*
X83420000Y-42000000D02*
X86820018Y-45400018D01*
X125090001Y-43459999D02*
X125940000Y-42610000D01*
X122699973Y-45850027D02*
X125090001Y-43459999D01*
X84730027Y-45850027D02*
X122699973Y-45850027D01*
X80880000Y-42000000D02*
X84730027Y-45850027D01*
X78340000Y-42000000D02*
X85840000Y-34500000D01*
X151300000Y-26000000D02*
X151300000Y-24900000D01*
X142800000Y-34500000D02*
X151300000Y-26000000D01*
X85840000Y-34500000D02*
X142800000Y-34500000D01*
X75800000Y-42000000D02*
X84800000Y-33000000D01*
X140660000Y-33000000D02*
X148760000Y-24900000D01*
X84800000Y-33000000D02*
X140660000Y-33000000D01*
X118280000Y-24900000D02*
X115500000Y-22120000D01*
X57300000Y-27170000D02*
X57300000Y-28270000D01*
X62350000Y-22120000D02*
X57300000Y-27170000D01*
X115500000Y-22120000D02*
X62350000Y-22120000D01*
X65000000Y-23000000D02*
X113840000Y-23000000D01*
X60000000Y-28000000D02*
X65000000Y-23000000D01*
X113840000Y-23000000D02*
X115740000Y-24900000D01*
X57300000Y-30810000D02*
X60000000Y-28110000D01*
X60000000Y-28110000D02*
X60000000Y-28000000D01*
X32214999Y-35214999D02*
X32214999Y-24785001D01*
X33900000Y-36900000D02*
X32214999Y-35214999D01*
X33200000Y-23800000D02*
X33200000Y-21900000D01*
X32214999Y-24785001D02*
X33200000Y-23800000D01*
X25500000Y-44900000D02*
X30500000Y-44900000D01*
X31375000Y-44900000D02*
X30500000Y-44900000D01*
X33900000Y-42375000D02*
X31375000Y-44900000D01*
X33900000Y-36900000D02*
X33900000Y-42375000D01*
X42025000Y-45025000D02*
X42900000Y-45025000D01*
X36550000Y-45025000D02*
X42025000Y-45025000D01*
X33900000Y-42375000D02*
X36550000Y-45025000D01*
X42900000Y-45025000D02*
X47900000Y-45025000D01*
X50700000Y-21025000D02*
X50700000Y-21900000D01*
X50049999Y-20374999D02*
X50700000Y-21025000D01*
X33825000Y-21900000D02*
X35350001Y-20374999D01*
X35350001Y-20374999D02*
X50049999Y-20374999D01*
X33200000Y-21900000D02*
X33825000Y-21900000D01*
X50700000Y-26750000D02*
X50700000Y-21900000D01*
X57300000Y-33350000D02*
X50700000Y-26750000D01*
X65750000Y-24900000D02*
X103040000Y-24900000D01*
X57300000Y-33350000D02*
X65750000Y-24900000D01*
X70720000Y-42000000D02*
X82720000Y-30000000D01*
X138580000Y-30000000D02*
X143680000Y-24900000D01*
X82720000Y-30000000D02*
X138580000Y-30000000D01*
X73260000Y-42000000D02*
X83760000Y-31500000D01*
X139620000Y-31500000D02*
X146220000Y-24900000D01*
X83760000Y-31500000D02*
X139620000Y-31500000D01*
X30000000Y-21500000D02*
X30400000Y-21900000D01*
X28000000Y-21500000D02*
X30000000Y-21500000D01*
X30440000Y-21940000D02*
X30400000Y-21900000D01*
X30440000Y-25000000D02*
X30440000Y-21940000D01*
X103550000Y-38000000D02*
X108160000Y-42610000D01*
X93000000Y-38000000D02*
X103550000Y-38000000D01*
X30500000Y-39560000D02*
X30440000Y-39500000D01*
X30500000Y-42100000D02*
X30500000Y-39560000D01*
X25500000Y-39560000D02*
X25440000Y-39500000D01*
X25500000Y-42100000D02*
X25500000Y-39560000D01*
X47900000Y-42225000D02*
X47900000Y-39495000D01*
X42900000Y-42225000D02*
X42900000Y-39495000D01*
X47900000Y-24995000D02*
X47900000Y-21900000D01*
X45000000Y-21500000D02*
X47500000Y-21500000D01*
X47500000Y-21500000D02*
X47900000Y-21900000D01*
D19*
G36*
X35057754Y-19669453D02*
G01*
X34925724Y-19740025D01*
X34842084Y-19808667D01*
X34810000Y-19834998D01*
X34786202Y-19863996D01*
X34093222Y-20556977D01*
X34068386Y-20536595D01*
X33914850Y-20454528D01*
X33748254Y-20403992D01*
X33575000Y-20386928D01*
X32825000Y-20386928D01*
X32651746Y-20403992D01*
X32485150Y-20454528D01*
X32331614Y-20536595D01*
X32197038Y-20647038D01*
X32086595Y-20781614D01*
X32004528Y-20935150D01*
X31953992Y-21101746D01*
X31936928Y-21275000D01*
X31936928Y-22525000D01*
X31953992Y-22698254D01*
X32004528Y-22864850D01*
X32086595Y-23018386D01*
X32197038Y-23152962D01*
X32331614Y-23263405D01*
X32440000Y-23321339D01*
X32440000Y-23485198D01*
X31813113Y-24112086D01*
X31709987Y-23957748D01*
X31482252Y-23730013D01*
X31214463Y-23551082D01*
X31200000Y-23545091D01*
X31200000Y-23299958D01*
X31268386Y-23263405D01*
X31402962Y-23152962D01*
X31513405Y-23018386D01*
X31595472Y-22864850D01*
X31646008Y-22698254D01*
X31663072Y-22525000D01*
X31663072Y-21275000D01*
X31646008Y-21101746D01*
X31595472Y-20935150D01*
X31513405Y-20781614D01*
X31402962Y-20647038D01*
X31268386Y-20536595D01*
X31114850Y-20454528D01*
X30948254Y-20403992D01*
X30775000Y-20386928D01*
X30025000Y-20386928D01*
X29851746Y-20403992D01*
X29685150Y-20454528D01*
X29531614Y-20536595D01*
X29397038Y-20647038D01*
X29320747Y-20740000D01*
X29218043Y-20740000D01*
X29114637Y-20585241D01*
X28914759Y-20385363D01*
X28679727Y-20228320D01*
X28418574Y-20120147D01*
X28141335Y-20065000D01*
X27858665Y-20065000D01*
X27581426Y-20120147D01*
X27320273Y-20228320D01*
X27085241Y-20385363D01*
X26885363Y-20585241D01*
X26728320Y-20820273D01*
X26620147Y-21081426D01*
X26565000Y-21358665D01*
X26565000Y-21641335D01*
X26620147Y-21918574D01*
X26728320Y-22179727D01*
X26885363Y-22414759D01*
X27085241Y-22614637D01*
X27320273Y-22771680D01*
X27581426Y-22879853D01*
X27858665Y-22935000D01*
X28141335Y-22935000D01*
X28418574Y-22879853D01*
X28679727Y-22771680D01*
X28914759Y-22614637D01*
X29114637Y-22414759D01*
X29136928Y-22381398D01*
X29136928Y-22525000D01*
X29153992Y-22698254D01*
X29204528Y-22864850D01*
X29286595Y-23018386D01*
X29397038Y-23152962D01*
X29531614Y-23263405D01*
X29680001Y-23342720D01*
X29680000Y-23545091D01*
X29665537Y-23551082D01*
X29397748Y-23730013D01*
X29170013Y-23957748D01*
X28991082Y-24225537D01*
X28867832Y-24523088D01*
X28805000Y-24838967D01*
X28805000Y-25161033D01*
X28867832Y-25476912D01*
X28991082Y-25774463D01*
X29170013Y-26042252D01*
X29397748Y-26269987D01*
X29665537Y-26448918D01*
X29963088Y-26572168D01*
X30278967Y-26635000D01*
X30601033Y-26635000D01*
X30916912Y-26572168D01*
X31214463Y-26448918D01*
X31455000Y-26288196D01*
X31454999Y-35177677D01*
X31451323Y-35214999D01*
X31454999Y-35252321D01*
X31454999Y-35252331D01*
X31465996Y-35363984D01*
X31509453Y-35507245D01*
X31580025Y-35639275D01*
X31619870Y-35687825D01*
X31674998Y-35755000D01*
X31704002Y-35778803D01*
X33140000Y-37214802D01*
X33140001Y-42060197D01*
X31484935Y-43715264D01*
X31464850Y-43704528D01*
X31298254Y-43653992D01*
X31125000Y-43636928D01*
X29875000Y-43636928D01*
X29701746Y-43653992D01*
X29535150Y-43704528D01*
X29381614Y-43786595D01*
X29247038Y-43897038D01*
X29136595Y-44031614D01*
X29078661Y-44140000D01*
X26921339Y-44140000D01*
X26863405Y-44031614D01*
X26752962Y-43897038D01*
X26618386Y-43786595D01*
X26464850Y-43704528D01*
X26298254Y-43653992D01*
X26125000Y-43636928D01*
X24875000Y-43636928D01*
X24701746Y-43653992D01*
X24535150Y-43704528D01*
X24381614Y-43786595D01*
X24247038Y-43897038D01*
X24136595Y-44031614D01*
X24054528Y-44185150D01*
X24003992Y-44351746D01*
X23986928Y-44525000D01*
X23986928Y-45275000D01*
X24003992Y-45448254D01*
X24054528Y-45614850D01*
X24136595Y-45768386D01*
X24247038Y-45902962D01*
X24381614Y-46013405D01*
X24535150Y-46095472D01*
X24701746Y-46146008D01*
X24875000Y-46163072D01*
X26125000Y-46163072D01*
X26298254Y-46146008D01*
X26464850Y-46095472D01*
X26618386Y-46013405D01*
X26752962Y-45902962D01*
X26863405Y-45768386D01*
X26921339Y-45660000D01*
X29078661Y-45660000D01*
X29136595Y-45768386D01*
X29247038Y-45902962D01*
X29381614Y-46013405D01*
X29535150Y-46095472D01*
X29701746Y-46146008D01*
X29875000Y-46163072D01*
X31125000Y-46163072D01*
X31298254Y-46146008D01*
X31464850Y-46095472D01*
X31618386Y-46013405D01*
X31752962Y-45902962D01*
X31863405Y-45768386D01*
X31945472Y-45614850D01*
X31996008Y-45448254D01*
X32006328Y-45343473D01*
X33900000Y-43449801D01*
X35986201Y-45536003D01*
X36009999Y-45565001D01*
X36038997Y-45588799D01*
X36125723Y-45659974D01*
X36226209Y-45713685D01*
X36257753Y-45730546D01*
X36401014Y-45774003D01*
X36512667Y-45785000D01*
X36512677Y-45785000D01*
X36550000Y-45788676D01*
X36587323Y-45785000D01*
X41478661Y-45785000D01*
X41536595Y-45893386D01*
X41647038Y-46027962D01*
X41781614Y-46138405D01*
X41935150Y-46220472D01*
X42101746Y-46271008D01*
X42275000Y-46288072D01*
X43525000Y-46288072D01*
X43698254Y-46271008D01*
X43864850Y-46220472D01*
X44018386Y-46138405D01*
X44152962Y-46027962D01*
X44263405Y-45893386D01*
X44321339Y-45785000D01*
X46478661Y-45785000D01*
X46536595Y-45893386D01*
X46647038Y-46027962D01*
X46781614Y-46138405D01*
X46935150Y-46220472D01*
X47101746Y-46271008D01*
X47275000Y-46288072D01*
X48525000Y-46288072D01*
X48698254Y-46271008D01*
X48864850Y-46220472D01*
X49018386Y-46138405D01*
X49152962Y-46027962D01*
X49263405Y-45893386D01*
X49345472Y-45739850D01*
X49396008Y-45573254D01*
X49413072Y-45400000D01*
X49413072Y-44650000D01*
X49396008Y-44476746D01*
X49345472Y-44310150D01*
X49263405Y-44156614D01*
X49152962Y-44022038D01*
X49018386Y-43911595D01*
X48864850Y-43829528D01*
X48698254Y-43778992D01*
X48525000Y-43761928D01*
X47275000Y-43761928D01*
X47101746Y-43778992D01*
X46935150Y-43829528D01*
X46781614Y-43911595D01*
X46647038Y-44022038D01*
X46536595Y-44156614D01*
X46478661Y-44265000D01*
X44321339Y-44265000D01*
X44263405Y-44156614D01*
X44152962Y-44022038D01*
X44018386Y-43911595D01*
X43864850Y-43829528D01*
X43698254Y-43778992D01*
X43525000Y-43761928D01*
X42275000Y-43761928D01*
X42101746Y-43778992D01*
X41935150Y-43829528D01*
X41781614Y-43911595D01*
X41647038Y-44022038D01*
X41536595Y-44156614D01*
X41478661Y-44265000D01*
X36864802Y-44265000D01*
X34660000Y-42060199D01*
X34660000Y-38495000D01*
X41261928Y-38495000D01*
X41261928Y-40495000D01*
X41274188Y-40619482D01*
X41310498Y-40739180D01*
X41369463Y-40849494D01*
X41448815Y-40946185D01*
X41545506Y-41025537D01*
X41655820Y-41084502D01*
X41771769Y-41119675D01*
X41647038Y-41222038D01*
X41536595Y-41356614D01*
X41454528Y-41510150D01*
X41403992Y-41676746D01*
X41386928Y-41850000D01*
X41386928Y-42600000D01*
X41403992Y-42773254D01*
X41454528Y-42939850D01*
X41536595Y-43093386D01*
X41647038Y-43227962D01*
X41781614Y-43338405D01*
X41935150Y-43420472D01*
X42101746Y-43471008D01*
X42275000Y-43488072D01*
X43525000Y-43488072D01*
X43698254Y-43471008D01*
X43864850Y-43420472D01*
X44018386Y-43338405D01*
X44152962Y-43227962D01*
X44263405Y-43093386D01*
X44345472Y-42939850D01*
X44396008Y-42773254D01*
X44413072Y-42600000D01*
X44413072Y-41850000D01*
X44396008Y-41676746D01*
X44345472Y-41510150D01*
X44263405Y-41356614D01*
X44152962Y-41222038D01*
X44028231Y-41119675D01*
X44144180Y-41084502D01*
X44254494Y-41025537D01*
X44351185Y-40946185D01*
X44430537Y-40849494D01*
X44485976Y-40745777D01*
X44539956Y-40894814D01*
X44829571Y-41035704D01*
X45141108Y-41117384D01*
X45462595Y-41136718D01*
X45781675Y-41092961D01*
X46086088Y-40987795D01*
X46260044Y-40894814D01*
X46355808Y-40630413D01*
X45400000Y-39674605D01*
X45385858Y-39688748D01*
X45206253Y-39509143D01*
X45220395Y-39495000D01*
X45579605Y-39495000D01*
X46535413Y-40450808D01*
X46565075Y-40440065D01*
X46630013Y-40537252D01*
X46857748Y-40764987D01*
X47125537Y-40943918D01*
X47140000Y-40949909D01*
X47140000Y-40975224D01*
X47101746Y-40978992D01*
X46935150Y-41029528D01*
X46781614Y-41111595D01*
X46647038Y-41222038D01*
X46536595Y-41356614D01*
X46454528Y-41510150D01*
X46403992Y-41676746D01*
X46386928Y-41850000D01*
X46386928Y-42600000D01*
X46403992Y-42773254D01*
X46454528Y-42939850D01*
X46536595Y-43093386D01*
X46647038Y-43227962D01*
X46781614Y-43338405D01*
X46935150Y-43420472D01*
X47101746Y-43471008D01*
X47275000Y-43488072D01*
X48525000Y-43488072D01*
X48698254Y-43471008D01*
X48864850Y-43420472D01*
X49018386Y-43338405D01*
X49152962Y-43227962D01*
X49263405Y-43093386D01*
X49345472Y-42939850D01*
X49396008Y-42773254D01*
X49413072Y-42600000D01*
X49413072Y-41850000D01*
X49396008Y-41676746D01*
X49345472Y-41510150D01*
X49263405Y-41356614D01*
X49152962Y-41222038D01*
X49018386Y-41111595D01*
X48864850Y-41029528D01*
X48698254Y-40978992D01*
X48660000Y-40975224D01*
X48660000Y-40949909D01*
X48674463Y-40943918D01*
X48942252Y-40764987D01*
X49169987Y-40537252D01*
X49348918Y-40269463D01*
X49472168Y-39971912D01*
X49535000Y-39656033D01*
X49535000Y-39333967D01*
X49472168Y-39018088D01*
X49348918Y-38720537D01*
X49169987Y-38452748D01*
X48942252Y-38225013D01*
X48674463Y-38046082D01*
X48376912Y-37922832D01*
X48061033Y-37860000D01*
X47738967Y-37860000D01*
X47423088Y-37922832D01*
X47125537Y-38046082D01*
X46857748Y-38225013D01*
X46630013Y-38452748D01*
X46565075Y-38549935D01*
X46535413Y-38539192D01*
X45579605Y-39495000D01*
X45220395Y-39495000D01*
X45206253Y-39480858D01*
X45385858Y-39301253D01*
X45400000Y-39315395D01*
X46355808Y-38359587D01*
X46260044Y-38095186D01*
X45970429Y-37954296D01*
X45658892Y-37872616D01*
X45337405Y-37853282D01*
X45018325Y-37897039D01*
X44713912Y-38002205D01*
X44539956Y-38095186D01*
X44485976Y-38244223D01*
X44430537Y-38140506D01*
X44351185Y-38043815D01*
X44254494Y-37964463D01*
X44144180Y-37905498D01*
X44024482Y-37869188D01*
X43900000Y-37856928D01*
X41900000Y-37856928D01*
X41775518Y-37869188D01*
X41655820Y-37905498D01*
X41545506Y-37964463D01*
X41448815Y-38043815D01*
X41369463Y-38140506D01*
X41310498Y-38250820D01*
X41274188Y-38370518D01*
X41261928Y-38495000D01*
X34660000Y-38495000D01*
X34660000Y-36937322D01*
X34663676Y-36899999D01*
X34660000Y-36862676D01*
X34660000Y-36862667D01*
X34649003Y-36751014D01*
X34605546Y-36607753D01*
X34534974Y-36475724D01*
X34440001Y-36359999D01*
X34411004Y-36336202D01*
X34321692Y-36246890D01*
X55858524Y-36246890D01*
X55903175Y-36394099D01*
X56028359Y-36656920D01*
X56202412Y-36890269D01*
X56418645Y-37085178D01*
X56668748Y-37234157D01*
X56943109Y-37331481D01*
X57173000Y-37210814D01*
X57173000Y-36017000D01*
X57427000Y-36017000D01*
X57427000Y-37210814D01*
X57656891Y-37331481D01*
X57931252Y-37234157D01*
X58181355Y-37085178D01*
X58397588Y-36890269D01*
X58571641Y-36656920D01*
X58696825Y-36394099D01*
X58741476Y-36246890D01*
X58620155Y-36017000D01*
X57427000Y-36017000D01*
X57173000Y-36017000D01*
X55979845Y-36017000D01*
X55858524Y-36246890D01*
X34321692Y-36246890D01*
X32974999Y-34900198D01*
X32974999Y-34236201D01*
X33254250Y-34235000D01*
X33413000Y-34076250D01*
X33413000Y-32127000D01*
X33667000Y-32127000D01*
X33667000Y-34076250D01*
X33825750Y-34235000D01*
X34540000Y-34238072D01*
X34664482Y-34225812D01*
X34784180Y-34189502D01*
X34894494Y-34130537D01*
X34991185Y-34051185D01*
X35070537Y-33954494D01*
X35129502Y-33844180D01*
X35165812Y-33724482D01*
X35178072Y-33600000D01*
X35178061Y-33595000D01*
X38161928Y-33595000D01*
X38174188Y-33719482D01*
X38210498Y-33839180D01*
X38269463Y-33949494D01*
X38348815Y-34046185D01*
X38445506Y-34125537D01*
X38555820Y-34184502D01*
X38675518Y-34220812D01*
X38800000Y-34233072D01*
X39514250Y-34230000D01*
X39673000Y-34071250D01*
X39673000Y-32122000D01*
X39927000Y-32122000D01*
X39927000Y-34071250D01*
X40085750Y-34230000D01*
X40800000Y-34233072D01*
X40924482Y-34220812D01*
X41044180Y-34184502D01*
X41154494Y-34125537D01*
X41251185Y-34046185D01*
X41330537Y-33949494D01*
X41389502Y-33839180D01*
X41425812Y-33719482D01*
X41438072Y-33595000D01*
X49361928Y-33595000D01*
X49374188Y-33719482D01*
X49410498Y-33839180D01*
X49469463Y-33949494D01*
X49548815Y-34046185D01*
X49645506Y-34125537D01*
X49755820Y-34184502D01*
X49875518Y-34220812D01*
X50000000Y-34233072D01*
X50714250Y-34230000D01*
X50873000Y-34071250D01*
X50873000Y-32122000D01*
X51127000Y-32122000D01*
X51127000Y-34071250D01*
X51285750Y-34230000D01*
X52000000Y-34233072D01*
X52124482Y-34220812D01*
X52244180Y-34184502D01*
X52354494Y-34125537D01*
X52451185Y-34046185D01*
X52530537Y-33949494D01*
X52589502Y-33839180D01*
X52625812Y-33719482D01*
X52638072Y-33595000D01*
X52635000Y-32280750D01*
X52476250Y-32122000D01*
X51127000Y-32122000D01*
X50873000Y-32122000D01*
X49523750Y-32122000D01*
X49365000Y-32280750D01*
X49361928Y-33595000D01*
X41438072Y-33595000D01*
X41435000Y-32280750D01*
X41276250Y-32122000D01*
X39927000Y-32122000D01*
X39673000Y-32122000D01*
X38323750Y-32122000D01*
X38165000Y-32280750D01*
X38161928Y-33595000D01*
X35178061Y-33595000D01*
X35175000Y-32285750D01*
X35016250Y-32127000D01*
X33667000Y-32127000D01*
X33413000Y-32127000D01*
X33393000Y-32127000D01*
X33393000Y-31873000D01*
X33413000Y-31873000D01*
X33413000Y-29923750D01*
X33667000Y-29923750D01*
X33667000Y-31873000D01*
X35016250Y-31873000D01*
X35175000Y-31714250D01*
X35178072Y-30400000D01*
X35177580Y-30395000D01*
X38161928Y-30395000D01*
X38165000Y-31709250D01*
X38323750Y-31868000D01*
X39673000Y-31868000D01*
X39673000Y-29918750D01*
X39927000Y-29918750D01*
X39927000Y-31868000D01*
X41276250Y-31868000D01*
X41435000Y-31709250D01*
X41438072Y-30395000D01*
X49361928Y-30395000D01*
X49365000Y-31709250D01*
X49523750Y-31868000D01*
X50873000Y-31868000D01*
X50873000Y-29918750D01*
X51127000Y-29918750D01*
X51127000Y-31868000D01*
X52476250Y-31868000D01*
X52635000Y-31709250D01*
X52638072Y-30395000D01*
X52625812Y-30270518D01*
X52589502Y-30150820D01*
X52530537Y-30040506D01*
X52451185Y-29943815D01*
X52354494Y-29864463D01*
X52244180Y-29805498D01*
X52124482Y-29769188D01*
X52000000Y-29756928D01*
X51285750Y-29760000D01*
X51127000Y-29918750D01*
X50873000Y-29918750D01*
X50714250Y-29760000D01*
X50000000Y-29756928D01*
X49875518Y-29769188D01*
X49755820Y-29805498D01*
X49645506Y-29864463D01*
X49548815Y-29943815D01*
X49469463Y-30040506D01*
X49410498Y-30150820D01*
X49374188Y-30270518D01*
X49361928Y-30395000D01*
X41438072Y-30395000D01*
X41425812Y-30270518D01*
X41389502Y-30150820D01*
X41330537Y-30040506D01*
X41251185Y-29943815D01*
X41154494Y-29864463D01*
X41044180Y-29805498D01*
X40924482Y-29769188D01*
X40800000Y-29756928D01*
X40085750Y-29760000D01*
X39927000Y-29918750D01*
X39673000Y-29918750D01*
X39514250Y-29760000D01*
X38800000Y-29756928D01*
X38675518Y-29769188D01*
X38555820Y-29805498D01*
X38445506Y-29864463D01*
X38348815Y-29943815D01*
X38269463Y-30040506D01*
X38210498Y-30150820D01*
X38174188Y-30270518D01*
X38161928Y-30395000D01*
X35177580Y-30395000D01*
X35165812Y-30275518D01*
X35129502Y-30155820D01*
X35070537Y-30045506D01*
X34991185Y-29948815D01*
X34894494Y-29869463D01*
X34784180Y-29810498D01*
X34664482Y-29774188D01*
X34540000Y-29761928D01*
X33825750Y-29765000D01*
X33667000Y-29923750D01*
X33413000Y-29923750D01*
X33254250Y-29765000D01*
X32974999Y-29763799D01*
X32974999Y-26130413D01*
X41944192Y-26130413D01*
X42039956Y-26394814D01*
X42329571Y-26535704D01*
X42641108Y-26617384D01*
X42962595Y-26636718D01*
X43281675Y-26592961D01*
X43586088Y-26487795D01*
X43760044Y-26394814D01*
X43855808Y-26130413D01*
X42900000Y-25174605D01*
X41944192Y-26130413D01*
X32974999Y-26130413D01*
X32974999Y-25099802D01*
X33017206Y-25057595D01*
X41258282Y-25057595D01*
X41302039Y-25376675D01*
X41407205Y-25681088D01*
X41500186Y-25855044D01*
X41764587Y-25950808D01*
X42720395Y-24995000D01*
X43079605Y-24995000D01*
X44035413Y-25950808D01*
X44299814Y-25855044D01*
X44440704Y-25565429D01*
X44522384Y-25253892D01*
X44541718Y-24932405D01*
X44497961Y-24613325D01*
X44392795Y-24308912D01*
X44299814Y-24134956D01*
X44035413Y-24039192D01*
X43079605Y-24995000D01*
X42720395Y-24995000D01*
X41764587Y-24039192D01*
X41500186Y-24134956D01*
X41359296Y-24424571D01*
X41277616Y-24736108D01*
X41258282Y-25057595D01*
X33017206Y-25057595D01*
X33711004Y-24363798D01*
X33740001Y-24340001D01*
X33834974Y-24224276D01*
X33905546Y-24092247D01*
X33949003Y-23948986D01*
X33957808Y-23859587D01*
X41944192Y-23859587D01*
X42900000Y-24815395D01*
X43855808Y-23859587D01*
X43760044Y-23595186D01*
X43470429Y-23454296D01*
X43158892Y-23372616D01*
X42837405Y-23353282D01*
X42518325Y-23397039D01*
X42213912Y-23502205D01*
X42039956Y-23595186D01*
X41944192Y-23859587D01*
X33957808Y-23859587D01*
X33960000Y-23837333D01*
X33960000Y-23837325D01*
X33963676Y-23800000D01*
X33960000Y-23762675D01*
X33960000Y-23321339D01*
X34068386Y-23263405D01*
X34202962Y-23152962D01*
X34313405Y-23018386D01*
X34395472Y-22864850D01*
X34446008Y-22698254D01*
X34463072Y-22525000D01*
X34463072Y-22492702D01*
X39186903Y-22492702D01*
X39258486Y-22736671D01*
X39513996Y-22857571D01*
X39788184Y-22926300D01*
X40070512Y-22940217D01*
X40350130Y-22898787D01*
X40616292Y-22803603D01*
X40741514Y-22736671D01*
X40813097Y-22492702D01*
X40000000Y-21679605D01*
X39186903Y-22492702D01*
X34463072Y-22492702D01*
X34463072Y-22336729D01*
X35664803Y-21134999D01*
X38612098Y-21134999D01*
X38573700Y-21288184D01*
X38559783Y-21570512D01*
X38601213Y-21850130D01*
X38696397Y-22116292D01*
X38763329Y-22241514D01*
X39007298Y-22313097D01*
X39820395Y-21500000D01*
X39806253Y-21485858D01*
X39985858Y-21306253D01*
X40000000Y-21320395D01*
X40014143Y-21306253D01*
X40193748Y-21485858D01*
X40179605Y-21500000D01*
X40992702Y-22313097D01*
X41236671Y-22241514D01*
X41357571Y-21986004D01*
X41426300Y-21711816D01*
X41440217Y-21429488D01*
X41398787Y-21149870D01*
X41393469Y-21134999D01*
X43609491Y-21134999D01*
X43565000Y-21358665D01*
X43565000Y-21641335D01*
X43620147Y-21918574D01*
X43728320Y-22179727D01*
X43885363Y-22414759D01*
X44085241Y-22614637D01*
X44320273Y-22771680D01*
X44581426Y-22879853D01*
X44858665Y-22935000D01*
X45141335Y-22935000D01*
X45418574Y-22879853D01*
X45679727Y-22771680D01*
X45914759Y-22614637D01*
X46114637Y-22414759D01*
X46218043Y-22260000D01*
X46636928Y-22260000D01*
X46636928Y-22525000D01*
X46653992Y-22698254D01*
X46704528Y-22864850D01*
X46786595Y-23018386D01*
X46897038Y-23152962D01*
X47031614Y-23263405D01*
X47140001Y-23321339D01*
X47140000Y-23540091D01*
X47125537Y-23546082D01*
X46857748Y-23725013D01*
X46630013Y-23952748D01*
X46451082Y-24220537D01*
X46327832Y-24518088D01*
X46265000Y-24833967D01*
X46265000Y-25156033D01*
X46327832Y-25471912D01*
X46451082Y-25769463D01*
X46630013Y-26037252D01*
X46857748Y-26264987D01*
X47125537Y-26443918D01*
X47423088Y-26567168D01*
X47738967Y-26630000D01*
X48061033Y-26630000D01*
X48376912Y-26567168D01*
X48674463Y-26443918D01*
X48942252Y-26264987D01*
X49169987Y-26037252D01*
X49348918Y-25769463D01*
X49472168Y-25471912D01*
X49535000Y-25156033D01*
X49535000Y-24833967D01*
X49472168Y-24518088D01*
X49348918Y-24220537D01*
X49169987Y-23952748D01*
X48942252Y-23725013D01*
X48674463Y-23546082D01*
X48660000Y-23540091D01*
X48660000Y-23321339D01*
X48768386Y-23263405D01*
X48902962Y-23152962D01*
X49013405Y-23018386D01*
X49095472Y-22864850D01*
X49146008Y-22698254D01*
X49163072Y-22525000D01*
X49163072Y-21275000D01*
X49149283Y-21134999D01*
X49450717Y-21134999D01*
X49436928Y-21275000D01*
X49436928Y-22525000D01*
X49453992Y-22698254D01*
X49504528Y-22864850D01*
X49586595Y-23018386D01*
X49697038Y-23152962D01*
X49831614Y-23263405D01*
X49940001Y-23321339D01*
X49940000Y-26712677D01*
X49936324Y-26750000D01*
X49940000Y-26787322D01*
X49940000Y-26787332D01*
X49950997Y-26898985D01*
X49988014Y-27021015D01*
X49994454Y-27042246D01*
X50065026Y-27174276D01*
X50104871Y-27222826D01*
X50159999Y-27290001D01*
X50189003Y-27313804D01*
X55858790Y-32983592D01*
X55815000Y-33203740D01*
X55815000Y-33496260D01*
X55872068Y-33783158D01*
X55984010Y-34053411D01*
X56146525Y-34296632D01*
X56353368Y-34503475D01*
X56535534Y-34625195D01*
X56418645Y-34694822D01*
X56202412Y-34889731D01*
X56028359Y-35123080D01*
X55903175Y-35385901D01*
X55858524Y-35533110D01*
X55979845Y-35763000D01*
X57173000Y-35763000D01*
X57173000Y-35743000D01*
X57427000Y-35743000D01*
X57427000Y-35763000D01*
X58620155Y-35763000D01*
X58741476Y-35533110D01*
X58696825Y-35385901D01*
X58571641Y-35123080D01*
X58397588Y-34889731D01*
X58181355Y-34694822D01*
X58064466Y-34625195D01*
X58246632Y-34503475D01*
X58453475Y-34296632D01*
X58615990Y-34053411D01*
X58727932Y-33783158D01*
X58785000Y-33496260D01*
X58785000Y-33203740D01*
X58741209Y-32983592D01*
X66064802Y-25660000D01*
X101761822Y-25660000D01*
X101886525Y-25846632D01*
X102093368Y-26053475D01*
X102336589Y-26215990D01*
X102606842Y-26327932D01*
X102893740Y-26385000D01*
X103186260Y-26385000D01*
X103473158Y-26327932D01*
X103743411Y-26215990D01*
X103986632Y-26053475D01*
X104193475Y-25846632D01*
X104315195Y-25664466D01*
X104384822Y-25781355D01*
X104579731Y-25997588D01*
X104813080Y-26171641D01*
X105075901Y-26296825D01*
X105223110Y-26341476D01*
X105453000Y-26220155D01*
X105453000Y-25027000D01*
X105433000Y-25027000D01*
X105433000Y-24773000D01*
X105453000Y-24773000D01*
X105453000Y-24753000D01*
X105707000Y-24753000D01*
X105707000Y-24773000D01*
X105727000Y-24773000D01*
X105727000Y-25027000D01*
X105707000Y-25027000D01*
X105707000Y-26220155D01*
X105936890Y-26341476D01*
X106084099Y-26296825D01*
X106346920Y-26171641D01*
X106580269Y-25997588D01*
X106775178Y-25781355D01*
X106844805Y-25664466D01*
X106966525Y-25846632D01*
X107173368Y-26053475D01*
X107416589Y-26215990D01*
X107686842Y-26327932D01*
X107973740Y-26385000D01*
X108266260Y-26385000D01*
X108553158Y-26327932D01*
X108823411Y-26215990D01*
X109066632Y-26053475D01*
X109273475Y-25846632D01*
X109390000Y-25672240D01*
X109506525Y-25846632D01*
X109713368Y-26053475D01*
X109956589Y-26215990D01*
X110226842Y-26327932D01*
X110513740Y-26385000D01*
X110806260Y-26385000D01*
X111093158Y-26327932D01*
X111363411Y-26215990D01*
X111606632Y-26053475D01*
X111813475Y-25846632D01*
X111930000Y-25672240D01*
X112046525Y-25846632D01*
X112253368Y-26053475D01*
X112496589Y-26215990D01*
X112766842Y-26327932D01*
X113053740Y-26385000D01*
X113346260Y-26385000D01*
X113633158Y-26327932D01*
X113903411Y-26215990D01*
X114146632Y-26053475D01*
X114353475Y-25846632D01*
X114470000Y-25672240D01*
X114586525Y-25846632D01*
X114793368Y-26053475D01*
X115036589Y-26215990D01*
X115306842Y-26327932D01*
X115593740Y-26385000D01*
X115886260Y-26385000D01*
X116173158Y-26327932D01*
X116443411Y-26215990D01*
X116686632Y-26053475D01*
X116893475Y-25846632D01*
X117010000Y-25672240D01*
X117126525Y-25846632D01*
X117333368Y-26053475D01*
X117576589Y-26215990D01*
X117846842Y-26327932D01*
X118133740Y-26385000D01*
X118426260Y-26385000D01*
X118713158Y-26327932D01*
X118983411Y-26215990D01*
X119226632Y-26053475D01*
X119433475Y-25846632D01*
X119550000Y-25672240D01*
X119666525Y-25846632D01*
X119873368Y-26053475D01*
X120116589Y-26215990D01*
X120386842Y-26327932D01*
X120673740Y-26385000D01*
X120966260Y-26385000D01*
X121253158Y-26327932D01*
X121523411Y-26215990D01*
X121766632Y-26053475D01*
X121973475Y-25846632D01*
X122090000Y-25672240D01*
X122206525Y-25846632D01*
X122413368Y-26053475D01*
X122656589Y-26215990D01*
X122926842Y-26327932D01*
X123213740Y-26385000D01*
X123506260Y-26385000D01*
X123793158Y-26327932D01*
X124063411Y-26215990D01*
X124306632Y-26053475D01*
X124513475Y-25846632D01*
X124630000Y-25672240D01*
X124746525Y-25846632D01*
X124953368Y-26053475D01*
X125196589Y-26215990D01*
X125466842Y-26327932D01*
X125753740Y-26385000D01*
X126046260Y-26385000D01*
X126333158Y-26327932D01*
X126603411Y-26215990D01*
X126846632Y-26053475D01*
X127053475Y-25846632D01*
X127170000Y-25672240D01*
X127286525Y-25846632D01*
X127493368Y-26053475D01*
X127736589Y-26215990D01*
X128006842Y-26327932D01*
X128293740Y-26385000D01*
X128586260Y-26385000D01*
X128873158Y-26327932D01*
X129143411Y-26215990D01*
X129386632Y-26053475D01*
X129593475Y-25846632D01*
X129710000Y-25672240D01*
X129826525Y-25846632D01*
X130033368Y-26053475D01*
X130276589Y-26215990D01*
X130546842Y-26327932D01*
X130833740Y-26385000D01*
X131126260Y-26385000D01*
X131413158Y-26327932D01*
X131683411Y-26215990D01*
X131926632Y-26053475D01*
X132133475Y-25846632D01*
X132250000Y-25672240D01*
X132366525Y-25846632D01*
X132573368Y-26053475D01*
X132816589Y-26215990D01*
X133086842Y-26327932D01*
X133373740Y-26385000D01*
X133666260Y-26385000D01*
X133953158Y-26327932D01*
X134223411Y-26215990D01*
X134466632Y-26053475D01*
X134673475Y-25846632D01*
X134790000Y-25672240D01*
X134906525Y-25846632D01*
X135113368Y-26053475D01*
X135356589Y-26215990D01*
X135626842Y-26327932D01*
X135913740Y-26385000D01*
X136206260Y-26385000D01*
X136493158Y-26327932D01*
X136763411Y-26215990D01*
X137006632Y-26053475D01*
X137213475Y-25846632D01*
X137330000Y-25672240D01*
X137446525Y-25846632D01*
X137653368Y-26053475D01*
X137896589Y-26215990D01*
X138166842Y-26327932D01*
X138453740Y-26385000D01*
X138746260Y-26385000D01*
X139033158Y-26327932D01*
X139303411Y-26215990D01*
X139546632Y-26053475D01*
X139753475Y-25846632D01*
X139870000Y-25672240D01*
X139986525Y-25846632D01*
X140193368Y-26053475D01*
X140436589Y-26215990D01*
X140706842Y-26327932D01*
X140993740Y-26385000D01*
X141120198Y-26385000D01*
X138265199Y-29240000D01*
X82757325Y-29240000D01*
X82720000Y-29236324D01*
X82682675Y-29240000D01*
X82682667Y-29240000D01*
X82571014Y-29250997D01*
X82427753Y-29294454D01*
X82295724Y-29365026D01*
X82179999Y-29459999D01*
X82156201Y-29488997D01*
X71086408Y-40558791D01*
X70866260Y-40515000D01*
X70573740Y-40515000D01*
X70286842Y-40572068D01*
X70016589Y-40684010D01*
X69773368Y-40846525D01*
X69566525Y-41053368D01*
X69404010Y-41296589D01*
X69292068Y-41566842D01*
X69235000Y-41853740D01*
X69235000Y-42146260D01*
X69292068Y-42433158D01*
X69404010Y-42703411D01*
X69566525Y-42946632D01*
X69773368Y-43153475D01*
X70016589Y-43315990D01*
X70286842Y-43427932D01*
X70573740Y-43485000D01*
X70866260Y-43485000D01*
X71153158Y-43427932D01*
X71423411Y-43315990D01*
X71666632Y-43153475D01*
X71873475Y-42946632D01*
X71990000Y-42772240D01*
X72106525Y-42946632D01*
X72313368Y-43153475D01*
X72556589Y-43315990D01*
X72826842Y-43427932D01*
X73113740Y-43485000D01*
X73406260Y-43485000D01*
X73693158Y-43427932D01*
X73963411Y-43315990D01*
X74206632Y-43153475D01*
X74413475Y-42946632D01*
X74530000Y-42772240D01*
X74646525Y-42946632D01*
X74853368Y-43153475D01*
X75096589Y-43315990D01*
X75366842Y-43427932D01*
X75653740Y-43485000D01*
X75946260Y-43485000D01*
X76233158Y-43427932D01*
X76503411Y-43315990D01*
X76746632Y-43153475D01*
X76953475Y-42946632D01*
X77070000Y-42772240D01*
X77186525Y-42946632D01*
X77393368Y-43153475D01*
X77636589Y-43315990D01*
X77906842Y-43427932D01*
X78193740Y-43485000D01*
X78486260Y-43485000D01*
X78773158Y-43427932D01*
X79043411Y-43315990D01*
X79286632Y-43153475D01*
X79493475Y-42946632D01*
X79610000Y-42772240D01*
X79726525Y-42946632D01*
X79933368Y-43153475D01*
X80176589Y-43315990D01*
X80446842Y-43427932D01*
X80733740Y-43485000D01*
X81026260Y-43485000D01*
X81246408Y-43441209D01*
X84145197Y-46340000D01*
X20686581Y-46340000D01*
X20677951Y-38500000D01*
X23801928Y-38500000D01*
X23801928Y-40500000D01*
X23814188Y-40624482D01*
X23850498Y-40744180D01*
X23909463Y-40854494D01*
X23988815Y-40951185D01*
X24085506Y-41030537D01*
X24195820Y-41089502D01*
X24241781Y-41103444D01*
X24136595Y-41231614D01*
X24054528Y-41385150D01*
X24003992Y-41551746D01*
X23986928Y-41725000D01*
X23986928Y-42475000D01*
X24003992Y-42648254D01*
X24054528Y-42814850D01*
X24136595Y-42968386D01*
X24247038Y-43102962D01*
X24381614Y-43213405D01*
X24535150Y-43295472D01*
X24701746Y-43346008D01*
X24875000Y-43363072D01*
X26125000Y-43363072D01*
X26298254Y-43346008D01*
X26464850Y-43295472D01*
X26618386Y-43213405D01*
X26752962Y-43102962D01*
X26863405Y-42968386D01*
X26945472Y-42814850D01*
X26996008Y-42648254D01*
X27013072Y-42475000D01*
X27013072Y-41725000D01*
X26996008Y-41551746D01*
X26945472Y-41385150D01*
X26863405Y-41231614D01*
X26752962Y-41097038D01*
X26720272Y-41070210D01*
X26794494Y-41030537D01*
X26891185Y-40951185D01*
X26970537Y-40854494D01*
X27025976Y-40750777D01*
X27079956Y-40899814D01*
X27369571Y-41040704D01*
X27681108Y-41122384D01*
X28002595Y-41141718D01*
X28321675Y-41097961D01*
X28626088Y-40992795D01*
X28800044Y-40899814D01*
X28895808Y-40635413D01*
X27940000Y-39679605D01*
X27925858Y-39693748D01*
X27746253Y-39514143D01*
X27760395Y-39500000D01*
X28119605Y-39500000D01*
X29075413Y-40455808D01*
X29105075Y-40445065D01*
X29170013Y-40542252D01*
X29397748Y-40769987D01*
X29579134Y-40891186D01*
X29535150Y-40904528D01*
X29381614Y-40986595D01*
X29247038Y-41097038D01*
X29136595Y-41231614D01*
X29054528Y-41385150D01*
X29003992Y-41551746D01*
X28986928Y-41725000D01*
X28986928Y-42475000D01*
X29003992Y-42648254D01*
X29054528Y-42814850D01*
X29136595Y-42968386D01*
X29247038Y-43102962D01*
X29381614Y-43213405D01*
X29535150Y-43295472D01*
X29701746Y-43346008D01*
X29875000Y-43363072D01*
X31125000Y-43363072D01*
X31298254Y-43346008D01*
X31464850Y-43295472D01*
X31618386Y-43213405D01*
X31752962Y-43102962D01*
X31863405Y-42968386D01*
X31945472Y-42814850D01*
X31996008Y-42648254D01*
X32013072Y-42475000D01*
X32013072Y-41725000D01*
X31996008Y-41551746D01*
X31945472Y-41385150D01*
X31863405Y-41231614D01*
X31752962Y-41097038D01*
X31618386Y-40986595D01*
X31464850Y-40904528D01*
X31338334Y-40866150D01*
X31482252Y-40769987D01*
X31709987Y-40542252D01*
X31888918Y-40274463D01*
X32012168Y-39976912D01*
X32075000Y-39661033D01*
X32075000Y-39338967D01*
X32012168Y-39023088D01*
X31888918Y-38725537D01*
X31709987Y-38457748D01*
X31482252Y-38230013D01*
X31214463Y-38051082D01*
X30916912Y-37927832D01*
X30601033Y-37865000D01*
X30278967Y-37865000D01*
X29963088Y-37927832D01*
X29665537Y-38051082D01*
X29397748Y-38230013D01*
X29170013Y-38457748D01*
X29105075Y-38554935D01*
X29075413Y-38544192D01*
X28119605Y-39500000D01*
X27760395Y-39500000D01*
X27746253Y-39485858D01*
X27925858Y-39306253D01*
X27940000Y-39320395D01*
X28895808Y-38364587D01*
X28800044Y-38100186D01*
X28510429Y-37959296D01*
X28198892Y-37877616D01*
X27877405Y-37858282D01*
X27558325Y-37902039D01*
X27253912Y-38007205D01*
X27079956Y-38100186D01*
X27025976Y-38249223D01*
X26970537Y-38145506D01*
X26891185Y-38048815D01*
X26794494Y-37969463D01*
X26684180Y-37910498D01*
X26564482Y-37874188D01*
X26440000Y-37861928D01*
X24440000Y-37861928D01*
X24315518Y-37874188D01*
X24195820Y-37910498D01*
X24085506Y-37969463D01*
X23988815Y-38048815D01*
X23909463Y-38145506D01*
X23850498Y-38255820D01*
X23814188Y-38375518D01*
X23801928Y-38500000D01*
X20677951Y-38500000D01*
X20672556Y-33600000D01*
X20701928Y-33600000D01*
X20714188Y-33724482D01*
X20750498Y-33844180D01*
X20809463Y-33954494D01*
X20888815Y-34051185D01*
X20985506Y-34130537D01*
X21095820Y-34189502D01*
X21215518Y-34225812D01*
X21340000Y-34238072D01*
X22054250Y-34235000D01*
X22213000Y-34076250D01*
X22213000Y-32127000D01*
X22467000Y-32127000D01*
X22467000Y-34076250D01*
X22625750Y-34235000D01*
X23340000Y-34238072D01*
X23464482Y-34225812D01*
X23584180Y-34189502D01*
X23694494Y-34130537D01*
X23791185Y-34051185D01*
X23870537Y-33954494D01*
X23929502Y-33844180D01*
X23965812Y-33724482D01*
X23978072Y-33600000D01*
X23975000Y-32285750D01*
X23816250Y-32127000D01*
X22467000Y-32127000D01*
X22213000Y-32127000D01*
X20863750Y-32127000D01*
X20705000Y-32285750D01*
X20701928Y-33600000D01*
X20672556Y-33600000D01*
X20669034Y-30400000D01*
X20701928Y-30400000D01*
X20705000Y-31714250D01*
X20863750Y-31873000D01*
X22213000Y-31873000D01*
X22213000Y-29923750D01*
X22467000Y-29923750D01*
X22467000Y-31873000D01*
X23816250Y-31873000D01*
X23975000Y-31714250D01*
X23978072Y-30400000D01*
X23965812Y-30275518D01*
X23929502Y-30155820D01*
X23870537Y-30045506D01*
X23791185Y-29948815D01*
X23694494Y-29869463D01*
X23584180Y-29810498D01*
X23464482Y-29774188D01*
X23340000Y-29761928D01*
X22625750Y-29765000D01*
X22467000Y-29923750D01*
X22213000Y-29923750D01*
X22054250Y-29765000D01*
X21340000Y-29761928D01*
X21215518Y-29774188D01*
X21095820Y-29810498D01*
X20985506Y-29869463D01*
X20888815Y-29948815D01*
X20809463Y-30045506D01*
X20750498Y-30155820D01*
X20714188Y-30275518D01*
X20701928Y-30400000D01*
X20669034Y-30400000D01*
X20664340Y-26135413D01*
X24484192Y-26135413D01*
X24579956Y-26399814D01*
X24869571Y-26540704D01*
X25181108Y-26622384D01*
X25502595Y-26641718D01*
X25821675Y-26597961D01*
X26126088Y-26492795D01*
X26300044Y-26399814D01*
X26395808Y-26135413D01*
X25440000Y-25179605D01*
X24484192Y-26135413D01*
X20664340Y-26135413D01*
X20663158Y-25062595D01*
X23798282Y-25062595D01*
X23842039Y-25381675D01*
X23947205Y-25686088D01*
X24040186Y-25860044D01*
X24304587Y-25955808D01*
X25260395Y-25000000D01*
X25619605Y-25000000D01*
X26575413Y-25955808D01*
X26839814Y-25860044D01*
X26980704Y-25570429D01*
X27062384Y-25258892D01*
X27081718Y-24937405D01*
X27037961Y-24618325D01*
X26932795Y-24313912D01*
X26839814Y-24139956D01*
X26575413Y-24044192D01*
X25619605Y-25000000D01*
X25260395Y-25000000D01*
X24304587Y-24044192D01*
X24040186Y-24139956D01*
X23899296Y-24429571D01*
X23817616Y-24741108D01*
X23798282Y-25062595D01*
X20663158Y-25062595D01*
X20661839Y-23864587D01*
X24484192Y-23864587D01*
X25440000Y-24820395D01*
X26395808Y-23864587D01*
X26300044Y-23600186D01*
X26010429Y-23459296D01*
X25698892Y-23377616D01*
X25377405Y-23358282D01*
X25058325Y-23402039D01*
X24753912Y-23507205D01*
X24579956Y-23600186D01*
X24484192Y-23864587D01*
X20661839Y-23864587D01*
X20660328Y-22492702D01*
X22186903Y-22492702D01*
X22258486Y-22736671D01*
X22513996Y-22857571D01*
X22788184Y-22926300D01*
X23070512Y-22940217D01*
X23350130Y-22898787D01*
X23616292Y-22803603D01*
X23741514Y-22736671D01*
X23813097Y-22492702D01*
X23000000Y-21679605D01*
X22186903Y-22492702D01*
X20660328Y-22492702D01*
X20660000Y-22195118D01*
X20660000Y-21570512D01*
X21559783Y-21570512D01*
X21601213Y-21850130D01*
X21696397Y-22116292D01*
X21763329Y-22241514D01*
X22007298Y-22313097D01*
X22820395Y-21500000D01*
X23179605Y-21500000D01*
X23992702Y-22313097D01*
X24236671Y-22241514D01*
X24357571Y-21986004D01*
X24426300Y-21711816D01*
X24440217Y-21429488D01*
X24398787Y-21149870D01*
X24303603Y-20883708D01*
X24236671Y-20758486D01*
X23992702Y-20686903D01*
X23179605Y-21500000D01*
X22820395Y-21500000D01*
X22007298Y-20686903D01*
X21763329Y-20758486D01*
X21642429Y-21013996D01*
X21573700Y-21288184D01*
X21559783Y-21570512D01*
X20660000Y-21570512D01*
X20660000Y-20507298D01*
X22186903Y-20507298D01*
X23000000Y-21320395D01*
X23813097Y-20507298D01*
X23741514Y-20263329D01*
X23486004Y-20142429D01*
X23211816Y-20073700D01*
X22929488Y-20059783D01*
X22649870Y-20101213D01*
X22383708Y-20196397D01*
X22258486Y-20263329D01*
X22186903Y-20507298D01*
X20660000Y-20507298D01*
X20660000Y-19660000D01*
X35088917Y-19660000D01*
X35057754Y-19669453D01*
G37*
X35057754Y-19669453D02*
X34925724Y-19740025D01*
X34842084Y-19808667D01*
X34810000Y-19834998D01*
X34786202Y-19863996D01*
X34093222Y-20556977D01*
X34068386Y-20536595D01*
X33914850Y-20454528D01*
X33748254Y-20403992D01*
X33575000Y-20386928D01*
X32825000Y-20386928D01*
X32651746Y-20403992D01*
X32485150Y-20454528D01*
X32331614Y-20536595D01*
X32197038Y-20647038D01*
X32086595Y-20781614D01*
X32004528Y-20935150D01*
X31953992Y-21101746D01*
X31936928Y-21275000D01*
X31936928Y-22525000D01*
X31953992Y-22698254D01*
X32004528Y-22864850D01*
X32086595Y-23018386D01*
X32197038Y-23152962D01*
X32331614Y-23263405D01*
X32440000Y-23321339D01*
X32440000Y-23485198D01*
X31813113Y-24112086D01*
X31709987Y-23957748D01*
X31482252Y-23730013D01*
X31214463Y-23551082D01*
X31200000Y-23545091D01*
X31200000Y-23299958D01*
X31268386Y-23263405D01*
X31402962Y-23152962D01*
X31513405Y-23018386D01*
X31595472Y-22864850D01*
X31646008Y-22698254D01*
X31663072Y-22525000D01*
X31663072Y-21275000D01*
X31646008Y-21101746D01*
X31595472Y-20935150D01*
X31513405Y-20781614D01*
X31402962Y-20647038D01*
X31268386Y-20536595D01*
X31114850Y-20454528D01*
X30948254Y-20403992D01*
X30775000Y-20386928D01*
X30025000Y-20386928D01*
X29851746Y-20403992D01*
X29685150Y-20454528D01*
X29531614Y-20536595D01*
X29397038Y-20647038D01*
X29320747Y-20740000D01*
X29218043Y-20740000D01*
X29114637Y-20585241D01*
X28914759Y-20385363D01*
X28679727Y-20228320D01*
X28418574Y-20120147D01*
X28141335Y-20065000D01*
X27858665Y-20065000D01*
X27581426Y-20120147D01*
X27320273Y-20228320D01*
X27085241Y-20385363D01*
X26885363Y-20585241D01*
X26728320Y-20820273D01*
X26620147Y-21081426D01*
X26565000Y-21358665D01*
X26565000Y-21641335D01*
X26620147Y-21918574D01*
X26728320Y-22179727D01*
X26885363Y-22414759D01*
X27085241Y-22614637D01*
X27320273Y-22771680D01*
X27581426Y-22879853D01*
X27858665Y-22935000D01*
X28141335Y-22935000D01*
X28418574Y-22879853D01*
X28679727Y-22771680D01*
X28914759Y-22614637D01*
X29114637Y-22414759D01*
X29136928Y-22381398D01*
X29136928Y-22525000D01*
X29153992Y-22698254D01*
X29204528Y-22864850D01*
X29286595Y-23018386D01*
X29397038Y-23152962D01*
X29531614Y-23263405D01*
X29680001Y-23342720D01*
X29680000Y-23545091D01*
X29665537Y-23551082D01*
X29397748Y-23730013D01*
X29170013Y-23957748D01*
X28991082Y-24225537D01*
X28867832Y-24523088D01*
X28805000Y-24838967D01*
X28805000Y-25161033D01*
X28867832Y-25476912D01*
X28991082Y-25774463D01*
X29170013Y-26042252D01*
X29397748Y-26269987D01*
X29665537Y-26448918D01*
X29963088Y-26572168D01*
X30278967Y-26635000D01*
X30601033Y-26635000D01*
X30916912Y-26572168D01*
X31214463Y-26448918D01*
X31455000Y-26288196D01*
X31454999Y-35177677D01*
X31451323Y-35214999D01*
X31454999Y-35252321D01*
X31454999Y-35252331D01*
X31465996Y-35363984D01*
X31509453Y-35507245D01*
X31580025Y-35639275D01*
X31619870Y-35687825D01*
X31674998Y-35755000D01*
X31704002Y-35778803D01*
X33140000Y-37214802D01*
X33140001Y-42060197D01*
X31484935Y-43715264D01*
X31464850Y-43704528D01*
X31298254Y-43653992D01*
X31125000Y-43636928D01*
X29875000Y-43636928D01*
X29701746Y-43653992D01*
X29535150Y-43704528D01*
X29381614Y-43786595D01*
X29247038Y-43897038D01*
X29136595Y-44031614D01*
X29078661Y-44140000D01*
X26921339Y-44140000D01*
X26863405Y-44031614D01*
X26752962Y-43897038D01*
X26618386Y-43786595D01*
X26464850Y-43704528D01*
X26298254Y-43653992D01*
X26125000Y-43636928D01*
X24875000Y-43636928D01*
X24701746Y-43653992D01*
X24535150Y-43704528D01*
X24381614Y-43786595D01*
X24247038Y-43897038D01*
X24136595Y-44031614D01*
X24054528Y-44185150D01*
X24003992Y-44351746D01*
X23986928Y-44525000D01*
X23986928Y-45275000D01*
X24003992Y-45448254D01*
X24054528Y-45614850D01*
X24136595Y-45768386D01*
X24247038Y-45902962D01*
X24381614Y-46013405D01*
X24535150Y-46095472D01*
X24701746Y-46146008D01*
X24875000Y-46163072D01*
X26125000Y-46163072D01*
X26298254Y-46146008D01*
X26464850Y-46095472D01*
X26618386Y-46013405D01*
X26752962Y-45902962D01*
X26863405Y-45768386D01*
X26921339Y-45660000D01*
X29078661Y-45660000D01*
X29136595Y-45768386D01*
X29247038Y-45902962D01*
X29381614Y-46013405D01*
X29535150Y-46095472D01*
X29701746Y-46146008D01*
X29875000Y-46163072D01*
X31125000Y-46163072D01*
X31298254Y-46146008D01*
X31464850Y-46095472D01*
X31618386Y-46013405D01*
X31752962Y-45902962D01*
X31863405Y-45768386D01*
X31945472Y-45614850D01*
X31996008Y-45448254D01*
X32006328Y-45343473D01*
X33900000Y-43449801D01*
X35986201Y-45536003D01*
X36009999Y-45565001D01*
X36038997Y-45588799D01*
X36125723Y-45659974D01*
X36226209Y-45713685D01*
X36257753Y-45730546D01*
X36401014Y-45774003D01*
X36512667Y-45785000D01*
X36512677Y-45785000D01*
X36550000Y-45788676D01*
X36587323Y-45785000D01*
X41478661Y-45785000D01*
X41536595Y-45893386D01*
X41647038Y-46027962D01*
X41781614Y-46138405D01*
X41935150Y-46220472D01*
X42101746Y-46271008D01*
X42275000Y-46288072D01*
X43525000Y-46288072D01*
X43698254Y-46271008D01*
X43864850Y-46220472D01*
X44018386Y-46138405D01*
X44152962Y-46027962D01*
X44263405Y-45893386D01*
X44321339Y-45785000D01*
X46478661Y-45785000D01*
X46536595Y-45893386D01*
X46647038Y-46027962D01*
X46781614Y-46138405D01*
X46935150Y-46220472D01*
X47101746Y-46271008D01*
X47275000Y-46288072D01*
X48525000Y-46288072D01*
X48698254Y-46271008D01*
X48864850Y-46220472D01*
X49018386Y-46138405D01*
X49152962Y-46027962D01*
X49263405Y-45893386D01*
X49345472Y-45739850D01*
X49396008Y-45573254D01*
X49413072Y-45400000D01*
X49413072Y-44650000D01*
X49396008Y-44476746D01*
X49345472Y-44310150D01*
X49263405Y-44156614D01*
X49152962Y-44022038D01*
X49018386Y-43911595D01*
X48864850Y-43829528D01*
X48698254Y-43778992D01*
X48525000Y-43761928D01*
X47275000Y-43761928D01*
X47101746Y-43778992D01*
X46935150Y-43829528D01*
X46781614Y-43911595D01*
X46647038Y-44022038D01*
X46536595Y-44156614D01*
X46478661Y-44265000D01*
X44321339Y-44265000D01*
X44263405Y-44156614D01*
X44152962Y-44022038D01*
X44018386Y-43911595D01*
X43864850Y-43829528D01*
X43698254Y-43778992D01*
X43525000Y-43761928D01*
X42275000Y-43761928D01*
X42101746Y-43778992D01*
X41935150Y-43829528D01*
X41781614Y-43911595D01*
X41647038Y-44022038D01*
X41536595Y-44156614D01*
X41478661Y-44265000D01*
X36864802Y-44265000D01*
X34660000Y-42060199D01*
X34660000Y-38495000D01*
X41261928Y-38495000D01*
X41261928Y-40495000D01*
X41274188Y-40619482D01*
X41310498Y-40739180D01*
X41369463Y-40849494D01*
X41448815Y-40946185D01*
X41545506Y-41025537D01*
X41655820Y-41084502D01*
X41771769Y-41119675D01*
X41647038Y-41222038D01*
X41536595Y-41356614D01*
X41454528Y-41510150D01*
X41403992Y-41676746D01*
X41386928Y-41850000D01*
X41386928Y-42600000D01*
X41403992Y-42773254D01*
X41454528Y-42939850D01*
X41536595Y-43093386D01*
X41647038Y-43227962D01*
X41781614Y-43338405D01*
X41935150Y-43420472D01*
X42101746Y-43471008D01*
X42275000Y-43488072D01*
X43525000Y-43488072D01*
X43698254Y-43471008D01*
X43864850Y-43420472D01*
X44018386Y-43338405D01*
X44152962Y-43227962D01*
X44263405Y-43093386D01*
X44345472Y-42939850D01*
X44396008Y-42773254D01*
X44413072Y-42600000D01*
X44413072Y-41850000D01*
X44396008Y-41676746D01*
X44345472Y-41510150D01*
X44263405Y-41356614D01*
X44152962Y-41222038D01*
X44028231Y-41119675D01*
X44144180Y-41084502D01*
X44254494Y-41025537D01*
X44351185Y-40946185D01*
X44430537Y-40849494D01*
X44485976Y-40745777D01*
X44539956Y-40894814D01*
X44829571Y-41035704D01*
X45141108Y-41117384D01*
X45462595Y-41136718D01*
X45781675Y-41092961D01*
X46086088Y-40987795D01*
X46260044Y-40894814D01*
X46355808Y-40630413D01*
X45400000Y-39674605D01*
X45385858Y-39688748D01*
X45206253Y-39509143D01*
X45220395Y-39495000D01*
X45579605Y-39495000D01*
X46535413Y-40450808D01*
X46565075Y-40440065D01*
X46630013Y-40537252D01*
X46857748Y-40764987D01*
X47125537Y-40943918D01*
X47140000Y-40949909D01*
X47140000Y-40975224D01*
X47101746Y-40978992D01*
X46935150Y-41029528D01*
X46781614Y-41111595D01*
X46647038Y-41222038D01*
X46536595Y-41356614D01*
X46454528Y-41510150D01*
X46403992Y-41676746D01*
X46386928Y-41850000D01*
X46386928Y-42600000D01*
X46403992Y-42773254D01*
X46454528Y-42939850D01*
X46536595Y-43093386D01*
X46647038Y-43227962D01*
X46781614Y-43338405D01*
X46935150Y-43420472D01*
X47101746Y-43471008D01*
X47275000Y-43488072D01*
X48525000Y-43488072D01*
X48698254Y-43471008D01*
X48864850Y-43420472D01*
X49018386Y-43338405D01*
X49152962Y-43227962D01*
X49263405Y-43093386D01*
X49345472Y-42939850D01*
X49396008Y-42773254D01*
X49413072Y-42600000D01*
X49413072Y-41850000D01*
X49396008Y-41676746D01*
X49345472Y-41510150D01*
X49263405Y-41356614D01*
X49152962Y-41222038D01*
X49018386Y-41111595D01*
X48864850Y-41029528D01*
X48698254Y-40978992D01*
X48660000Y-40975224D01*
X48660000Y-40949909D01*
X48674463Y-40943918D01*
X48942252Y-40764987D01*
X49169987Y-40537252D01*
X49348918Y-40269463D01*
X49472168Y-39971912D01*
X49535000Y-39656033D01*
X49535000Y-39333967D01*
X49472168Y-39018088D01*
X49348918Y-38720537D01*
X49169987Y-38452748D01*
X48942252Y-38225013D01*
X48674463Y-38046082D01*
X48376912Y-37922832D01*
X48061033Y-37860000D01*
X47738967Y-37860000D01*
X47423088Y-37922832D01*
X47125537Y-38046082D01*
X46857748Y-38225013D01*
X46630013Y-38452748D01*
X46565075Y-38549935D01*
X46535413Y-38539192D01*
X45579605Y-39495000D01*
X45220395Y-39495000D01*
X45206253Y-39480858D01*
X45385858Y-39301253D01*
X45400000Y-39315395D01*
X46355808Y-38359587D01*
X46260044Y-38095186D01*
X45970429Y-37954296D01*
X45658892Y-37872616D01*
X45337405Y-37853282D01*
X45018325Y-37897039D01*
X44713912Y-38002205D01*
X44539956Y-38095186D01*
X44485976Y-38244223D01*
X44430537Y-38140506D01*
X44351185Y-38043815D01*
X44254494Y-37964463D01*
X44144180Y-37905498D01*
X44024482Y-37869188D01*
X43900000Y-37856928D01*
X41900000Y-37856928D01*
X41775518Y-37869188D01*
X41655820Y-37905498D01*
X41545506Y-37964463D01*
X41448815Y-38043815D01*
X41369463Y-38140506D01*
X41310498Y-38250820D01*
X41274188Y-38370518D01*
X41261928Y-38495000D01*
X34660000Y-38495000D01*
X34660000Y-36937322D01*
X34663676Y-36899999D01*
X34660000Y-36862676D01*
X34660000Y-36862667D01*
X34649003Y-36751014D01*
X34605546Y-36607753D01*
X34534974Y-36475724D01*
X34440001Y-36359999D01*
X34411004Y-36336202D01*
X34321692Y-36246890D01*
X55858524Y-36246890D01*
X55903175Y-36394099D01*
X56028359Y-36656920D01*
X56202412Y-36890269D01*
X56418645Y-37085178D01*
X56668748Y-37234157D01*
X56943109Y-37331481D01*
X57173000Y-37210814D01*
X57173000Y-36017000D01*
X57427000Y-36017000D01*
X57427000Y-37210814D01*
X57656891Y-37331481D01*
X57931252Y-37234157D01*
X58181355Y-37085178D01*
X58397588Y-36890269D01*
X58571641Y-36656920D01*
X58696825Y-36394099D01*
X58741476Y-36246890D01*
X58620155Y-36017000D01*
X57427000Y-36017000D01*
X57173000Y-36017000D01*
X55979845Y-36017000D01*
X55858524Y-36246890D01*
X34321692Y-36246890D01*
X32974999Y-34900198D01*
X32974999Y-34236201D01*
X33254250Y-34235000D01*
X33413000Y-34076250D01*
X33413000Y-32127000D01*
X33667000Y-32127000D01*
X33667000Y-34076250D01*
X33825750Y-34235000D01*
X34540000Y-34238072D01*
X34664482Y-34225812D01*
X34784180Y-34189502D01*
X34894494Y-34130537D01*
X34991185Y-34051185D01*
X35070537Y-33954494D01*
X35129502Y-33844180D01*
X35165812Y-33724482D01*
X35178072Y-33600000D01*
X35178061Y-33595000D01*
X38161928Y-33595000D01*
X38174188Y-33719482D01*
X38210498Y-33839180D01*
X38269463Y-33949494D01*
X38348815Y-34046185D01*
X38445506Y-34125537D01*
X38555820Y-34184502D01*
X38675518Y-34220812D01*
X38800000Y-34233072D01*
X39514250Y-34230000D01*
X39673000Y-34071250D01*
X39673000Y-32122000D01*
X39927000Y-32122000D01*
X39927000Y-34071250D01*
X40085750Y-34230000D01*
X40800000Y-34233072D01*
X40924482Y-34220812D01*
X41044180Y-34184502D01*
X41154494Y-34125537D01*
X41251185Y-34046185D01*
X41330537Y-33949494D01*
X41389502Y-33839180D01*
X41425812Y-33719482D01*
X41438072Y-33595000D01*
X49361928Y-33595000D01*
X49374188Y-33719482D01*
X49410498Y-33839180D01*
X49469463Y-33949494D01*
X49548815Y-34046185D01*
X49645506Y-34125537D01*
X49755820Y-34184502D01*
X49875518Y-34220812D01*
X50000000Y-34233072D01*
X50714250Y-34230000D01*
X50873000Y-34071250D01*
X50873000Y-32122000D01*
X51127000Y-32122000D01*
X51127000Y-34071250D01*
X51285750Y-34230000D01*
X52000000Y-34233072D01*
X52124482Y-34220812D01*
X52244180Y-34184502D01*
X52354494Y-34125537D01*
X52451185Y-34046185D01*
X52530537Y-33949494D01*
X52589502Y-33839180D01*
X52625812Y-33719482D01*
X52638072Y-33595000D01*
X52635000Y-32280750D01*
X52476250Y-32122000D01*
X51127000Y-32122000D01*
X50873000Y-32122000D01*
X49523750Y-32122000D01*
X49365000Y-32280750D01*
X49361928Y-33595000D01*
X41438072Y-33595000D01*
X41435000Y-32280750D01*
X41276250Y-32122000D01*
X39927000Y-32122000D01*
X39673000Y-32122000D01*
X38323750Y-32122000D01*
X38165000Y-32280750D01*
X38161928Y-33595000D01*
X35178061Y-33595000D01*
X35175000Y-32285750D01*
X35016250Y-32127000D01*
X33667000Y-32127000D01*
X33413000Y-32127000D01*
X33393000Y-32127000D01*
X33393000Y-31873000D01*
X33413000Y-31873000D01*
X33413000Y-29923750D01*
X33667000Y-29923750D01*
X33667000Y-31873000D01*
X35016250Y-31873000D01*
X35175000Y-31714250D01*
X35178072Y-30400000D01*
X35177580Y-30395000D01*
X38161928Y-30395000D01*
X38165000Y-31709250D01*
X38323750Y-31868000D01*
X39673000Y-31868000D01*
X39673000Y-29918750D01*
X39927000Y-29918750D01*
X39927000Y-31868000D01*
X41276250Y-31868000D01*
X41435000Y-31709250D01*
X41438072Y-30395000D01*
X49361928Y-30395000D01*
X49365000Y-31709250D01*
X49523750Y-31868000D01*
X50873000Y-31868000D01*
X50873000Y-29918750D01*
X51127000Y-29918750D01*
X51127000Y-31868000D01*
X52476250Y-31868000D01*
X52635000Y-31709250D01*
X52638072Y-30395000D01*
X52625812Y-30270518D01*
X52589502Y-30150820D01*
X52530537Y-30040506D01*
X52451185Y-29943815D01*
X52354494Y-29864463D01*
X52244180Y-29805498D01*
X52124482Y-29769188D01*
X52000000Y-29756928D01*
X51285750Y-29760000D01*
X51127000Y-29918750D01*
X50873000Y-29918750D01*
X50714250Y-29760000D01*
X50000000Y-29756928D01*
X49875518Y-29769188D01*
X49755820Y-29805498D01*
X49645506Y-29864463D01*
X49548815Y-29943815D01*
X49469463Y-30040506D01*
X49410498Y-30150820D01*
X49374188Y-30270518D01*
X49361928Y-30395000D01*
X41438072Y-30395000D01*
X41425812Y-30270518D01*
X41389502Y-30150820D01*
X41330537Y-30040506D01*
X41251185Y-29943815D01*
X41154494Y-29864463D01*
X41044180Y-29805498D01*
X40924482Y-29769188D01*
X40800000Y-29756928D01*
X40085750Y-29760000D01*
X39927000Y-29918750D01*
X39673000Y-29918750D01*
X39514250Y-29760000D01*
X38800000Y-29756928D01*
X38675518Y-29769188D01*
X38555820Y-29805498D01*
X38445506Y-29864463D01*
X38348815Y-29943815D01*
X38269463Y-30040506D01*
X38210498Y-30150820D01*
X38174188Y-30270518D01*
X38161928Y-30395000D01*
X35177580Y-30395000D01*
X35165812Y-30275518D01*
X35129502Y-30155820D01*
X35070537Y-30045506D01*
X34991185Y-29948815D01*
X34894494Y-29869463D01*
X34784180Y-29810498D01*
X34664482Y-29774188D01*
X34540000Y-29761928D01*
X33825750Y-29765000D01*
X33667000Y-29923750D01*
X33413000Y-29923750D01*
X33254250Y-29765000D01*
X32974999Y-29763799D01*
X32974999Y-26130413D01*
X41944192Y-26130413D01*
X42039956Y-26394814D01*
X42329571Y-26535704D01*
X42641108Y-26617384D01*
X42962595Y-26636718D01*
X43281675Y-26592961D01*
X43586088Y-26487795D01*
X43760044Y-26394814D01*
X43855808Y-26130413D01*
X42900000Y-25174605D01*
X41944192Y-26130413D01*
X32974999Y-26130413D01*
X32974999Y-25099802D01*
X33017206Y-25057595D01*
X41258282Y-25057595D01*
X41302039Y-25376675D01*
X41407205Y-25681088D01*
X41500186Y-25855044D01*
X41764587Y-25950808D01*
X42720395Y-24995000D01*
X43079605Y-24995000D01*
X44035413Y-25950808D01*
X44299814Y-25855044D01*
X44440704Y-25565429D01*
X44522384Y-25253892D01*
X44541718Y-24932405D01*
X44497961Y-24613325D01*
X44392795Y-24308912D01*
X44299814Y-24134956D01*
X44035413Y-24039192D01*
X43079605Y-24995000D01*
X42720395Y-24995000D01*
X41764587Y-24039192D01*
X41500186Y-24134956D01*
X41359296Y-24424571D01*
X41277616Y-24736108D01*
X41258282Y-25057595D01*
X33017206Y-25057595D01*
X33711004Y-24363798D01*
X33740001Y-24340001D01*
X33834974Y-24224276D01*
X33905546Y-24092247D01*
X33949003Y-23948986D01*
X33957808Y-23859587D01*
X41944192Y-23859587D01*
X42900000Y-24815395D01*
X43855808Y-23859587D01*
X43760044Y-23595186D01*
X43470429Y-23454296D01*
X43158892Y-23372616D01*
X42837405Y-23353282D01*
X42518325Y-23397039D01*
X42213912Y-23502205D01*
X42039956Y-23595186D01*
X41944192Y-23859587D01*
X33957808Y-23859587D01*
X33960000Y-23837333D01*
X33960000Y-23837325D01*
X33963676Y-23800000D01*
X33960000Y-23762675D01*
X33960000Y-23321339D01*
X34068386Y-23263405D01*
X34202962Y-23152962D01*
X34313405Y-23018386D01*
X34395472Y-22864850D01*
X34446008Y-22698254D01*
X34463072Y-22525000D01*
X34463072Y-22492702D01*
X39186903Y-22492702D01*
X39258486Y-22736671D01*
X39513996Y-22857571D01*
X39788184Y-22926300D01*
X40070512Y-22940217D01*
X40350130Y-22898787D01*
X40616292Y-22803603D01*
X40741514Y-22736671D01*
X40813097Y-22492702D01*
X40000000Y-21679605D01*
X39186903Y-22492702D01*
X34463072Y-22492702D01*
X34463072Y-22336729D01*
X35664803Y-21134999D01*
X38612098Y-21134999D01*
X38573700Y-21288184D01*
X38559783Y-21570512D01*
X38601213Y-21850130D01*
X38696397Y-22116292D01*
X38763329Y-22241514D01*
X39007298Y-22313097D01*
X39820395Y-21500000D01*
X39806253Y-21485858D01*
X39985858Y-21306253D01*
X40000000Y-21320395D01*
X40014143Y-21306253D01*
X40193748Y-21485858D01*
X40179605Y-21500000D01*
X40992702Y-22313097D01*
X41236671Y-22241514D01*
X41357571Y-21986004D01*
X41426300Y-21711816D01*
X41440217Y-21429488D01*
X41398787Y-21149870D01*
X41393469Y-21134999D01*
X43609491Y-21134999D01*
X43565000Y-21358665D01*
X43565000Y-21641335D01*
X43620147Y-21918574D01*
X43728320Y-22179727D01*
X43885363Y-22414759D01*
X44085241Y-22614637D01*
X44320273Y-22771680D01*
X44581426Y-22879853D01*
X44858665Y-22935000D01*
X45141335Y-22935000D01*
X45418574Y-22879853D01*
X45679727Y-22771680D01*
X45914759Y-22614637D01*
X46114637Y-22414759D01*
X46218043Y-22260000D01*
X46636928Y-22260000D01*
X46636928Y-22525000D01*
X46653992Y-22698254D01*
X46704528Y-22864850D01*
X46786595Y-23018386D01*
X46897038Y-23152962D01*
X47031614Y-23263405D01*
X47140001Y-23321339D01*
X47140000Y-23540091D01*
X47125537Y-23546082D01*
X46857748Y-23725013D01*
X46630013Y-23952748D01*
X46451082Y-24220537D01*
X46327832Y-24518088D01*
X46265000Y-24833967D01*
X46265000Y-25156033D01*
X46327832Y-25471912D01*
X46451082Y-25769463D01*
X46630013Y-26037252D01*
X46857748Y-26264987D01*
X47125537Y-26443918D01*
X47423088Y-26567168D01*
X47738967Y-26630000D01*
X48061033Y-26630000D01*
X48376912Y-26567168D01*
X48674463Y-26443918D01*
X48942252Y-26264987D01*
X49169987Y-26037252D01*
X49348918Y-25769463D01*
X49472168Y-25471912D01*
X49535000Y-25156033D01*
X49535000Y-24833967D01*
X49472168Y-24518088D01*
X49348918Y-24220537D01*
X49169987Y-23952748D01*
X48942252Y-23725013D01*
X48674463Y-23546082D01*
X48660000Y-23540091D01*
X48660000Y-23321339D01*
X48768386Y-23263405D01*
X48902962Y-23152962D01*
X49013405Y-23018386D01*
X49095472Y-22864850D01*
X49146008Y-22698254D01*
X49163072Y-22525000D01*
X49163072Y-21275000D01*
X49149283Y-21134999D01*
X49450717Y-21134999D01*
X49436928Y-21275000D01*
X49436928Y-22525000D01*
X49453992Y-22698254D01*
X49504528Y-22864850D01*
X49586595Y-23018386D01*
X49697038Y-23152962D01*
X49831614Y-23263405D01*
X49940001Y-23321339D01*
X49940000Y-26712677D01*
X49936324Y-26750000D01*
X49940000Y-26787322D01*
X49940000Y-26787332D01*
X49950997Y-26898985D01*
X49988014Y-27021015D01*
X49994454Y-27042246D01*
X50065026Y-27174276D01*
X50104871Y-27222826D01*
X50159999Y-27290001D01*
X50189003Y-27313804D01*
X55858790Y-32983592D01*
X55815000Y-33203740D01*
X55815000Y-33496260D01*
X55872068Y-33783158D01*
X55984010Y-34053411D01*
X56146525Y-34296632D01*
X56353368Y-34503475D01*
X56535534Y-34625195D01*
X56418645Y-34694822D01*
X56202412Y-34889731D01*
X56028359Y-35123080D01*
X55903175Y-35385901D01*
X55858524Y-35533110D01*
X55979845Y-35763000D01*
X57173000Y-35763000D01*
X57173000Y-35743000D01*
X57427000Y-35743000D01*
X57427000Y-35763000D01*
X58620155Y-35763000D01*
X58741476Y-35533110D01*
X58696825Y-35385901D01*
X58571641Y-35123080D01*
X58397588Y-34889731D01*
X58181355Y-34694822D01*
X58064466Y-34625195D01*
X58246632Y-34503475D01*
X58453475Y-34296632D01*
X58615990Y-34053411D01*
X58727932Y-33783158D01*
X58785000Y-33496260D01*
X58785000Y-33203740D01*
X58741209Y-32983592D01*
X66064802Y-25660000D01*
X101761822Y-25660000D01*
X101886525Y-25846632D01*
X102093368Y-26053475D01*
X102336589Y-26215990D01*
X102606842Y-26327932D01*
X102893740Y-26385000D01*
X103186260Y-26385000D01*
X103473158Y-26327932D01*
X103743411Y-26215990D01*
X103986632Y-26053475D01*
X104193475Y-25846632D01*
X104315195Y-25664466D01*
X104384822Y-25781355D01*
X104579731Y-25997588D01*
X104813080Y-26171641D01*
X105075901Y-26296825D01*
X105223110Y-26341476D01*
X105453000Y-26220155D01*
X105453000Y-25027000D01*
X105433000Y-25027000D01*
X105433000Y-24773000D01*
X105453000Y-24773000D01*
X105453000Y-24753000D01*
X105707000Y-24753000D01*
X105707000Y-24773000D01*
X105727000Y-24773000D01*
X105727000Y-25027000D01*
X105707000Y-25027000D01*
X105707000Y-26220155D01*
X105936890Y-26341476D01*
X106084099Y-26296825D01*
X106346920Y-26171641D01*
X106580269Y-25997588D01*
X106775178Y-25781355D01*
X106844805Y-25664466D01*
X106966525Y-25846632D01*
X107173368Y-26053475D01*
X107416589Y-26215990D01*
X107686842Y-26327932D01*
X107973740Y-26385000D01*
X108266260Y-26385000D01*
X108553158Y-26327932D01*
X108823411Y-26215990D01*
X109066632Y-26053475D01*
X109273475Y-25846632D01*
X109390000Y-25672240D01*
X109506525Y-25846632D01*
X109713368Y-26053475D01*
X109956589Y-26215990D01*
X110226842Y-26327932D01*
X110513740Y-26385000D01*
X110806260Y-26385000D01*
X111093158Y-26327932D01*
X111363411Y-26215990D01*
X111606632Y-26053475D01*
X111813475Y-25846632D01*
X111930000Y-25672240D01*
X112046525Y-25846632D01*
X112253368Y-26053475D01*
X112496589Y-26215990D01*
X112766842Y-26327932D01*
X113053740Y-26385000D01*
X113346260Y-26385000D01*
X113633158Y-26327932D01*
X113903411Y-26215990D01*
X114146632Y-26053475D01*
X114353475Y-25846632D01*
X114470000Y-25672240D01*
X114586525Y-25846632D01*
X114793368Y-26053475D01*
X115036589Y-26215990D01*
X115306842Y-26327932D01*
X115593740Y-26385000D01*
X115886260Y-26385000D01*
X116173158Y-26327932D01*
X116443411Y-26215990D01*
X116686632Y-26053475D01*
X116893475Y-25846632D01*
X117010000Y-25672240D01*
X117126525Y-25846632D01*
X117333368Y-26053475D01*
X117576589Y-26215990D01*
X117846842Y-26327932D01*
X118133740Y-26385000D01*
X118426260Y-26385000D01*
X118713158Y-26327932D01*
X118983411Y-26215990D01*
X119226632Y-26053475D01*
X119433475Y-25846632D01*
X119550000Y-25672240D01*
X119666525Y-25846632D01*
X119873368Y-26053475D01*
X120116589Y-26215990D01*
X120386842Y-26327932D01*
X120673740Y-26385000D01*
X120966260Y-26385000D01*
X121253158Y-26327932D01*
X121523411Y-26215990D01*
X121766632Y-26053475D01*
X121973475Y-25846632D01*
X122090000Y-25672240D01*
X122206525Y-25846632D01*
X122413368Y-26053475D01*
X122656589Y-26215990D01*
X122926842Y-26327932D01*
X123213740Y-26385000D01*
X123506260Y-26385000D01*
X123793158Y-26327932D01*
X124063411Y-26215990D01*
X124306632Y-26053475D01*
X124513475Y-25846632D01*
X124630000Y-25672240D01*
X124746525Y-25846632D01*
X124953368Y-26053475D01*
X125196589Y-26215990D01*
X125466842Y-26327932D01*
X125753740Y-26385000D01*
X126046260Y-26385000D01*
X126333158Y-26327932D01*
X126603411Y-26215990D01*
X126846632Y-26053475D01*
X127053475Y-25846632D01*
X127170000Y-25672240D01*
X127286525Y-25846632D01*
X127493368Y-26053475D01*
X127736589Y-26215990D01*
X128006842Y-26327932D01*
X128293740Y-26385000D01*
X128586260Y-26385000D01*
X128873158Y-26327932D01*
X129143411Y-26215990D01*
X129386632Y-26053475D01*
X129593475Y-25846632D01*
X129710000Y-25672240D01*
X129826525Y-25846632D01*
X130033368Y-26053475D01*
X130276589Y-26215990D01*
X130546842Y-26327932D01*
X130833740Y-26385000D01*
X131126260Y-26385000D01*
X131413158Y-26327932D01*
X131683411Y-26215990D01*
X131926632Y-26053475D01*
X132133475Y-25846632D01*
X132250000Y-25672240D01*
X132366525Y-25846632D01*
X132573368Y-26053475D01*
X132816589Y-26215990D01*
X133086842Y-26327932D01*
X133373740Y-26385000D01*
X133666260Y-26385000D01*
X133953158Y-26327932D01*
X134223411Y-26215990D01*
X134466632Y-26053475D01*
X134673475Y-25846632D01*
X134790000Y-25672240D01*
X134906525Y-25846632D01*
X135113368Y-26053475D01*
X135356589Y-26215990D01*
X135626842Y-26327932D01*
X135913740Y-26385000D01*
X136206260Y-26385000D01*
X136493158Y-26327932D01*
X136763411Y-26215990D01*
X137006632Y-26053475D01*
X137213475Y-25846632D01*
X137330000Y-25672240D01*
X137446525Y-25846632D01*
X137653368Y-26053475D01*
X137896589Y-26215990D01*
X138166842Y-26327932D01*
X138453740Y-26385000D01*
X138746260Y-26385000D01*
X139033158Y-26327932D01*
X139303411Y-26215990D01*
X139546632Y-26053475D01*
X139753475Y-25846632D01*
X139870000Y-25672240D01*
X139986525Y-25846632D01*
X140193368Y-26053475D01*
X140436589Y-26215990D01*
X140706842Y-26327932D01*
X140993740Y-26385000D01*
X141120198Y-26385000D01*
X138265199Y-29240000D01*
X82757325Y-29240000D01*
X82720000Y-29236324D01*
X82682675Y-29240000D01*
X82682667Y-29240000D01*
X82571014Y-29250997D01*
X82427753Y-29294454D01*
X82295724Y-29365026D01*
X82179999Y-29459999D01*
X82156201Y-29488997D01*
X71086408Y-40558791D01*
X70866260Y-40515000D01*
X70573740Y-40515000D01*
X70286842Y-40572068D01*
X70016589Y-40684010D01*
X69773368Y-40846525D01*
X69566525Y-41053368D01*
X69404010Y-41296589D01*
X69292068Y-41566842D01*
X69235000Y-41853740D01*
X69235000Y-42146260D01*
X69292068Y-42433158D01*
X69404010Y-42703411D01*
X69566525Y-42946632D01*
X69773368Y-43153475D01*
X70016589Y-43315990D01*
X70286842Y-43427932D01*
X70573740Y-43485000D01*
X70866260Y-43485000D01*
X71153158Y-43427932D01*
X71423411Y-43315990D01*
X71666632Y-43153475D01*
X71873475Y-42946632D01*
X71990000Y-42772240D01*
X72106525Y-42946632D01*
X72313368Y-43153475D01*
X72556589Y-43315990D01*
X72826842Y-43427932D01*
X73113740Y-43485000D01*
X73406260Y-43485000D01*
X73693158Y-43427932D01*
X73963411Y-43315990D01*
X74206632Y-43153475D01*
X74413475Y-42946632D01*
X74530000Y-42772240D01*
X74646525Y-42946632D01*
X74853368Y-43153475D01*
X75096589Y-43315990D01*
X75366842Y-43427932D01*
X75653740Y-43485000D01*
X75946260Y-43485000D01*
X76233158Y-43427932D01*
X76503411Y-43315990D01*
X76746632Y-43153475D01*
X76953475Y-42946632D01*
X77070000Y-42772240D01*
X77186525Y-42946632D01*
X77393368Y-43153475D01*
X77636589Y-43315990D01*
X77906842Y-43427932D01*
X78193740Y-43485000D01*
X78486260Y-43485000D01*
X78773158Y-43427932D01*
X79043411Y-43315990D01*
X79286632Y-43153475D01*
X79493475Y-42946632D01*
X79610000Y-42772240D01*
X79726525Y-42946632D01*
X79933368Y-43153475D01*
X80176589Y-43315990D01*
X80446842Y-43427932D01*
X80733740Y-43485000D01*
X81026260Y-43485000D01*
X81246408Y-43441209D01*
X84145197Y-46340000D01*
X20686581Y-46340000D01*
X20677951Y-38500000D01*
X23801928Y-38500000D01*
X23801928Y-40500000D01*
X23814188Y-40624482D01*
X23850498Y-40744180D01*
X23909463Y-40854494D01*
X23988815Y-40951185D01*
X24085506Y-41030537D01*
X24195820Y-41089502D01*
X24241781Y-41103444D01*
X24136595Y-41231614D01*
X24054528Y-41385150D01*
X24003992Y-41551746D01*
X23986928Y-41725000D01*
X23986928Y-42475000D01*
X24003992Y-42648254D01*
X24054528Y-42814850D01*
X24136595Y-42968386D01*
X24247038Y-43102962D01*
X24381614Y-43213405D01*
X24535150Y-43295472D01*
X24701746Y-43346008D01*
X24875000Y-43363072D01*
X26125000Y-43363072D01*
X26298254Y-43346008D01*
X26464850Y-43295472D01*
X26618386Y-43213405D01*
X26752962Y-43102962D01*
X26863405Y-42968386D01*
X26945472Y-42814850D01*
X26996008Y-42648254D01*
X27013072Y-42475000D01*
X27013072Y-41725000D01*
X26996008Y-41551746D01*
X26945472Y-41385150D01*
X26863405Y-41231614D01*
X26752962Y-41097038D01*
X26720272Y-41070210D01*
X26794494Y-41030537D01*
X26891185Y-40951185D01*
X26970537Y-40854494D01*
X27025976Y-40750777D01*
X27079956Y-40899814D01*
X27369571Y-41040704D01*
X27681108Y-41122384D01*
X28002595Y-41141718D01*
X28321675Y-41097961D01*
X28626088Y-40992795D01*
X28800044Y-40899814D01*
X28895808Y-40635413D01*
X27940000Y-39679605D01*
X27925858Y-39693748D01*
X27746253Y-39514143D01*
X27760395Y-39500000D01*
X28119605Y-39500000D01*
X29075413Y-40455808D01*
X29105075Y-40445065D01*
X29170013Y-40542252D01*
X29397748Y-40769987D01*
X29579134Y-40891186D01*
X29535150Y-40904528D01*
X29381614Y-40986595D01*
X29247038Y-41097038D01*
X29136595Y-41231614D01*
X29054528Y-41385150D01*
X29003992Y-41551746D01*
X28986928Y-41725000D01*
X28986928Y-42475000D01*
X29003992Y-42648254D01*
X29054528Y-42814850D01*
X29136595Y-42968386D01*
X29247038Y-43102962D01*
X29381614Y-43213405D01*
X29535150Y-43295472D01*
X29701746Y-43346008D01*
X29875000Y-43363072D01*
X31125000Y-43363072D01*
X31298254Y-43346008D01*
X31464850Y-43295472D01*
X31618386Y-43213405D01*
X31752962Y-43102962D01*
X31863405Y-42968386D01*
X31945472Y-42814850D01*
X31996008Y-42648254D01*
X32013072Y-42475000D01*
X32013072Y-41725000D01*
X31996008Y-41551746D01*
X31945472Y-41385150D01*
X31863405Y-41231614D01*
X31752962Y-41097038D01*
X31618386Y-40986595D01*
X31464850Y-40904528D01*
X31338334Y-40866150D01*
X31482252Y-40769987D01*
X31709987Y-40542252D01*
X31888918Y-40274463D01*
X32012168Y-39976912D01*
X32075000Y-39661033D01*
X32075000Y-39338967D01*
X32012168Y-39023088D01*
X31888918Y-38725537D01*
X31709987Y-38457748D01*
X31482252Y-38230013D01*
X31214463Y-38051082D01*
X30916912Y-37927832D01*
X30601033Y-37865000D01*
X30278967Y-37865000D01*
X29963088Y-37927832D01*
X29665537Y-38051082D01*
X29397748Y-38230013D01*
X29170013Y-38457748D01*
X29105075Y-38554935D01*
X29075413Y-38544192D01*
X28119605Y-39500000D01*
X27760395Y-39500000D01*
X27746253Y-39485858D01*
X27925858Y-39306253D01*
X27940000Y-39320395D01*
X28895808Y-38364587D01*
X28800044Y-38100186D01*
X28510429Y-37959296D01*
X28198892Y-37877616D01*
X27877405Y-37858282D01*
X27558325Y-37902039D01*
X27253912Y-38007205D01*
X27079956Y-38100186D01*
X27025976Y-38249223D01*
X26970537Y-38145506D01*
X26891185Y-38048815D01*
X26794494Y-37969463D01*
X26684180Y-37910498D01*
X26564482Y-37874188D01*
X26440000Y-37861928D01*
X24440000Y-37861928D01*
X24315518Y-37874188D01*
X24195820Y-37910498D01*
X24085506Y-37969463D01*
X23988815Y-38048815D01*
X23909463Y-38145506D01*
X23850498Y-38255820D01*
X23814188Y-38375518D01*
X23801928Y-38500000D01*
X20677951Y-38500000D01*
X20672556Y-33600000D01*
X20701928Y-33600000D01*
X20714188Y-33724482D01*
X20750498Y-33844180D01*
X20809463Y-33954494D01*
X20888815Y-34051185D01*
X20985506Y-34130537D01*
X21095820Y-34189502D01*
X21215518Y-34225812D01*
X21340000Y-34238072D01*
X22054250Y-34235000D01*
X22213000Y-34076250D01*
X22213000Y-32127000D01*
X22467000Y-32127000D01*
X22467000Y-34076250D01*
X22625750Y-34235000D01*
X23340000Y-34238072D01*
X23464482Y-34225812D01*
X23584180Y-34189502D01*
X23694494Y-34130537D01*
X23791185Y-34051185D01*
X23870537Y-33954494D01*
X23929502Y-33844180D01*
X23965812Y-33724482D01*
X23978072Y-33600000D01*
X23975000Y-32285750D01*
X23816250Y-32127000D01*
X22467000Y-32127000D01*
X22213000Y-32127000D01*
X20863750Y-32127000D01*
X20705000Y-32285750D01*
X20701928Y-33600000D01*
X20672556Y-33600000D01*
X20669034Y-30400000D01*
X20701928Y-30400000D01*
X20705000Y-31714250D01*
X20863750Y-31873000D01*
X22213000Y-31873000D01*
X22213000Y-29923750D01*
X22467000Y-29923750D01*
X22467000Y-31873000D01*
X23816250Y-31873000D01*
X23975000Y-31714250D01*
X23978072Y-30400000D01*
X23965812Y-30275518D01*
X23929502Y-30155820D01*
X23870537Y-30045506D01*
X23791185Y-29948815D01*
X23694494Y-29869463D01*
X23584180Y-29810498D01*
X23464482Y-29774188D01*
X23340000Y-29761928D01*
X22625750Y-29765000D01*
X22467000Y-29923750D01*
X22213000Y-29923750D01*
X22054250Y-29765000D01*
X21340000Y-29761928D01*
X21215518Y-29774188D01*
X21095820Y-29810498D01*
X20985506Y-29869463D01*
X20888815Y-29948815D01*
X20809463Y-30045506D01*
X20750498Y-30155820D01*
X20714188Y-30275518D01*
X20701928Y-30400000D01*
X20669034Y-30400000D01*
X20664340Y-26135413D01*
X24484192Y-26135413D01*
X24579956Y-26399814D01*
X24869571Y-26540704D01*
X25181108Y-26622384D01*
X25502595Y-26641718D01*
X25821675Y-26597961D01*
X26126088Y-26492795D01*
X26300044Y-26399814D01*
X26395808Y-26135413D01*
X25440000Y-25179605D01*
X24484192Y-26135413D01*
X20664340Y-26135413D01*
X20663158Y-25062595D01*
X23798282Y-25062595D01*
X23842039Y-25381675D01*
X23947205Y-25686088D01*
X24040186Y-25860044D01*
X24304587Y-25955808D01*
X25260395Y-25000000D01*
X25619605Y-25000000D01*
X26575413Y-25955808D01*
X26839814Y-25860044D01*
X26980704Y-25570429D01*
X27062384Y-25258892D01*
X27081718Y-24937405D01*
X27037961Y-24618325D01*
X26932795Y-24313912D01*
X26839814Y-24139956D01*
X26575413Y-24044192D01*
X25619605Y-25000000D01*
X25260395Y-25000000D01*
X24304587Y-24044192D01*
X24040186Y-24139956D01*
X23899296Y-24429571D01*
X23817616Y-24741108D01*
X23798282Y-25062595D01*
X20663158Y-25062595D01*
X20661839Y-23864587D01*
X24484192Y-23864587D01*
X25440000Y-24820395D01*
X26395808Y-23864587D01*
X26300044Y-23600186D01*
X26010429Y-23459296D01*
X25698892Y-23377616D01*
X25377405Y-23358282D01*
X25058325Y-23402039D01*
X24753912Y-23507205D01*
X24579956Y-23600186D01*
X24484192Y-23864587D01*
X20661839Y-23864587D01*
X20660328Y-22492702D01*
X22186903Y-22492702D01*
X22258486Y-22736671D01*
X22513996Y-22857571D01*
X22788184Y-22926300D01*
X23070512Y-22940217D01*
X23350130Y-22898787D01*
X23616292Y-22803603D01*
X23741514Y-22736671D01*
X23813097Y-22492702D01*
X23000000Y-21679605D01*
X22186903Y-22492702D01*
X20660328Y-22492702D01*
X20660000Y-22195118D01*
X20660000Y-21570512D01*
X21559783Y-21570512D01*
X21601213Y-21850130D01*
X21696397Y-22116292D01*
X21763329Y-22241514D01*
X22007298Y-22313097D01*
X22820395Y-21500000D01*
X23179605Y-21500000D01*
X23992702Y-22313097D01*
X24236671Y-22241514D01*
X24357571Y-21986004D01*
X24426300Y-21711816D01*
X24440217Y-21429488D01*
X24398787Y-21149870D01*
X24303603Y-20883708D01*
X24236671Y-20758486D01*
X23992702Y-20686903D01*
X23179605Y-21500000D01*
X22820395Y-21500000D01*
X22007298Y-20686903D01*
X21763329Y-20758486D01*
X21642429Y-21013996D01*
X21573700Y-21288184D01*
X21559783Y-21570512D01*
X20660000Y-21570512D01*
X20660000Y-20507298D01*
X22186903Y-20507298D01*
X23000000Y-21320395D01*
X23813097Y-20507298D01*
X23741514Y-20263329D01*
X23486004Y-20142429D01*
X23211816Y-20073700D01*
X22929488Y-20059783D01*
X22649870Y-20101213D01*
X22383708Y-20196397D01*
X22258486Y-20263329D01*
X22186903Y-20507298D01*
X20660000Y-20507298D01*
X20660000Y-19660000D01*
X35088917Y-19660000D01*
X35057754Y-19669453D01*
G36*
X153102436Y-19826760D02*
G01*
X152984687Y-46340000D01*
X123284801Y-46340000D01*
X125573592Y-44051210D01*
X125793740Y-44095000D01*
X126086260Y-44095000D01*
X126373158Y-44037932D01*
X126643411Y-43925990D01*
X126886632Y-43763475D01*
X127093475Y-43556632D01*
X127210000Y-43382240D01*
X127326525Y-43556632D01*
X127533368Y-43763475D01*
X127776589Y-43925990D01*
X128046842Y-44037932D01*
X128333740Y-44095000D01*
X128626260Y-44095000D01*
X128913158Y-44037932D01*
X129183411Y-43925990D01*
X129426632Y-43763475D01*
X129633475Y-43556632D01*
X129750000Y-43382240D01*
X129866525Y-43556632D01*
X130073368Y-43763475D01*
X130316589Y-43925990D01*
X130586842Y-44037932D01*
X130873740Y-44095000D01*
X131166260Y-44095000D01*
X131453158Y-44037932D01*
X131723411Y-43925990D01*
X131966632Y-43763475D01*
X132173475Y-43556632D01*
X132290000Y-43382240D01*
X132406525Y-43556632D01*
X132613368Y-43763475D01*
X132856589Y-43925990D01*
X133126842Y-44037932D01*
X133413740Y-44095000D01*
X133706260Y-44095000D01*
X133993158Y-44037932D01*
X134263411Y-43925990D01*
X134506632Y-43763475D01*
X134713475Y-43556632D01*
X134830000Y-43382240D01*
X134946525Y-43556632D01*
X135153368Y-43763475D01*
X135396589Y-43925990D01*
X135666842Y-44037932D01*
X135953740Y-44095000D01*
X136246260Y-44095000D01*
X136533158Y-44037932D01*
X136803411Y-43925990D01*
X137046632Y-43763475D01*
X137253475Y-43556632D01*
X137370000Y-43382240D01*
X137486525Y-43556632D01*
X137693368Y-43763475D01*
X137936589Y-43925990D01*
X138206842Y-44037932D01*
X138493740Y-44095000D01*
X138786260Y-44095000D01*
X139073158Y-44037932D01*
X139343411Y-43925990D01*
X139586632Y-43763475D01*
X139793475Y-43556632D01*
X139910000Y-43382240D01*
X140026525Y-43556632D01*
X140233368Y-43763475D01*
X140476589Y-43925990D01*
X140746842Y-44037932D01*
X141033740Y-44095000D01*
X141326260Y-44095000D01*
X141613158Y-44037932D01*
X141883411Y-43925990D01*
X142126632Y-43763475D01*
X142333475Y-43556632D01*
X142450000Y-43382240D01*
X142566525Y-43556632D01*
X142773368Y-43763475D01*
X143016589Y-43925990D01*
X143286842Y-44037932D01*
X143573740Y-44095000D01*
X143866260Y-44095000D01*
X144153158Y-44037932D01*
X144423411Y-43925990D01*
X144666632Y-43763475D01*
X144873475Y-43556632D01*
X144990000Y-43382240D01*
X145106525Y-43556632D01*
X145313368Y-43763475D01*
X145556589Y-43925990D01*
X145826842Y-44037932D01*
X146113740Y-44095000D01*
X146406260Y-44095000D01*
X146693158Y-44037932D01*
X146963411Y-43925990D01*
X147206632Y-43763475D01*
X147413475Y-43556632D01*
X147535195Y-43374466D01*
X147604822Y-43491355D01*
X147799731Y-43707588D01*
X148033080Y-43881641D01*
X148295901Y-44006825D01*
X148443110Y-44051476D01*
X148673000Y-43930155D01*
X148673000Y-42737000D01*
X148927000Y-42737000D01*
X148927000Y-43930155D01*
X149156890Y-44051476D01*
X149304099Y-44006825D01*
X149566920Y-43881641D01*
X149800269Y-43707588D01*
X149995178Y-43491355D01*
X150070000Y-43365745D01*
X150144822Y-43491355D01*
X150339731Y-43707588D01*
X150573080Y-43881641D01*
X150835901Y-44006825D01*
X150983110Y-44051476D01*
X151213000Y-43930155D01*
X151213000Y-42737000D01*
X151467000Y-42737000D01*
X151467000Y-43930155D01*
X151696890Y-44051476D01*
X151844099Y-44006825D01*
X152106920Y-43881641D01*
X152340269Y-43707588D01*
X152535178Y-43491355D01*
X152684157Y-43241252D01*
X152781481Y-42966891D01*
X152660814Y-42737000D01*
X151467000Y-42737000D01*
X151213000Y-42737000D01*
X148927000Y-42737000D01*
X148673000Y-42737000D01*
X148653000Y-42737000D01*
X148653000Y-42483000D01*
X148673000Y-42483000D01*
X148673000Y-41289845D01*
X148927000Y-41289845D01*
X148927000Y-42483000D01*
X151213000Y-42483000D01*
X151213000Y-41289845D01*
X151467000Y-41289845D01*
X151467000Y-42483000D01*
X152660814Y-42483000D01*
X152781481Y-42253109D01*
X152684157Y-41978748D01*
X152535178Y-41728645D01*
X152340269Y-41512412D01*
X152106920Y-41338359D01*
X151844099Y-41213175D01*
X151696890Y-41168524D01*
X151467000Y-41289845D01*
X151213000Y-41289845D01*
X150983110Y-41168524D01*
X150835901Y-41213175D01*
X150573080Y-41338359D01*
X150339731Y-41512412D01*
X150144822Y-41728645D01*
X150070000Y-41854255D01*
X149995178Y-41728645D01*
X149800269Y-41512412D01*
X149566920Y-41338359D01*
X149304099Y-41213175D01*
X149156890Y-41168524D01*
X148927000Y-41289845D01*
X148673000Y-41289845D01*
X148443110Y-41168524D01*
X148295901Y-41213175D01*
X148033080Y-41338359D01*
X147799731Y-41512412D01*
X147604822Y-41728645D01*
X147535195Y-41845534D01*
X147413475Y-41663368D01*
X147206632Y-41456525D01*
X146963411Y-41294010D01*
X146693158Y-41182068D01*
X146406260Y-41125000D01*
X146113740Y-41125000D01*
X145826842Y-41182068D01*
X145556589Y-41294010D01*
X145313368Y-41456525D01*
X145106525Y-41663368D01*
X144990000Y-41837760D01*
X144873475Y-41663368D01*
X144666632Y-41456525D01*
X144423411Y-41294010D01*
X144153158Y-41182068D01*
X143866260Y-41125000D01*
X143573740Y-41125000D01*
X143286842Y-41182068D01*
X143016589Y-41294010D01*
X142773368Y-41456525D01*
X142566525Y-41663368D01*
X142450000Y-41837760D01*
X142333475Y-41663368D01*
X142126632Y-41456525D01*
X141883411Y-41294010D01*
X141613158Y-41182068D01*
X141326260Y-41125000D01*
X141033740Y-41125000D01*
X140746842Y-41182068D01*
X140476589Y-41294010D01*
X140233368Y-41456525D01*
X140026525Y-41663368D01*
X139910000Y-41837760D01*
X139793475Y-41663368D01*
X139586632Y-41456525D01*
X139343411Y-41294010D01*
X139073158Y-41182068D01*
X138786260Y-41125000D01*
X138493740Y-41125000D01*
X138206842Y-41182068D01*
X137936589Y-41294010D01*
X137693368Y-41456525D01*
X137486525Y-41663368D01*
X137370000Y-41837760D01*
X137253475Y-41663368D01*
X137046632Y-41456525D01*
X136803411Y-41294010D01*
X136533158Y-41182068D01*
X136246260Y-41125000D01*
X135953740Y-41125000D01*
X135666842Y-41182068D01*
X135396589Y-41294010D01*
X135153368Y-41456525D01*
X134946525Y-41663368D01*
X134830000Y-41837760D01*
X134713475Y-41663368D01*
X134506632Y-41456525D01*
X134263411Y-41294010D01*
X133993158Y-41182068D01*
X133706260Y-41125000D01*
X133413740Y-41125000D01*
X133126842Y-41182068D01*
X132856589Y-41294010D01*
X132613368Y-41456525D01*
X132406525Y-41663368D01*
X132290000Y-41837760D01*
X132173475Y-41663368D01*
X131966632Y-41456525D01*
X131723411Y-41294010D01*
X131453158Y-41182068D01*
X131166260Y-41125000D01*
X130873740Y-41125000D01*
X130586842Y-41182068D01*
X130316589Y-41294010D01*
X130073368Y-41456525D01*
X129866525Y-41663368D01*
X129750000Y-41837760D01*
X129633475Y-41663368D01*
X129426632Y-41456525D01*
X129183411Y-41294010D01*
X128913158Y-41182068D01*
X128626260Y-41125000D01*
X128333740Y-41125000D01*
X128046842Y-41182068D01*
X127776589Y-41294010D01*
X127533368Y-41456525D01*
X127326525Y-41663368D01*
X127210000Y-41837760D01*
X127093475Y-41663368D01*
X126886632Y-41456525D01*
X126643411Y-41294010D01*
X126373158Y-41182068D01*
X126086260Y-41125000D01*
X125793740Y-41125000D01*
X125506842Y-41182068D01*
X125236589Y-41294010D01*
X124993368Y-41456525D01*
X124786525Y-41663368D01*
X124670000Y-41837760D01*
X124553475Y-41663368D01*
X124346632Y-41456525D01*
X124103411Y-41294010D01*
X123833158Y-41182068D01*
X123546260Y-41125000D01*
X123253740Y-41125000D01*
X122966842Y-41182068D01*
X122696589Y-41294010D01*
X122453368Y-41456525D01*
X122246525Y-41663368D01*
X122130000Y-41837760D01*
X122013475Y-41663368D01*
X121806632Y-41456525D01*
X121563411Y-41294010D01*
X121293158Y-41182068D01*
X121006260Y-41125000D01*
X120713740Y-41125000D01*
X120426842Y-41182068D01*
X120156589Y-41294010D01*
X119913368Y-41456525D01*
X119706525Y-41663368D01*
X119590000Y-41837760D01*
X119473475Y-41663368D01*
X119266632Y-41456525D01*
X119023411Y-41294010D01*
X118753158Y-41182068D01*
X118466260Y-41125000D01*
X118173740Y-41125000D01*
X117886842Y-41182068D01*
X117616589Y-41294010D01*
X117373368Y-41456525D01*
X117166525Y-41663368D01*
X117050000Y-41837760D01*
X116933475Y-41663368D01*
X116726632Y-41456525D01*
X116483411Y-41294010D01*
X116213158Y-41182068D01*
X115926260Y-41125000D01*
X115633740Y-41125000D01*
X115346842Y-41182068D01*
X115076589Y-41294010D01*
X114833368Y-41456525D01*
X114626525Y-41663368D01*
X114510000Y-41837760D01*
X114393475Y-41663368D01*
X114186632Y-41456525D01*
X113943411Y-41294010D01*
X113673158Y-41182068D01*
X113386260Y-41125000D01*
X113093740Y-41125000D01*
X112806842Y-41182068D01*
X112536589Y-41294010D01*
X112293368Y-41456525D01*
X112086525Y-41663368D01*
X111970000Y-41837760D01*
X111853475Y-41663368D01*
X111646632Y-41456525D01*
X111403411Y-41294010D01*
X111133158Y-41182068D01*
X110846260Y-41125000D01*
X110553740Y-41125000D01*
X110266842Y-41182068D01*
X109996589Y-41294010D01*
X109753368Y-41456525D01*
X109546525Y-41663368D01*
X109430000Y-41837760D01*
X109313475Y-41663368D01*
X109106632Y-41456525D01*
X108863411Y-41294010D01*
X108593158Y-41182068D01*
X108306260Y-41125000D01*
X108013740Y-41125000D01*
X107793592Y-41168790D01*
X104113804Y-37489003D01*
X104090001Y-37459999D01*
X103974276Y-37365026D01*
X103842247Y-37294454D01*
X103698986Y-37250997D01*
X103587333Y-37240000D01*
X103587322Y-37240000D01*
X103550000Y-37236324D01*
X103512678Y-37240000D01*
X93703711Y-37240000D01*
X93659774Y-37196063D01*
X93490256Y-37082795D01*
X93301898Y-37004774D01*
X93101939Y-36965000D01*
X92898061Y-36965000D01*
X92698102Y-37004774D01*
X92509744Y-37082795D01*
X92340226Y-37196063D01*
X92196063Y-37340226D01*
X92082795Y-37509744D01*
X92004774Y-37698102D01*
X91965000Y-37898061D01*
X91965000Y-38101939D01*
X92004774Y-38301898D01*
X92082795Y-38490256D01*
X92196063Y-38659774D01*
X92340226Y-38803937D01*
X92509744Y-38917205D01*
X92698102Y-38995226D01*
X92898061Y-39035000D01*
X93101939Y-39035000D01*
X93301898Y-38995226D01*
X93490256Y-38917205D01*
X93659774Y-38803937D01*
X93703711Y-38760000D01*
X103235199Y-38760000D01*
X105600198Y-41125000D01*
X105473740Y-41125000D01*
X105186842Y-41182068D01*
X104916589Y-41294010D01*
X104673368Y-41456525D01*
X104541513Y-41588380D01*
X104519502Y-41515820D01*
X104460537Y-41405506D01*
X104381185Y-41308815D01*
X104284494Y-41229463D01*
X104174180Y-41170498D01*
X104054482Y-41134188D01*
X103930000Y-41121928D01*
X102230000Y-41121928D01*
X102105518Y-41134188D01*
X101985820Y-41170498D01*
X101875506Y-41229463D01*
X101778815Y-41308815D01*
X101699463Y-41405506D01*
X101640498Y-41515820D01*
X101604188Y-41635518D01*
X101591928Y-41760000D01*
X101591928Y-43460000D01*
X101604188Y-43584482D01*
X101640498Y-43704180D01*
X101659644Y-43740000D01*
X90214802Y-43740000D01*
X89787345Y-43312543D01*
X89801185Y-43301185D01*
X89880537Y-43204494D01*
X89939502Y-43094180D01*
X89975812Y-42974482D01*
X89988072Y-42850000D01*
X89988072Y-41150000D01*
X89975812Y-41025518D01*
X89939502Y-40905820D01*
X89880537Y-40795506D01*
X89801185Y-40698815D01*
X89704494Y-40619463D01*
X89594180Y-40560498D01*
X89474482Y-40524188D01*
X89350000Y-40511928D01*
X87650000Y-40511928D01*
X87525518Y-40524188D01*
X87405820Y-40560498D01*
X87295506Y-40619463D01*
X87198815Y-40698815D01*
X87119463Y-40795506D01*
X87060498Y-40905820D01*
X87038487Y-40978380D01*
X86906632Y-40846525D01*
X86663411Y-40684010D01*
X86393158Y-40572068D01*
X86106260Y-40515000D01*
X85813740Y-40515000D01*
X85526842Y-40572068D01*
X85256589Y-40684010D01*
X85013368Y-40846525D01*
X84806525Y-41053368D01*
X84690000Y-41227760D01*
X84573475Y-41053368D01*
X84366632Y-40846525D01*
X84123411Y-40684010D01*
X83853158Y-40572068D01*
X83566260Y-40515000D01*
X83273740Y-40515000D01*
X82986842Y-40572068D01*
X82716589Y-40684010D01*
X82473368Y-40846525D01*
X82266525Y-41053368D01*
X82150000Y-41227760D01*
X82033475Y-41053368D01*
X81826632Y-40846525D01*
X81583411Y-40684010D01*
X81313158Y-40572068D01*
X81026260Y-40515000D01*
X80899801Y-40515000D01*
X86154802Y-35260000D01*
X142762678Y-35260000D01*
X142800000Y-35263676D01*
X142837322Y-35260000D01*
X142837333Y-35260000D01*
X142948986Y-35249003D01*
X143092247Y-35205546D01*
X143224276Y-35134974D01*
X143340001Y-35040001D01*
X143363804Y-35010997D01*
X151811004Y-26563798D01*
X151840001Y-26540001D01*
X151934974Y-26424276D01*
X151954326Y-26388072D01*
X152150000Y-26388072D01*
X152274482Y-26375812D01*
X152394180Y-26339502D01*
X152504494Y-26280537D01*
X152601185Y-26201185D01*
X152680537Y-26104494D01*
X152739502Y-25994180D01*
X152775812Y-25874482D01*
X152788072Y-25750000D01*
X152788072Y-24050000D01*
X152775812Y-23925518D01*
X152739502Y-23805820D01*
X152680537Y-23695506D01*
X152601185Y-23598815D01*
X152504494Y-23519463D01*
X152394180Y-23460498D01*
X152274482Y-23424188D01*
X152150000Y-23411928D01*
X150450000Y-23411928D01*
X150325518Y-23424188D01*
X150205820Y-23460498D01*
X150095506Y-23519463D01*
X149998815Y-23598815D01*
X149919463Y-23695506D01*
X149860498Y-23805820D01*
X149838487Y-23878380D01*
X149706632Y-23746525D01*
X149463411Y-23584010D01*
X149193158Y-23472068D01*
X148906260Y-23415000D01*
X148613740Y-23415000D01*
X148326842Y-23472068D01*
X148056589Y-23584010D01*
X147813368Y-23746525D01*
X147606525Y-23953368D01*
X147490000Y-24127760D01*
X147373475Y-23953368D01*
X147166632Y-23746525D01*
X146923411Y-23584010D01*
X146653158Y-23472068D01*
X146366260Y-23415000D01*
X146073740Y-23415000D01*
X145786842Y-23472068D01*
X145516589Y-23584010D01*
X145273368Y-23746525D01*
X145066525Y-23953368D01*
X144950000Y-24127760D01*
X144833475Y-23953368D01*
X144626632Y-23746525D01*
X144383411Y-23584010D01*
X144113158Y-23472068D01*
X143826260Y-23415000D01*
X143533740Y-23415000D01*
X143246842Y-23472068D01*
X142976589Y-23584010D01*
X142733368Y-23746525D01*
X142526525Y-23953368D01*
X142410000Y-24127760D01*
X142293475Y-23953368D01*
X142086632Y-23746525D01*
X141843411Y-23584010D01*
X141573158Y-23472068D01*
X141286260Y-23415000D01*
X140993740Y-23415000D01*
X140706842Y-23472068D01*
X140436589Y-23584010D01*
X140193368Y-23746525D01*
X139986525Y-23953368D01*
X139870000Y-24127760D01*
X139753475Y-23953368D01*
X139546632Y-23746525D01*
X139303411Y-23584010D01*
X139033158Y-23472068D01*
X138746260Y-23415000D01*
X138453740Y-23415000D01*
X138166842Y-23472068D01*
X137896589Y-23584010D01*
X137653368Y-23746525D01*
X137446525Y-23953368D01*
X137330000Y-24127760D01*
X137213475Y-23953368D01*
X137006632Y-23746525D01*
X136763411Y-23584010D01*
X136493158Y-23472068D01*
X136206260Y-23415000D01*
X135913740Y-23415000D01*
X135626842Y-23472068D01*
X135356589Y-23584010D01*
X135113368Y-23746525D01*
X134906525Y-23953368D01*
X134790000Y-24127760D01*
X134673475Y-23953368D01*
X134466632Y-23746525D01*
X134223411Y-23584010D01*
X133953158Y-23472068D01*
X133666260Y-23415000D01*
X133373740Y-23415000D01*
X133086842Y-23472068D01*
X132816589Y-23584010D01*
X132573368Y-23746525D01*
X132366525Y-23953368D01*
X132250000Y-24127760D01*
X132133475Y-23953368D01*
X131926632Y-23746525D01*
X131683411Y-23584010D01*
X131413158Y-23472068D01*
X131126260Y-23415000D01*
X130833740Y-23415000D01*
X130546842Y-23472068D01*
X130276589Y-23584010D01*
X130033368Y-23746525D01*
X129826525Y-23953368D01*
X129710000Y-24127760D01*
X129593475Y-23953368D01*
X129386632Y-23746525D01*
X129143411Y-23584010D01*
X128873158Y-23472068D01*
X128586260Y-23415000D01*
X128293740Y-23415000D01*
X128006842Y-23472068D01*
X127736589Y-23584010D01*
X127493368Y-23746525D01*
X127286525Y-23953368D01*
X127170000Y-24127760D01*
X127053475Y-23953368D01*
X126846632Y-23746525D01*
X126603411Y-23584010D01*
X126333158Y-23472068D01*
X126046260Y-23415000D01*
X125753740Y-23415000D01*
X125466842Y-23472068D01*
X125196589Y-23584010D01*
X124953368Y-23746525D01*
X124746525Y-23953368D01*
X124630000Y-24127760D01*
X124513475Y-23953368D01*
X124306632Y-23746525D01*
X124063411Y-23584010D01*
X123793158Y-23472068D01*
X123506260Y-23415000D01*
X123213740Y-23415000D01*
X122926842Y-23472068D01*
X122656589Y-23584010D01*
X122413368Y-23746525D01*
X122206525Y-23953368D01*
X122090000Y-24127760D01*
X121973475Y-23953368D01*
X121766632Y-23746525D01*
X121523411Y-23584010D01*
X121253158Y-23472068D01*
X120966260Y-23415000D01*
X120673740Y-23415000D01*
X120386842Y-23472068D01*
X120116589Y-23584010D01*
X119873368Y-23746525D01*
X119666525Y-23953368D01*
X119550000Y-24127760D01*
X119433475Y-23953368D01*
X119226632Y-23746525D01*
X118983411Y-23584010D01*
X118713158Y-23472068D01*
X118426260Y-23415000D01*
X118133740Y-23415000D01*
X117913592Y-23458790D01*
X116063804Y-21609003D01*
X116040001Y-21579999D01*
X115924276Y-21485026D01*
X115792247Y-21414454D01*
X115648986Y-21370997D01*
X115537333Y-21360000D01*
X115537322Y-21360000D01*
X115500000Y-21356324D01*
X115462678Y-21360000D01*
X62387322Y-21360000D01*
X62349999Y-21356324D01*
X62312676Y-21360000D01*
X62312667Y-21360000D01*
X62201014Y-21370997D01*
X62057753Y-21414454D01*
X61925724Y-21485026D01*
X61925722Y-21485027D01*
X61925723Y-21485027D01*
X61838996Y-21556201D01*
X61838992Y-21556205D01*
X61809999Y-21579999D01*
X61786205Y-21608992D01*
X56789003Y-26606196D01*
X56759999Y-26629999D01*
X56704871Y-26697174D01*
X56665026Y-26745724D01*
X56645674Y-26781928D01*
X56450000Y-26781928D01*
X56325518Y-26794188D01*
X56205820Y-26830498D01*
X56095506Y-26889463D01*
X55998815Y-26968815D01*
X55919463Y-27065506D01*
X55860498Y-27175820D01*
X55824188Y-27295518D01*
X55811928Y-27420000D01*
X55811928Y-29120000D01*
X55824188Y-29244482D01*
X55860498Y-29364180D01*
X55919463Y-29474494D01*
X55998815Y-29571185D01*
X56095506Y-29650537D01*
X56205820Y-29709502D01*
X56278380Y-29731513D01*
X56146525Y-29863368D01*
X55984010Y-30106589D01*
X55872068Y-30376842D01*
X55815000Y-30663740D01*
X55815000Y-30790198D01*
X51460000Y-26435199D01*
X51460000Y-23321339D01*
X51568386Y-23263405D01*
X51702962Y-23152962D01*
X51813405Y-23018386D01*
X51895472Y-22864850D01*
X51946008Y-22698254D01*
X51963072Y-22525000D01*
X51963072Y-21275000D01*
X51946008Y-21101746D01*
X51895472Y-20935150D01*
X51813405Y-20781614D01*
X51702962Y-20647038D01*
X51568386Y-20536595D01*
X51414850Y-20454528D01*
X51248254Y-20403992D01*
X51143474Y-20393672D01*
X50613802Y-19864001D01*
X50590000Y-19834998D01*
X50474275Y-19740025D01*
X50342246Y-19669453D01*
X50311083Y-19660000D01*
X64566290Y-19660000D01*
X153102436Y-19826760D01*
G37*
X153102436Y-19826760D02*
X152984687Y-46340000D01*
X123284801Y-46340000D01*
X125573592Y-44051210D01*
X125793740Y-44095000D01*
X126086260Y-44095000D01*
X126373158Y-44037932D01*
X126643411Y-43925990D01*
X126886632Y-43763475D01*
X127093475Y-43556632D01*
X127210000Y-43382240D01*
X127326525Y-43556632D01*
X127533368Y-43763475D01*
X127776589Y-43925990D01*
X128046842Y-44037932D01*
X128333740Y-44095000D01*
X128626260Y-44095000D01*
X128913158Y-44037932D01*
X129183411Y-43925990D01*
X129426632Y-43763475D01*
X129633475Y-43556632D01*
X129750000Y-43382240D01*
X129866525Y-43556632D01*
X130073368Y-43763475D01*
X130316589Y-43925990D01*
X130586842Y-44037932D01*
X130873740Y-44095000D01*
X131166260Y-44095000D01*
X131453158Y-44037932D01*
X131723411Y-43925990D01*
X131966632Y-43763475D01*
X132173475Y-43556632D01*
X132290000Y-43382240D01*
X132406525Y-43556632D01*
X132613368Y-43763475D01*
X132856589Y-43925990D01*
X133126842Y-44037932D01*
X133413740Y-44095000D01*
X133706260Y-44095000D01*
X133993158Y-44037932D01*
X134263411Y-43925990D01*
X134506632Y-43763475D01*
X134713475Y-43556632D01*
X134830000Y-43382240D01*
X134946525Y-43556632D01*
X135153368Y-43763475D01*
X135396589Y-43925990D01*
X135666842Y-44037932D01*
X135953740Y-44095000D01*
X136246260Y-44095000D01*
X136533158Y-44037932D01*
X136803411Y-43925990D01*
X137046632Y-43763475D01*
X137253475Y-43556632D01*
X137370000Y-43382240D01*
X137486525Y-43556632D01*
X137693368Y-43763475D01*
X137936589Y-43925990D01*
X138206842Y-44037932D01*
X138493740Y-44095000D01*
X138786260Y-44095000D01*
X139073158Y-44037932D01*
X139343411Y-43925990D01*
X139586632Y-43763475D01*
X139793475Y-43556632D01*
X139910000Y-43382240D01*
X140026525Y-43556632D01*
X140233368Y-43763475D01*
X140476589Y-43925990D01*
X140746842Y-44037932D01*
X141033740Y-44095000D01*
X141326260Y-44095000D01*
X141613158Y-44037932D01*
X141883411Y-43925990D01*
X142126632Y-43763475D01*
X142333475Y-43556632D01*
X142450000Y-43382240D01*
X142566525Y-43556632D01*
X142773368Y-43763475D01*
X143016589Y-43925990D01*
X143286842Y-44037932D01*
X143573740Y-44095000D01*
X143866260Y-44095000D01*
X144153158Y-44037932D01*
X144423411Y-43925990D01*
X144666632Y-43763475D01*
X144873475Y-43556632D01*
X144990000Y-43382240D01*
X145106525Y-43556632D01*
X145313368Y-43763475D01*
X145556589Y-43925990D01*
X145826842Y-44037932D01*
X146113740Y-44095000D01*
X146406260Y-44095000D01*
X146693158Y-44037932D01*
X146963411Y-43925990D01*
X147206632Y-43763475D01*
X147413475Y-43556632D01*
X147535195Y-43374466D01*
X147604822Y-43491355D01*
X147799731Y-43707588D01*
X148033080Y-43881641D01*
X148295901Y-44006825D01*
X148443110Y-44051476D01*
X148673000Y-43930155D01*
X148673000Y-42737000D01*
X148927000Y-42737000D01*
X148927000Y-43930155D01*
X149156890Y-44051476D01*
X149304099Y-44006825D01*
X149566920Y-43881641D01*
X149800269Y-43707588D01*
X149995178Y-43491355D01*
X150070000Y-43365745D01*
X150144822Y-43491355D01*
X150339731Y-43707588D01*
X150573080Y-43881641D01*
X150835901Y-44006825D01*
X150983110Y-44051476D01*
X151213000Y-43930155D01*
X151213000Y-42737000D01*
X151467000Y-42737000D01*
X151467000Y-43930155D01*
X151696890Y-44051476D01*
X151844099Y-44006825D01*
X152106920Y-43881641D01*
X152340269Y-43707588D01*
X152535178Y-43491355D01*
X152684157Y-43241252D01*
X152781481Y-42966891D01*
X152660814Y-42737000D01*
X151467000Y-42737000D01*
X151213000Y-42737000D01*
X148927000Y-42737000D01*
X148673000Y-42737000D01*
X148653000Y-42737000D01*
X148653000Y-42483000D01*
X148673000Y-42483000D01*
X148673000Y-41289845D01*
X148927000Y-41289845D01*
X148927000Y-42483000D01*
X151213000Y-42483000D01*
X151213000Y-41289845D01*
X151467000Y-41289845D01*
X151467000Y-42483000D01*
X152660814Y-42483000D01*
X152781481Y-42253109D01*
X152684157Y-41978748D01*
X152535178Y-41728645D01*
X152340269Y-41512412D01*
X152106920Y-41338359D01*
X151844099Y-41213175D01*
X151696890Y-41168524D01*
X151467000Y-41289845D01*
X151213000Y-41289845D01*
X150983110Y-41168524D01*
X150835901Y-41213175D01*
X150573080Y-41338359D01*
X150339731Y-41512412D01*
X150144822Y-41728645D01*
X150070000Y-41854255D01*
X149995178Y-41728645D01*
X149800269Y-41512412D01*
X149566920Y-41338359D01*
X149304099Y-41213175D01*
X149156890Y-41168524D01*
X148927000Y-41289845D01*
X148673000Y-41289845D01*
X148443110Y-41168524D01*
X148295901Y-41213175D01*
X148033080Y-41338359D01*
X147799731Y-41512412D01*
X147604822Y-41728645D01*
X147535195Y-41845534D01*
X147413475Y-41663368D01*
X147206632Y-41456525D01*
X146963411Y-41294010D01*
X146693158Y-41182068D01*
X146406260Y-41125000D01*
X146113740Y-41125000D01*
X145826842Y-41182068D01*
X145556589Y-41294010D01*
X145313368Y-41456525D01*
X145106525Y-41663368D01*
X144990000Y-41837760D01*
X144873475Y-41663368D01*
X144666632Y-41456525D01*
X144423411Y-41294010D01*
X144153158Y-41182068D01*
X143866260Y-41125000D01*
X143573740Y-41125000D01*
X143286842Y-41182068D01*
X143016589Y-41294010D01*
X142773368Y-41456525D01*
X142566525Y-41663368D01*
X142450000Y-41837760D01*
X142333475Y-41663368D01*
X142126632Y-41456525D01*
X141883411Y-41294010D01*
X141613158Y-41182068D01*
X141326260Y-41125000D01*
X141033740Y-41125000D01*
X140746842Y-41182068D01*
X140476589Y-41294010D01*
X140233368Y-41456525D01*
X140026525Y-41663368D01*
X139910000Y-41837760D01*
X139793475Y-41663368D01*
X139586632Y-41456525D01*
X139343411Y-41294010D01*
X139073158Y-41182068D01*
X138786260Y-41125000D01*
X138493740Y-41125000D01*
X138206842Y-41182068D01*
X137936589Y-41294010D01*
X137693368Y-41456525D01*
X137486525Y-41663368D01*
X137370000Y-41837760D01*
X137253475Y-41663368D01*
X137046632Y-41456525D01*
X136803411Y-41294010D01*
X136533158Y-41182068D01*
X136246260Y-41125000D01*
X135953740Y-41125000D01*
X135666842Y-41182068D01*
X135396589Y-41294010D01*
X135153368Y-41456525D01*
X134946525Y-41663368D01*
X134830000Y-41837760D01*
X134713475Y-41663368D01*
X134506632Y-41456525D01*
X134263411Y-41294010D01*
X133993158Y-41182068D01*
X133706260Y-41125000D01*
X133413740Y-41125000D01*
X133126842Y-41182068D01*
X132856589Y-41294010D01*
X132613368Y-41456525D01*
X132406525Y-41663368D01*
X132290000Y-41837760D01*
X132173475Y-41663368D01*
X131966632Y-41456525D01*
X131723411Y-41294010D01*
X131453158Y-41182068D01*
X131166260Y-41125000D01*
X130873740Y-41125000D01*
X130586842Y-41182068D01*
X130316589Y-41294010D01*
X130073368Y-41456525D01*
X129866525Y-41663368D01*
X129750000Y-41837760D01*
X129633475Y-41663368D01*
X129426632Y-41456525D01*
X129183411Y-41294010D01*
X128913158Y-41182068D01*
X128626260Y-41125000D01*
X128333740Y-41125000D01*
X128046842Y-41182068D01*
X127776589Y-41294010D01*
X127533368Y-41456525D01*
X127326525Y-41663368D01*
X127210000Y-41837760D01*
X127093475Y-41663368D01*
X126886632Y-41456525D01*
X126643411Y-41294010D01*
X126373158Y-41182068D01*
X126086260Y-41125000D01*
X125793740Y-41125000D01*
X125506842Y-41182068D01*
X125236589Y-41294010D01*
X124993368Y-41456525D01*
X124786525Y-41663368D01*
X124670000Y-41837760D01*
X124553475Y-41663368D01*
X124346632Y-41456525D01*
X124103411Y-41294010D01*
X123833158Y-41182068D01*
X123546260Y-41125000D01*
X123253740Y-41125000D01*
X122966842Y-41182068D01*
X122696589Y-41294010D01*
X122453368Y-41456525D01*
X122246525Y-41663368D01*
X122130000Y-41837760D01*
X122013475Y-41663368D01*
X121806632Y-41456525D01*
X121563411Y-41294010D01*
X121293158Y-41182068D01*
X121006260Y-41125000D01*
X120713740Y-41125000D01*
X120426842Y-41182068D01*
X120156589Y-41294010D01*
X119913368Y-41456525D01*
X119706525Y-41663368D01*
X119590000Y-41837760D01*
X119473475Y-41663368D01*
X119266632Y-41456525D01*
X119023411Y-41294010D01*
X118753158Y-41182068D01*
X118466260Y-41125000D01*
X118173740Y-41125000D01*
X117886842Y-41182068D01*
X117616589Y-41294010D01*
X117373368Y-41456525D01*
X117166525Y-41663368D01*
X117050000Y-41837760D01*
X116933475Y-41663368D01*
X116726632Y-41456525D01*
X116483411Y-41294010D01*
X116213158Y-41182068D01*
X115926260Y-41125000D01*
X115633740Y-41125000D01*
X115346842Y-41182068D01*
X115076589Y-41294010D01*
X114833368Y-41456525D01*
X114626525Y-41663368D01*
X114510000Y-41837760D01*
X114393475Y-41663368D01*
X114186632Y-41456525D01*
X113943411Y-41294010D01*
X113673158Y-41182068D01*
X113386260Y-41125000D01*
X113093740Y-41125000D01*
X112806842Y-41182068D01*
X112536589Y-41294010D01*
X112293368Y-41456525D01*
X112086525Y-41663368D01*
X111970000Y-41837760D01*
X111853475Y-41663368D01*
X111646632Y-41456525D01*
X111403411Y-41294010D01*
X111133158Y-41182068D01*
X110846260Y-41125000D01*
X110553740Y-41125000D01*
X110266842Y-41182068D01*
X109996589Y-41294010D01*
X109753368Y-41456525D01*
X109546525Y-41663368D01*
X109430000Y-41837760D01*
X109313475Y-41663368D01*
X109106632Y-41456525D01*
X108863411Y-41294010D01*
X108593158Y-41182068D01*
X108306260Y-41125000D01*
X108013740Y-41125000D01*
X107793592Y-41168790D01*
X104113804Y-37489003D01*
X104090001Y-37459999D01*
X103974276Y-37365026D01*
X103842247Y-37294454D01*
X103698986Y-37250997D01*
X103587333Y-37240000D01*
X103587322Y-37240000D01*
X103550000Y-37236324D01*
X103512678Y-37240000D01*
X93703711Y-37240000D01*
X93659774Y-37196063D01*
X93490256Y-37082795D01*
X93301898Y-37004774D01*
X93101939Y-36965000D01*
X92898061Y-36965000D01*
X92698102Y-37004774D01*
X92509744Y-37082795D01*
X92340226Y-37196063D01*
X92196063Y-37340226D01*
X92082795Y-37509744D01*
X92004774Y-37698102D01*
X91965000Y-37898061D01*
X91965000Y-38101939D01*
X92004774Y-38301898D01*
X92082795Y-38490256D01*
X92196063Y-38659774D01*
X92340226Y-38803937D01*
X92509744Y-38917205D01*
X92698102Y-38995226D01*
X92898061Y-39035000D01*
X93101939Y-39035000D01*
X93301898Y-38995226D01*
X93490256Y-38917205D01*
X93659774Y-38803937D01*
X93703711Y-38760000D01*
X103235199Y-38760000D01*
X105600198Y-41125000D01*
X105473740Y-41125000D01*
X105186842Y-41182068D01*
X104916589Y-41294010D01*
X104673368Y-41456525D01*
X104541513Y-41588380D01*
X104519502Y-41515820D01*
X104460537Y-41405506D01*
X104381185Y-41308815D01*
X104284494Y-41229463D01*
X104174180Y-41170498D01*
X104054482Y-41134188D01*
X103930000Y-41121928D01*
X102230000Y-41121928D01*
X102105518Y-41134188D01*
X101985820Y-41170498D01*
X101875506Y-41229463D01*
X101778815Y-41308815D01*
X101699463Y-41405506D01*
X101640498Y-41515820D01*
X101604188Y-41635518D01*
X101591928Y-41760000D01*
X101591928Y-43460000D01*
X101604188Y-43584482D01*
X101640498Y-43704180D01*
X101659644Y-43740000D01*
X90214802Y-43740000D01*
X89787345Y-43312543D01*
X89801185Y-43301185D01*
X89880537Y-43204494D01*
X89939502Y-43094180D01*
X89975812Y-42974482D01*
X89988072Y-42850000D01*
X89988072Y-41150000D01*
X89975812Y-41025518D01*
X89939502Y-40905820D01*
X89880537Y-40795506D01*
X89801185Y-40698815D01*
X89704494Y-40619463D01*
X89594180Y-40560498D01*
X89474482Y-40524188D01*
X89350000Y-40511928D01*
X87650000Y-40511928D01*
X87525518Y-40524188D01*
X87405820Y-40560498D01*
X87295506Y-40619463D01*
X87198815Y-40698815D01*
X87119463Y-40795506D01*
X87060498Y-40905820D01*
X87038487Y-40978380D01*
X86906632Y-40846525D01*
X86663411Y-40684010D01*
X86393158Y-40572068D01*
X86106260Y-40515000D01*
X85813740Y-40515000D01*
X85526842Y-40572068D01*
X85256589Y-40684010D01*
X85013368Y-40846525D01*
X84806525Y-41053368D01*
X84690000Y-41227760D01*
X84573475Y-41053368D01*
X84366632Y-40846525D01*
X84123411Y-40684010D01*
X83853158Y-40572068D01*
X83566260Y-40515000D01*
X83273740Y-40515000D01*
X82986842Y-40572068D01*
X82716589Y-40684010D01*
X82473368Y-40846525D01*
X82266525Y-41053368D01*
X82150000Y-41227760D01*
X82033475Y-41053368D01*
X81826632Y-40846525D01*
X81583411Y-40684010D01*
X81313158Y-40572068D01*
X81026260Y-40515000D01*
X80899801Y-40515000D01*
X86154802Y-35260000D01*
X142762678Y-35260000D01*
X142800000Y-35263676D01*
X142837322Y-35260000D01*
X142837333Y-35260000D01*
X142948986Y-35249003D01*
X143092247Y-35205546D01*
X143224276Y-35134974D01*
X143340001Y-35040001D01*
X143363804Y-35010997D01*
X151811004Y-26563798D01*
X151840001Y-26540001D01*
X151934974Y-26424276D01*
X151954326Y-26388072D01*
X152150000Y-26388072D01*
X152274482Y-26375812D01*
X152394180Y-26339502D01*
X152504494Y-26280537D01*
X152601185Y-26201185D01*
X152680537Y-26104494D01*
X152739502Y-25994180D01*
X152775812Y-25874482D01*
X152788072Y-25750000D01*
X152788072Y-24050000D01*
X152775812Y-23925518D01*
X152739502Y-23805820D01*
X152680537Y-23695506D01*
X152601185Y-23598815D01*
X152504494Y-23519463D01*
X152394180Y-23460498D01*
X152274482Y-23424188D01*
X152150000Y-23411928D01*
X150450000Y-23411928D01*
X150325518Y-23424188D01*
X150205820Y-23460498D01*
X150095506Y-23519463D01*
X149998815Y-23598815D01*
X149919463Y-23695506D01*
X149860498Y-23805820D01*
X149838487Y-23878380D01*
X149706632Y-23746525D01*
X149463411Y-23584010D01*
X149193158Y-23472068D01*
X148906260Y-23415000D01*
X148613740Y-23415000D01*
X148326842Y-23472068D01*
X148056589Y-23584010D01*
X147813368Y-23746525D01*
X147606525Y-23953368D01*
X147490000Y-24127760D01*
X147373475Y-23953368D01*
X147166632Y-23746525D01*
X146923411Y-23584010D01*
X146653158Y-23472068D01*
X146366260Y-23415000D01*
X146073740Y-23415000D01*
X145786842Y-23472068D01*
X145516589Y-23584010D01*
X145273368Y-23746525D01*
X145066525Y-23953368D01*
X144950000Y-24127760D01*
X144833475Y-23953368D01*
X144626632Y-23746525D01*
X144383411Y-23584010D01*
X144113158Y-23472068D01*
X143826260Y-23415000D01*
X143533740Y-23415000D01*
X143246842Y-23472068D01*
X142976589Y-23584010D01*
X142733368Y-23746525D01*
X142526525Y-23953368D01*
X142410000Y-24127760D01*
X142293475Y-23953368D01*
X142086632Y-23746525D01*
X141843411Y-23584010D01*
X141573158Y-23472068D01*
X141286260Y-23415000D01*
X140993740Y-23415000D01*
X140706842Y-23472068D01*
X140436589Y-23584010D01*
X140193368Y-23746525D01*
X139986525Y-23953368D01*
X139870000Y-24127760D01*
X139753475Y-23953368D01*
X139546632Y-23746525D01*
X139303411Y-23584010D01*
X139033158Y-23472068D01*
X138746260Y-23415000D01*
X138453740Y-23415000D01*
X138166842Y-23472068D01*
X137896589Y-23584010D01*
X137653368Y-23746525D01*
X137446525Y-23953368D01*
X137330000Y-24127760D01*
X137213475Y-23953368D01*
X137006632Y-23746525D01*
X136763411Y-23584010D01*
X136493158Y-23472068D01*
X136206260Y-23415000D01*
X135913740Y-23415000D01*
X135626842Y-23472068D01*
X135356589Y-23584010D01*
X135113368Y-23746525D01*
X134906525Y-23953368D01*
X134790000Y-24127760D01*
X134673475Y-23953368D01*
X134466632Y-23746525D01*
X134223411Y-23584010D01*
X133953158Y-23472068D01*
X133666260Y-23415000D01*
X133373740Y-23415000D01*
X133086842Y-23472068D01*
X132816589Y-23584010D01*
X132573368Y-23746525D01*
X132366525Y-23953368D01*
X132250000Y-24127760D01*
X132133475Y-23953368D01*
X131926632Y-23746525D01*
X131683411Y-23584010D01*
X131413158Y-23472068D01*
X131126260Y-23415000D01*
X130833740Y-23415000D01*
X130546842Y-23472068D01*
X130276589Y-23584010D01*
X130033368Y-23746525D01*
X129826525Y-23953368D01*
X129710000Y-24127760D01*
X129593475Y-23953368D01*
X129386632Y-23746525D01*
X129143411Y-23584010D01*
X128873158Y-23472068D01*
X128586260Y-23415000D01*
X128293740Y-23415000D01*
X128006842Y-23472068D01*
X127736589Y-23584010D01*
X127493368Y-23746525D01*
X127286525Y-23953368D01*
X127170000Y-24127760D01*
X127053475Y-23953368D01*
X126846632Y-23746525D01*
X126603411Y-23584010D01*
X126333158Y-23472068D01*
X126046260Y-23415000D01*
X125753740Y-23415000D01*
X125466842Y-23472068D01*
X125196589Y-23584010D01*
X124953368Y-23746525D01*
X124746525Y-23953368D01*
X124630000Y-24127760D01*
X124513475Y-23953368D01*
X124306632Y-23746525D01*
X124063411Y-23584010D01*
X123793158Y-23472068D01*
X123506260Y-23415000D01*
X123213740Y-23415000D01*
X122926842Y-23472068D01*
X122656589Y-23584010D01*
X122413368Y-23746525D01*
X122206525Y-23953368D01*
X122090000Y-24127760D01*
X121973475Y-23953368D01*
X121766632Y-23746525D01*
X121523411Y-23584010D01*
X121253158Y-23472068D01*
X120966260Y-23415000D01*
X120673740Y-23415000D01*
X120386842Y-23472068D01*
X120116589Y-23584010D01*
X119873368Y-23746525D01*
X119666525Y-23953368D01*
X119550000Y-24127760D01*
X119433475Y-23953368D01*
X119226632Y-23746525D01*
X118983411Y-23584010D01*
X118713158Y-23472068D01*
X118426260Y-23415000D01*
X118133740Y-23415000D01*
X117913592Y-23458790D01*
X116063804Y-21609003D01*
X116040001Y-21579999D01*
X115924276Y-21485026D01*
X115792247Y-21414454D01*
X115648986Y-21370997D01*
X115537333Y-21360000D01*
X115537322Y-21360000D01*
X115500000Y-21356324D01*
X115462678Y-21360000D01*
X62387322Y-21360000D01*
X62349999Y-21356324D01*
X62312676Y-21360000D01*
X62312667Y-21360000D01*
X62201014Y-21370997D01*
X62057753Y-21414454D01*
X61925724Y-21485026D01*
X61925722Y-21485027D01*
X61925723Y-21485027D01*
X61838996Y-21556201D01*
X61838992Y-21556205D01*
X61809999Y-21579999D01*
X61786205Y-21608992D01*
X56789003Y-26606196D01*
X56759999Y-26629999D01*
X56704871Y-26697174D01*
X56665026Y-26745724D01*
X56645674Y-26781928D01*
X56450000Y-26781928D01*
X56325518Y-26794188D01*
X56205820Y-26830498D01*
X56095506Y-26889463D01*
X55998815Y-26968815D01*
X55919463Y-27065506D01*
X55860498Y-27175820D01*
X55824188Y-27295518D01*
X55811928Y-27420000D01*
X55811928Y-29120000D01*
X55824188Y-29244482D01*
X55860498Y-29364180D01*
X55919463Y-29474494D01*
X55998815Y-29571185D01*
X56095506Y-29650537D01*
X56205820Y-29709502D01*
X56278380Y-29731513D01*
X56146525Y-29863368D01*
X55984010Y-30106589D01*
X55872068Y-30376842D01*
X55815000Y-30663740D01*
X55815000Y-30790198D01*
X51460000Y-26435199D01*
X51460000Y-23321339D01*
X51568386Y-23263405D01*
X51702962Y-23152962D01*
X51813405Y-23018386D01*
X51895472Y-22864850D01*
X51946008Y-22698254D01*
X51963072Y-22525000D01*
X51963072Y-21275000D01*
X51946008Y-21101746D01*
X51895472Y-20935150D01*
X51813405Y-20781614D01*
X51702962Y-20647038D01*
X51568386Y-20536595D01*
X51414850Y-20454528D01*
X51248254Y-20403992D01*
X51143474Y-20393672D01*
X50613802Y-19864001D01*
X50590000Y-19834998D01*
X50474275Y-19740025D01*
X50342246Y-19669453D01*
X50311083Y-19660000D01*
X64566290Y-19660000D01*
X153102436Y-19826760D01*
M02*
