G04 #@! TF.GenerationSoftware,KiCad,Pcbnew,(5.1.5)-3*
G04 #@! TF.CreationDate,2020-11-18T18:17:57+13:00*
G04 #@! TF.ProjectId,MidiControllerV1,4d696469-436f-46e7-9472-6f6c6c657256,rev?*
G04 #@! TF.SameCoordinates,Original*
G04 #@! TF.FileFunction,Soldermask,Top*
G04 #@! TF.FilePolarity,Negative*
%FSLAX46Y46*%
G04 Gerber Fmt 4.6, Leading zero omitted, Abs format (unit mm)*
G04 Created by KiCad (PCBNEW (5.1.5)-3) date 2020-11-18 18:17:57*
%MOMM*%
%LPD*%
G04 APERTURE LIST*
%ADD10C,0.150000*%
G04 APERTURE END LIST*
D10*
G36*
X48668604Y-44353347D02*
G01*
X48705144Y-44364432D01*
X48738821Y-44382433D01*
X48768341Y-44406659D01*
X48792567Y-44436179D01*
X48810568Y-44469856D01*
X48821653Y-44506396D01*
X48826000Y-44550538D01*
X48826000Y-45499462D01*
X48821653Y-45543604D01*
X48810568Y-45580144D01*
X48792567Y-45613821D01*
X48768341Y-45643341D01*
X48738821Y-45667567D01*
X48705144Y-45685568D01*
X48668604Y-45696653D01*
X48624462Y-45701000D01*
X47175538Y-45701000D01*
X47131396Y-45696653D01*
X47094856Y-45685568D01*
X47061179Y-45667567D01*
X47031659Y-45643341D01*
X47007433Y-45613821D01*
X46989432Y-45580144D01*
X46978347Y-45543604D01*
X46974000Y-45499462D01*
X46974000Y-44550538D01*
X46978347Y-44506396D01*
X46989432Y-44469856D01*
X47007433Y-44436179D01*
X47031659Y-44406659D01*
X47061179Y-44382433D01*
X47094856Y-44364432D01*
X47131396Y-44353347D01*
X47175538Y-44349000D01*
X48624462Y-44349000D01*
X48668604Y-44353347D01*
G37*
G36*
X43668604Y-44353347D02*
G01*
X43705144Y-44364432D01*
X43738821Y-44382433D01*
X43768341Y-44406659D01*
X43792567Y-44436179D01*
X43810568Y-44469856D01*
X43821653Y-44506396D01*
X43826000Y-44550538D01*
X43826000Y-45499462D01*
X43821653Y-45543604D01*
X43810568Y-45580144D01*
X43792567Y-45613821D01*
X43768341Y-45643341D01*
X43738821Y-45667567D01*
X43705144Y-45685568D01*
X43668604Y-45696653D01*
X43624462Y-45701000D01*
X42175538Y-45701000D01*
X42131396Y-45696653D01*
X42094856Y-45685568D01*
X42061179Y-45667567D01*
X42031659Y-45643341D01*
X42007433Y-45613821D01*
X41989432Y-45580144D01*
X41978347Y-45543604D01*
X41974000Y-45499462D01*
X41974000Y-44550538D01*
X41978347Y-44506396D01*
X41989432Y-44469856D01*
X42007433Y-44436179D01*
X42031659Y-44406659D01*
X42061179Y-44382433D01*
X42094856Y-44364432D01*
X42131396Y-44353347D01*
X42175538Y-44349000D01*
X43624462Y-44349000D01*
X43668604Y-44353347D01*
G37*
G36*
X31268604Y-44228347D02*
G01*
X31305144Y-44239432D01*
X31338821Y-44257433D01*
X31368341Y-44281659D01*
X31392567Y-44311179D01*
X31410568Y-44344856D01*
X31421653Y-44381396D01*
X31426000Y-44425538D01*
X31426000Y-45374462D01*
X31421653Y-45418604D01*
X31410568Y-45455144D01*
X31392567Y-45488821D01*
X31368341Y-45518341D01*
X31338821Y-45542567D01*
X31305144Y-45560568D01*
X31268604Y-45571653D01*
X31224462Y-45576000D01*
X29775538Y-45576000D01*
X29731396Y-45571653D01*
X29694856Y-45560568D01*
X29661179Y-45542567D01*
X29631659Y-45518341D01*
X29607433Y-45488821D01*
X29589432Y-45455144D01*
X29578347Y-45418604D01*
X29574000Y-45374462D01*
X29574000Y-44425538D01*
X29578347Y-44381396D01*
X29589432Y-44344856D01*
X29607433Y-44311179D01*
X29631659Y-44281659D01*
X29661179Y-44257433D01*
X29694856Y-44239432D01*
X29731396Y-44228347D01*
X29775538Y-44224000D01*
X31224462Y-44224000D01*
X31268604Y-44228347D01*
G37*
G36*
X26268604Y-44228347D02*
G01*
X26305144Y-44239432D01*
X26338821Y-44257433D01*
X26368341Y-44281659D01*
X26392567Y-44311179D01*
X26410568Y-44344856D01*
X26421653Y-44381396D01*
X26426000Y-44425538D01*
X26426000Y-45374462D01*
X26421653Y-45418604D01*
X26410568Y-45455144D01*
X26392567Y-45488821D01*
X26368341Y-45518341D01*
X26338821Y-45542567D01*
X26305144Y-45560568D01*
X26268604Y-45571653D01*
X26224462Y-45576000D01*
X24775538Y-45576000D01*
X24731396Y-45571653D01*
X24694856Y-45560568D01*
X24661179Y-45542567D01*
X24631659Y-45518341D01*
X24607433Y-45488821D01*
X24589432Y-45455144D01*
X24578347Y-45418604D01*
X24574000Y-45374462D01*
X24574000Y-44425538D01*
X24578347Y-44381396D01*
X24589432Y-44344856D01*
X24607433Y-44311179D01*
X24631659Y-44281659D01*
X24661179Y-44257433D01*
X24694856Y-44239432D01*
X24731396Y-44228347D01*
X24775538Y-44224000D01*
X26224462Y-44224000D01*
X26268604Y-44228347D01*
G37*
G36*
X143833512Y-41713927D02*
G01*
X143982812Y-41743624D01*
X144146784Y-41811544D01*
X144294354Y-41910147D01*
X144419853Y-42035646D01*
X144518456Y-42183216D01*
X144586376Y-42347188D01*
X144621000Y-42521259D01*
X144621000Y-42698741D01*
X144586376Y-42872812D01*
X144518456Y-43036784D01*
X144419853Y-43184354D01*
X144294354Y-43309853D01*
X144146784Y-43408456D01*
X143982812Y-43476376D01*
X143833512Y-43506073D01*
X143808742Y-43511000D01*
X143631258Y-43511000D01*
X143606488Y-43506073D01*
X143457188Y-43476376D01*
X143293216Y-43408456D01*
X143145646Y-43309853D01*
X143020147Y-43184354D01*
X142921544Y-43036784D01*
X142853624Y-42872812D01*
X142819000Y-42698741D01*
X142819000Y-42521259D01*
X142853624Y-42347188D01*
X142921544Y-42183216D01*
X143020147Y-42035646D01*
X143145646Y-41910147D01*
X143293216Y-41811544D01*
X143457188Y-41743624D01*
X143606488Y-41713927D01*
X143631258Y-41709000D01*
X143808742Y-41709000D01*
X143833512Y-41713927D01*
G37*
G36*
X148913512Y-41713927D02*
G01*
X149062812Y-41743624D01*
X149226784Y-41811544D01*
X149374354Y-41910147D01*
X149499853Y-42035646D01*
X149598456Y-42183216D01*
X149666376Y-42347188D01*
X149701000Y-42521259D01*
X149701000Y-42698741D01*
X149666376Y-42872812D01*
X149598456Y-43036784D01*
X149499853Y-43184354D01*
X149374354Y-43309853D01*
X149226784Y-43408456D01*
X149062812Y-43476376D01*
X148913512Y-43506073D01*
X148888742Y-43511000D01*
X148711258Y-43511000D01*
X148686488Y-43506073D01*
X148537188Y-43476376D01*
X148373216Y-43408456D01*
X148225646Y-43309853D01*
X148100147Y-43184354D01*
X148001544Y-43036784D01*
X147933624Y-42872812D01*
X147899000Y-42698741D01*
X147899000Y-42521259D01*
X147933624Y-42347188D01*
X148001544Y-42183216D01*
X148100147Y-42035646D01*
X148225646Y-41910147D01*
X148373216Y-41811544D01*
X148537188Y-41743624D01*
X148686488Y-41713927D01*
X148711258Y-41709000D01*
X148888742Y-41709000D01*
X148913512Y-41713927D01*
G37*
G36*
X151453512Y-41713927D02*
G01*
X151602812Y-41743624D01*
X151766784Y-41811544D01*
X151914354Y-41910147D01*
X152039853Y-42035646D01*
X152138456Y-42183216D01*
X152206376Y-42347188D01*
X152241000Y-42521259D01*
X152241000Y-42698741D01*
X152206376Y-42872812D01*
X152138456Y-43036784D01*
X152039853Y-43184354D01*
X151914354Y-43309853D01*
X151766784Y-43408456D01*
X151602812Y-43476376D01*
X151453512Y-43506073D01*
X151428742Y-43511000D01*
X151251258Y-43511000D01*
X151226488Y-43506073D01*
X151077188Y-43476376D01*
X150913216Y-43408456D01*
X150765646Y-43309853D01*
X150640147Y-43184354D01*
X150541544Y-43036784D01*
X150473624Y-42872812D01*
X150439000Y-42698741D01*
X150439000Y-42521259D01*
X150473624Y-42347188D01*
X150541544Y-42183216D01*
X150640147Y-42035646D01*
X150765646Y-41910147D01*
X150913216Y-41811544D01*
X151077188Y-41743624D01*
X151226488Y-41713927D01*
X151251258Y-41709000D01*
X151428742Y-41709000D01*
X151453512Y-41713927D01*
G37*
G36*
X141293512Y-41713927D02*
G01*
X141442812Y-41743624D01*
X141606784Y-41811544D01*
X141754354Y-41910147D01*
X141879853Y-42035646D01*
X141978456Y-42183216D01*
X142046376Y-42347188D01*
X142081000Y-42521259D01*
X142081000Y-42698741D01*
X142046376Y-42872812D01*
X141978456Y-43036784D01*
X141879853Y-43184354D01*
X141754354Y-43309853D01*
X141606784Y-43408456D01*
X141442812Y-43476376D01*
X141293512Y-43506073D01*
X141268742Y-43511000D01*
X141091258Y-43511000D01*
X141066488Y-43506073D01*
X140917188Y-43476376D01*
X140753216Y-43408456D01*
X140605646Y-43309853D01*
X140480147Y-43184354D01*
X140381544Y-43036784D01*
X140313624Y-42872812D01*
X140279000Y-42698741D01*
X140279000Y-42521259D01*
X140313624Y-42347188D01*
X140381544Y-42183216D01*
X140480147Y-42035646D01*
X140605646Y-41910147D01*
X140753216Y-41811544D01*
X140917188Y-41743624D01*
X141066488Y-41713927D01*
X141091258Y-41709000D01*
X141268742Y-41709000D01*
X141293512Y-41713927D01*
G37*
G36*
X138753512Y-41713927D02*
G01*
X138902812Y-41743624D01*
X139066784Y-41811544D01*
X139214354Y-41910147D01*
X139339853Y-42035646D01*
X139438456Y-42183216D01*
X139506376Y-42347188D01*
X139541000Y-42521259D01*
X139541000Y-42698741D01*
X139506376Y-42872812D01*
X139438456Y-43036784D01*
X139339853Y-43184354D01*
X139214354Y-43309853D01*
X139066784Y-43408456D01*
X138902812Y-43476376D01*
X138753512Y-43506073D01*
X138728742Y-43511000D01*
X138551258Y-43511000D01*
X138526488Y-43506073D01*
X138377188Y-43476376D01*
X138213216Y-43408456D01*
X138065646Y-43309853D01*
X137940147Y-43184354D01*
X137841544Y-43036784D01*
X137773624Y-42872812D01*
X137739000Y-42698741D01*
X137739000Y-42521259D01*
X137773624Y-42347188D01*
X137841544Y-42183216D01*
X137940147Y-42035646D01*
X138065646Y-41910147D01*
X138213216Y-41811544D01*
X138377188Y-41743624D01*
X138526488Y-41713927D01*
X138551258Y-41709000D01*
X138728742Y-41709000D01*
X138753512Y-41713927D01*
G37*
G36*
X136213512Y-41713927D02*
G01*
X136362812Y-41743624D01*
X136526784Y-41811544D01*
X136674354Y-41910147D01*
X136799853Y-42035646D01*
X136898456Y-42183216D01*
X136966376Y-42347188D01*
X137001000Y-42521259D01*
X137001000Y-42698741D01*
X136966376Y-42872812D01*
X136898456Y-43036784D01*
X136799853Y-43184354D01*
X136674354Y-43309853D01*
X136526784Y-43408456D01*
X136362812Y-43476376D01*
X136213512Y-43506073D01*
X136188742Y-43511000D01*
X136011258Y-43511000D01*
X135986488Y-43506073D01*
X135837188Y-43476376D01*
X135673216Y-43408456D01*
X135525646Y-43309853D01*
X135400147Y-43184354D01*
X135301544Y-43036784D01*
X135233624Y-42872812D01*
X135199000Y-42698741D01*
X135199000Y-42521259D01*
X135233624Y-42347188D01*
X135301544Y-42183216D01*
X135400147Y-42035646D01*
X135525646Y-41910147D01*
X135673216Y-41811544D01*
X135837188Y-41743624D01*
X135986488Y-41713927D01*
X136011258Y-41709000D01*
X136188742Y-41709000D01*
X136213512Y-41713927D01*
G37*
G36*
X133673512Y-41713927D02*
G01*
X133822812Y-41743624D01*
X133986784Y-41811544D01*
X134134354Y-41910147D01*
X134259853Y-42035646D01*
X134358456Y-42183216D01*
X134426376Y-42347188D01*
X134461000Y-42521259D01*
X134461000Y-42698741D01*
X134426376Y-42872812D01*
X134358456Y-43036784D01*
X134259853Y-43184354D01*
X134134354Y-43309853D01*
X133986784Y-43408456D01*
X133822812Y-43476376D01*
X133673512Y-43506073D01*
X133648742Y-43511000D01*
X133471258Y-43511000D01*
X133446488Y-43506073D01*
X133297188Y-43476376D01*
X133133216Y-43408456D01*
X132985646Y-43309853D01*
X132860147Y-43184354D01*
X132761544Y-43036784D01*
X132693624Y-42872812D01*
X132659000Y-42698741D01*
X132659000Y-42521259D01*
X132693624Y-42347188D01*
X132761544Y-42183216D01*
X132860147Y-42035646D01*
X132985646Y-41910147D01*
X133133216Y-41811544D01*
X133297188Y-41743624D01*
X133446488Y-41713927D01*
X133471258Y-41709000D01*
X133648742Y-41709000D01*
X133673512Y-41713927D01*
G37*
G36*
X131133512Y-41713927D02*
G01*
X131282812Y-41743624D01*
X131446784Y-41811544D01*
X131594354Y-41910147D01*
X131719853Y-42035646D01*
X131818456Y-42183216D01*
X131886376Y-42347188D01*
X131921000Y-42521259D01*
X131921000Y-42698741D01*
X131886376Y-42872812D01*
X131818456Y-43036784D01*
X131719853Y-43184354D01*
X131594354Y-43309853D01*
X131446784Y-43408456D01*
X131282812Y-43476376D01*
X131133512Y-43506073D01*
X131108742Y-43511000D01*
X130931258Y-43511000D01*
X130906488Y-43506073D01*
X130757188Y-43476376D01*
X130593216Y-43408456D01*
X130445646Y-43309853D01*
X130320147Y-43184354D01*
X130221544Y-43036784D01*
X130153624Y-42872812D01*
X130119000Y-42698741D01*
X130119000Y-42521259D01*
X130153624Y-42347188D01*
X130221544Y-42183216D01*
X130320147Y-42035646D01*
X130445646Y-41910147D01*
X130593216Y-41811544D01*
X130757188Y-41743624D01*
X130906488Y-41713927D01*
X130931258Y-41709000D01*
X131108742Y-41709000D01*
X131133512Y-41713927D01*
G37*
G36*
X128593512Y-41713927D02*
G01*
X128742812Y-41743624D01*
X128906784Y-41811544D01*
X129054354Y-41910147D01*
X129179853Y-42035646D01*
X129278456Y-42183216D01*
X129346376Y-42347188D01*
X129381000Y-42521259D01*
X129381000Y-42698741D01*
X129346376Y-42872812D01*
X129278456Y-43036784D01*
X129179853Y-43184354D01*
X129054354Y-43309853D01*
X128906784Y-43408456D01*
X128742812Y-43476376D01*
X128593512Y-43506073D01*
X128568742Y-43511000D01*
X128391258Y-43511000D01*
X128366488Y-43506073D01*
X128217188Y-43476376D01*
X128053216Y-43408456D01*
X127905646Y-43309853D01*
X127780147Y-43184354D01*
X127681544Y-43036784D01*
X127613624Y-42872812D01*
X127579000Y-42698741D01*
X127579000Y-42521259D01*
X127613624Y-42347188D01*
X127681544Y-42183216D01*
X127780147Y-42035646D01*
X127905646Y-41910147D01*
X128053216Y-41811544D01*
X128217188Y-41743624D01*
X128366488Y-41713927D01*
X128391258Y-41709000D01*
X128568742Y-41709000D01*
X128593512Y-41713927D01*
G37*
G36*
X126053512Y-41713927D02*
G01*
X126202812Y-41743624D01*
X126366784Y-41811544D01*
X126514354Y-41910147D01*
X126639853Y-42035646D01*
X126738456Y-42183216D01*
X126806376Y-42347188D01*
X126841000Y-42521259D01*
X126841000Y-42698741D01*
X126806376Y-42872812D01*
X126738456Y-43036784D01*
X126639853Y-43184354D01*
X126514354Y-43309853D01*
X126366784Y-43408456D01*
X126202812Y-43476376D01*
X126053512Y-43506073D01*
X126028742Y-43511000D01*
X125851258Y-43511000D01*
X125826488Y-43506073D01*
X125677188Y-43476376D01*
X125513216Y-43408456D01*
X125365646Y-43309853D01*
X125240147Y-43184354D01*
X125141544Y-43036784D01*
X125073624Y-42872812D01*
X125039000Y-42698741D01*
X125039000Y-42521259D01*
X125073624Y-42347188D01*
X125141544Y-42183216D01*
X125240147Y-42035646D01*
X125365646Y-41910147D01*
X125513216Y-41811544D01*
X125677188Y-41743624D01*
X125826488Y-41713927D01*
X125851258Y-41709000D01*
X126028742Y-41709000D01*
X126053512Y-41713927D01*
G37*
G36*
X103981000Y-43511000D02*
G01*
X102179000Y-43511000D01*
X102179000Y-41709000D01*
X103981000Y-41709000D01*
X103981000Y-43511000D01*
G37*
G36*
X120973512Y-41713927D02*
G01*
X121122812Y-41743624D01*
X121286784Y-41811544D01*
X121434354Y-41910147D01*
X121559853Y-42035646D01*
X121658456Y-42183216D01*
X121726376Y-42347188D01*
X121761000Y-42521259D01*
X121761000Y-42698741D01*
X121726376Y-42872812D01*
X121658456Y-43036784D01*
X121559853Y-43184354D01*
X121434354Y-43309853D01*
X121286784Y-43408456D01*
X121122812Y-43476376D01*
X120973512Y-43506073D01*
X120948742Y-43511000D01*
X120771258Y-43511000D01*
X120746488Y-43506073D01*
X120597188Y-43476376D01*
X120433216Y-43408456D01*
X120285646Y-43309853D01*
X120160147Y-43184354D01*
X120061544Y-43036784D01*
X119993624Y-42872812D01*
X119959000Y-42698741D01*
X119959000Y-42521259D01*
X119993624Y-42347188D01*
X120061544Y-42183216D01*
X120160147Y-42035646D01*
X120285646Y-41910147D01*
X120433216Y-41811544D01*
X120597188Y-41743624D01*
X120746488Y-41713927D01*
X120771258Y-41709000D01*
X120948742Y-41709000D01*
X120973512Y-41713927D01*
G37*
G36*
X118433512Y-41713927D02*
G01*
X118582812Y-41743624D01*
X118746784Y-41811544D01*
X118894354Y-41910147D01*
X119019853Y-42035646D01*
X119118456Y-42183216D01*
X119186376Y-42347188D01*
X119221000Y-42521259D01*
X119221000Y-42698741D01*
X119186376Y-42872812D01*
X119118456Y-43036784D01*
X119019853Y-43184354D01*
X118894354Y-43309853D01*
X118746784Y-43408456D01*
X118582812Y-43476376D01*
X118433512Y-43506073D01*
X118408742Y-43511000D01*
X118231258Y-43511000D01*
X118206488Y-43506073D01*
X118057188Y-43476376D01*
X117893216Y-43408456D01*
X117745646Y-43309853D01*
X117620147Y-43184354D01*
X117521544Y-43036784D01*
X117453624Y-42872812D01*
X117419000Y-42698741D01*
X117419000Y-42521259D01*
X117453624Y-42347188D01*
X117521544Y-42183216D01*
X117620147Y-42035646D01*
X117745646Y-41910147D01*
X117893216Y-41811544D01*
X118057188Y-41743624D01*
X118206488Y-41713927D01*
X118231258Y-41709000D01*
X118408742Y-41709000D01*
X118433512Y-41713927D01*
G37*
G36*
X115893512Y-41713927D02*
G01*
X116042812Y-41743624D01*
X116206784Y-41811544D01*
X116354354Y-41910147D01*
X116479853Y-42035646D01*
X116578456Y-42183216D01*
X116646376Y-42347188D01*
X116681000Y-42521259D01*
X116681000Y-42698741D01*
X116646376Y-42872812D01*
X116578456Y-43036784D01*
X116479853Y-43184354D01*
X116354354Y-43309853D01*
X116206784Y-43408456D01*
X116042812Y-43476376D01*
X115893512Y-43506073D01*
X115868742Y-43511000D01*
X115691258Y-43511000D01*
X115666488Y-43506073D01*
X115517188Y-43476376D01*
X115353216Y-43408456D01*
X115205646Y-43309853D01*
X115080147Y-43184354D01*
X114981544Y-43036784D01*
X114913624Y-42872812D01*
X114879000Y-42698741D01*
X114879000Y-42521259D01*
X114913624Y-42347188D01*
X114981544Y-42183216D01*
X115080147Y-42035646D01*
X115205646Y-41910147D01*
X115353216Y-41811544D01*
X115517188Y-41743624D01*
X115666488Y-41713927D01*
X115691258Y-41709000D01*
X115868742Y-41709000D01*
X115893512Y-41713927D01*
G37*
G36*
X113353512Y-41713927D02*
G01*
X113502812Y-41743624D01*
X113666784Y-41811544D01*
X113814354Y-41910147D01*
X113939853Y-42035646D01*
X114038456Y-42183216D01*
X114106376Y-42347188D01*
X114141000Y-42521259D01*
X114141000Y-42698741D01*
X114106376Y-42872812D01*
X114038456Y-43036784D01*
X113939853Y-43184354D01*
X113814354Y-43309853D01*
X113666784Y-43408456D01*
X113502812Y-43476376D01*
X113353512Y-43506073D01*
X113328742Y-43511000D01*
X113151258Y-43511000D01*
X113126488Y-43506073D01*
X112977188Y-43476376D01*
X112813216Y-43408456D01*
X112665646Y-43309853D01*
X112540147Y-43184354D01*
X112441544Y-43036784D01*
X112373624Y-42872812D01*
X112339000Y-42698741D01*
X112339000Y-42521259D01*
X112373624Y-42347188D01*
X112441544Y-42183216D01*
X112540147Y-42035646D01*
X112665646Y-41910147D01*
X112813216Y-41811544D01*
X112977188Y-41743624D01*
X113126488Y-41713927D01*
X113151258Y-41709000D01*
X113328742Y-41709000D01*
X113353512Y-41713927D01*
G37*
G36*
X110813512Y-41713927D02*
G01*
X110962812Y-41743624D01*
X111126784Y-41811544D01*
X111274354Y-41910147D01*
X111399853Y-42035646D01*
X111498456Y-42183216D01*
X111566376Y-42347188D01*
X111601000Y-42521259D01*
X111601000Y-42698741D01*
X111566376Y-42872812D01*
X111498456Y-43036784D01*
X111399853Y-43184354D01*
X111274354Y-43309853D01*
X111126784Y-43408456D01*
X110962812Y-43476376D01*
X110813512Y-43506073D01*
X110788742Y-43511000D01*
X110611258Y-43511000D01*
X110586488Y-43506073D01*
X110437188Y-43476376D01*
X110273216Y-43408456D01*
X110125646Y-43309853D01*
X110000147Y-43184354D01*
X109901544Y-43036784D01*
X109833624Y-42872812D01*
X109799000Y-42698741D01*
X109799000Y-42521259D01*
X109833624Y-42347188D01*
X109901544Y-42183216D01*
X110000147Y-42035646D01*
X110125646Y-41910147D01*
X110273216Y-41811544D01*
X110437188Y-41743624D01*
X110586488Y-41713927D01*
X110611258Y-41709000D01*
X110788742Y-41709000D01*
X110813512Y-41713927D01*
G37*
G36*
X108273512Y-41713927D02*
G01*
X108422812Y-41743624D01*
X108586784Y-41811544D01*
X108734354Y-41910147D01*
X108859853Y-42035646D01*
X108958456Y-42183216D01*
X109026376Y-42347188D01*
X109061000Y-42521259D01*
X109061000Y-42698741D01*
X109026376Y-42872812D01*
X108958456Y-43036784D01*
X108859853Y-43184354D01*
X108734354Y-43309853D01*
X108586784Y-43408456D01*
X108422812Y-43476376D01*
X108273512Y-43506073D01*
X108248742Y-43511000D01*
X108071258Y-43511000D01*
X108046488Y-43506073D01*
X107897188Y-43476376D01*
X107733216Y-43408456D01*
X107585646Y-43309853D01*
X107460147Y-43184354D01*
X107361544Y-43036784D01*
X107293624Y-42872812D01*
X107259000Y-42698741D01*
X107259000Y-42521259D01*
X107293624Y-42347188D01*
X107361544Y-42183216D01*
X107460147Y-42035646D01*
X107585646Y-41910147D01*
X107733216Y-41811544D01*
X107897188Y-41743624D01*
X108046488Y-41713927D01*
X108071258Y-41709000D01*
X108248742Y-41709000D01*
X108273512Y-41713927D01*
G37*
G36*
X105733512Y-41713927D02*
G01*
X105882812Y-41743624D01*
X106046784Y-41811544D01*
X106194354Y-41910147D01*
X106319853Y-42035646D01*
X106418456Y-42183216D01*
X106486376Y-42347188D01*
X106521000Y-42521259D01*
X106521000Y-42698741D01*
X106486376Y-42872812D01*
X106418456Y-43036784D01*
X106319853Y-43184354D01*
X106194354Y-43309853D01*
X106046784Y-43408456D01*
X105882812Y-43476376D01*
X105733512Y-43506073D01*
X105708742Y-43511000D01*
X105531258Y-43511000D01*
X105506488Y-43506073D01*
X105357188Y-43476376D01*
X105193216Y-43408456D01*
X105045646Y-43309853D01*
X104920147Y-43184354D01*
X104821544Y-43036784D01*
X104753624Y-42872812D01*
X104719000Y-42698741D01*
X104719000Y-42521259D01*
X104753624Y-42347188D01*
X104821544Y-42183216D01*
X104920147Y-42035646D01*
X105045646Y-41910147D01*
X105193216Y-41811544D01*
X105357188Y-41743624D01*
X105506488Y-41713927D01*
X105531258Y-41709000D01*
X105708742Y-41709000D01*
X105733512Y-41713927D01*
G37*
G36*
X146373512Y-41713927D02*
G01*
X146522812Y-41743624D01*
X146686784Y-41811544D01*
X146834354Y-41910147D01*
X146959853Y-42035646D01*
X147058456Y-42183216D01*
X147126376Y-42347188D01*
X147161000Y-42521259D01*
X147161000Y-42698741D01*
X147126376Y-42872812D01*
X147058456Y-43036784D01*
X146959853Y-43184354D01*
X146834354Y-43309853D01*
X146686784Y-43408456D01*
X146522812Y-43476376D01*
X146373512Y-43506073D01*
X146348742Y-43511000D01*
X146171258Y-43511000D01*
X146146488Y-43506073D01*
X145997188Y-43476376D01*
X145833216Y-43408456D01*
X145685646Y-43309853D01*
X145560147Y-43184354D01*
X145461544Y-43036784D01*
X145393624Y-42872812D01*
X145359000Y-42698741D01*
X145359000Y-42521259D01*
X145393624Y-42347188D01*
X145461544Y-42183216D01*
X145560147Y-42035646D01*
X145685646Y-41910147D01*
X145833216Y-41811544D01*
X145997188Y-41743624D01*
X146146488Y-41713927D01*
X146171258Y-41709000D01*
X146348742Y-41709000D01*
X146373512Y-41713927D01*
G37*
G36*
X123513512Y-41713927D02*
G01*
X123662812Y-41743624D01*
X123826784Y-41811544D01*
X123974354Y-41910147D01*
X124099853Y-42035646D01*
X124198456Y-42183216D01*
X124266376Y-42347188D01*
X124301000Y-42521259D01*
X124301000Y-42698741D01*
X124266376Y-42872812D01*
X124198456Y-43036784D01*
X124099853Y-43184354D01*
X123974354Y-43309853D01*
X123826784Y-43408456D01*
X123662812Y-43476376D01*
X123513512Y-43506073D01*
X123488742Y-43511000D01*
X123311258Y-43511000D01*
X123286488Y-43506073D01*
X123137188Y-43476376D01*
X122973216Y-43408456D01*
X122825646Y-43309853D01*
X122700147Y-43184354D01*
X122601544Y-43036784D01*
X122533624Y-42872812D01*
X122499000Y-42698741D01*
X122499000Y-42521259D01*
X122533624Y-42347188D01*
X122601544Y-42183216D01*
X122700147Y-42035646D01*
X122825646Y-41910147D01*
X122973216Y-41811544D01*
X123137188Y-41743624D01*
X123286488Y-41713927D01*
X123311258Y-41709000D01*
X123488742Y-41709000D01*
X123513512Y-41713927D01*
G37*
G36*
X83533512Y-41103927D02*
G01*
X83682812Y-41133624D01*
X83846784Y-41201544D01*
X83994354Y-41300147D01*
X84119853Y-41425646D01*
X84218456Y-41573216D01*
X84286376Y-41737188D01*
X84321000Y-41911259D01*
X84321000Y-42088741D01*
X84286376Y-42262812D01*
X84218456Y-42426784D01*
X84119853Y-42574354D01*
X83994354Y-42699853D01*
X83846784Y-42798456D01*
X83682812Y-42866376D01*
X83534864Y-42895804D01*
X83508742Y-42901000D01*
X83331258Y-42901000D01*
X83305136Y-42895804D01*
X83157188Y-42866376D01*
X82993216Y-42798456D01*
X82845646Y-42699853D01*
X82720147Y-42574354D01*
X82621544Y-42426784D01*
X82553624Y-42262812D01*
X82519000Y-42088741D01*
X82519000Y-41911259D01*
X82553624Y-41737188D01*
X82621544Y-41573216D01*
X82720147Y-41425646D01*
X82845646Y-41300147D01*
X82993216Y-41201544D01*
X83157188Y-41133624D01*
X83306488Y-41103927D01*
X83331258Y-41099000D01*
X83508742Y-41099000D01*
X83533512Y-41103927D01*
G37*
G36*
X48668604Y-41553347D02*
G01*
X48705144Y-41564432D01*
X48738821Y-41582433D01*
X48768341Y-41606659D01*
X48792567Y-41636179D01*
X48810568Y-41669856D01*
X48821653Y-41706396D01*
X48826000Y-41750538D01*
X48826000Y-42699462D01*
X48821653Y-42743604D01*
X48810568Y-42780144D01*
X48792567Y-42813821D01*
X48768341Y-42843341D01*
X48738821Y-42867567D01*
X48705144Y-42885568D01*
X48668604Y-42896653D01*
X48624462Y-42901000D01*
X47175538Y-42901000D01*
X47131396Y-42896653D01*
X47094856Y-42885568D01*
X47061179Y-42867567D01*
X47031659Y-42843341D01*
X47007433Y-42813821D01*
X46989432Y-42780144D01*
X46978347Y-42743604D01*
X46974000Y-42699462D01*
X46974000Y-41750538D01*
X46978347Y-41706396D01*
X46989432Y-41669856D01*
X47007433Y-41636179D01*
X47031659Y-41606659D01*
X47061179Y-41582433D01*
X47094856Y-41564432D01*
X47131396Y-41553347D01*
X47175538Y-41549000D01*
X48624462Y-41549000D01*
X48668604Y-41553347D01*
G37*
G36*
X70833512Y-41103927D02*
G01*
X70982812Y-41133624D01*
X71146784Y-41201544D01*
X71294354Y-41300147D01*
X71419853Y-41425646D01*
X71518456Y-41573216D01*
X71586376Y-41737188D01*
X71621000Y-41911259D01*
X71621000Y-42088741D01*
X71586376Y-42262812D01*
X71518456Y-42426784D01*
X71419853Y-42574354D01*
X71294354Y-42699853D01*
X71146784Y-42798456D01*
X70982812Y-42866376D01*
X70834864Y-42895804D01*
X70808742Y-42901000D01*
X70631258Y-42901000D01*
X70605136Y-42895804D01*
X70457188Y-42866376D01*
X70293216Y-42798456D01*
X70145646Y-42699853D01*
X70020147Y-42574354D01*
X69921544Y-42426784D01*
X69853624Y-42262812D01*
X69819000Y-42088741D01*
X69819000Y-41911259D01*
X69853624Y-41737188D01*
X69921544Y-41573216D01*
X70020147Y-41425646D01*
X70145646Y-41300147D01*
X70293216Y-41201544D01*
X70457188Y-41133624D01*
X70606488Y-41103927D01*
X70631258Y-41099000D01*
X70808742Y-41099000D01*
X70833512Y-41103927D01*
G37*
G36*
X73373512Y-41103927D02*
G01*
X73522812Y-41133624D01*
X73686784Y-41201544D01*
X73834354Y-41300147D01*
X73959853Y-41425646D01*
X74058456Y-41573216D01*
X74126376Y-41737188D01*
X74161000Y-41911259D01*
X74161000Y-42088741D01*
X74126376Y-42262812D01*
X74058456Y-42426784D01*
X73959853Y-42574354D01*
X73834354Y-42699853D01*
X73686784Y-42798456D01*
X73522812Y-42866376D01*
X73374864Y-42895804D01*
X73348742Y-42901000D01*
X73171258Y-42901000D01*
X73145136Y-42895804D01*
X72997188Y-42866376D01*
X72833216Y-42798456D01*
X72685646Y-42699853D01*
X72560147Y-42574354D01*
X72461544Y-42426784D01*
X72393624Y-42262812D01*
X72359000Y-42088741D01*
X72359000Y-41911259D01*
X72393624Y-41737188D01*
X72461544Y-41573216D01*
X72560147Y-41425646D01*
X72685646Y-41300147D01*
X72833216Y-41201544D01*
X72997188Y-41133624D01*
X73146488Y-41103927D01*
X73171258Y-41099000D01*
X73348742Y-41099000D01*
X73373512Y-41103927D01*
G37*
G36*
X75913512Y-41103927D02*
G01*
X76062812Y-41133624D01*
X76226784Y-41201544D01*
X76374354Y-41300147D01*
X76499853Y-41425646D01*
X76598456Y-41573216D01*
X76666376Y-41737188D01*
X76701000Y-41911259D01*
X76701000Y-42088741D01*
X76666376Y-42262812D01*
X76598456Y-42426784D01*
X76499853Y-42574354D01*
X76374354Y-42699853D01*
X76226784Y-42798456D01*
X76062812Y-42866376D01*
X75914864Y-42895804D01*
X75888742Y-42901000D01*
X75711258Y-42901000D01*
X75685136Y-42895804D01*
X75537188Y-42866376D01*
X75373216Y-42798456D01*
X75225646Y-42699853D01*
X75100147Y-42574354D01*
X75001544Y-42426784D01*
X74933624Y-42262812D01*
X74899000Y-42088741D01*
X74899000Y-41911259D01*
X74933624Y-41737188D01*
X75001544Y-41573216D01*
X75100147Y-41425646D01*
X75225646Y-41300147D01*
X75373216Y-41201544D01*
X75537188Y-41133624D01*
X75686488Y-41103927D01*
X75711258Y-41099000D01*
X75888742Y-41099000D01*
X75913512Y-41103927D01*
G37*
G36*
X43668604Y-41553347D02*
G01*
X43705144Y-41564432D01*
X43738821Y-41582433D01*
X43768341Y-41606659D01*
X43792567Y-41636179D01*
X43810568Y-41669856D01*
X43821653Y-41706396D01*
X43826000Y-41750538D01*
X43826000Y-42699462D01*
X43821653Y-42743604D01*
X43810568Y-42780144D01*
X43792567Y-42813821D01*
X43768341Y-42843341D01*
X43738821Y-42867567D01*
X43705144Y-42885568D01*
X43668604Y-42896653D01*
X43624462Y-42901000D01*
X42175538Y-42901000D01*
X42131396Y-42896653D01*
X42094856Y-42885568D01*
X42061179Y-42867567D01*
X42031659Y-42843341D01*
X42007433Y-42813821D01*
X41989432Y-42780144D01*
X41978347Y-42743604D01*
X41974000Y-42699462D01*
X41974000Y-41750538D01*
X41978347Y-41706396D01*
X41989432Y-41669856D01*
X42007433Y-41636179D01*
X42031659Y-41606659D01*
X42061179Y-41582433D01*
X42094856Y-41564432D01*
X42131396Y-41553347D01*
X42175538Y-41549000D01*
X43624462Y-41549000D01*
X43668604Y-41553347D01*
G37*
G36*
X86073512Y-41103927D02*
G01*
X86222812Y-41133624D01*
X86386784Y-41201544D01*
X86534354Y-41300147D01*
X86659853Y-41425646D01*
X86758456Y-41573216D01*
X86826376Y-41737188D01*
X86861000Y-41911259D01*
X86861000Y-42088741D01*
X86826376Y-42262812D01*
X86758456Y-42426784D01*
X86659853Y-42574354D01*
X86534354Y-42699853D01*
X86386784Y-42798456D01*
X86222812Y-42866376D01*
X86074864Y-42895804D01*
X86048742Y-42901000D01*
X85871258Y-42901000D01*
X85845136Y-42895804D01*
X85697188Y-42866376D01*
X85533216Y-42798456D01*
X85385646Y-42699853D01*
X85260147Y-42574354D01*
X85161544Y-42426784D01*
X85093624Y-42262812D01*
X85059000Y-42088741D01*
X85059000Y-41911259D01*
X85093624Y-41737188D01*
X85161544Y-41573216D01*
X85260147Y-41425646D01*
X85385646Y-41300147D01*
X85533216Y-41201544D01*
X85697188Y-41133624D01*
X85846488Y-41103927D01*
X85871258Y-41099000D01*
X86048742Y-41099000D01*
X86073512Y-41103927D01*
G37*
G36*
X80993512Y-41103927D02*
G01*
X81142812Y-41133624D01*
X81306784Y-41201544D01*
X81454354Y-41300147D01*
X81579853Y-41425646D01*
X81678456Y-41573216D01*
X81746376Y-41737188D01*
X81781000Y-41911259D01*
X81781000Y-42088741D01*
X81746376Y-42262812D01*
X81678456Y-42426784D01*
X81579853Y-42574354D01*
X81454354Y-42699853D01*
X81306784Y-42798456D01*
X81142812Y-42866376D01*
X80994864Y-42895804D01*
X80968742Y-42901000D01*
X80791258Y-42901000D01*
X80765136Y-42895804D01*
X80617188Y-42866376D01*
X80453216Y-42798456D01*
X80305646Y-42699853D01*
X80180147Y-42574354D01*
X80081544Y-42426784D01*
X80013624Y-42262812D01*
X79979000Y-42088741D01*
X79979000Y-41911259D01*
X80013624Y-41737188D01*
X80081544Y-41573216D01*
X80180147Y-41425646D01*
X80305646Y-41300147D01*
X80453216Y-41201544D01*
X80617188Y-41133624D01*
X80766488Y-41103927D01*
X80791258Y-41099000D01*
X80968742Y-41099000D01*
X80993512Y-41103927D01*
G37*
G36*
X89401000Y-42901000D02*
G01*
X87599000Y-42901000D01*
X87599000Y-41099000D01*
X89401000Y-41099000D01*
X89401000Y-42901000D01*
G37*
G36*
X78453512Y-41103927D02*
G01*
X78602812Y-41133624D01*
X78766784Y-41201544D01*
X78914354Y-41300147D01*
X79039853Y-41425646D01*
X79138456Y-41573216D01*
X79206376Y-41737188D01*
X79241000Y-41911259D01*
X79241000Y-42088741D01*
X79206376Y-42262812D01*
X79138456Y-42426784D01*
X79039853Y-42574354D01*
X78914354Y-42699853D01*
X78766784Y-42798456D01*
X78602812Y-42866376D01*
X78454864Y-42895804D01*
X78428742Y-42901000D01*
X78251258Y-42901000D01*
X78225136Y-42895804D01*
X78077188Y-42866376D01*
X77913216Y-42798456D01*
X77765646Y-42699853D01*
X77640147Y-42574354D01*
X77541544Y-42426784D01*
X77473624Y-42262812D01*
X77439000Y-42088741D01*
X77439000Y-41911259D01*
X77473624Y-41737188D01*
X77541544Y-41573216D01*
X77640147Y-41425646D01*
X77765646Y-41300147D01*
X77913216Y-41201544D01*
X78077188Y-41133624D01*
X78226488Y-41103927D01*
X78251258Y-41099000D01*
X78428742Y-41099000D01*
X78453512Y-41103927D01*
G37*
G36*
X31268604Y-41428347D02*
G01*
X31305144Y-41439432D01*
X31338821Y-41457433D01*
X31368341Y-41481659D01*
X31392567Y-41511179D01*
X31410568Y-41544856D01*
X31421653Y-41581396D01*
X31426000Y-41625538D01*
X31426000Y-42574462D01*
X31421653Y-42618604D01*
X31410568Y-42655144D01*
X31392567Y-42688821D01*
X31368341Y-42718341D01*
X31338821Y-42742567D01*
X31305144Y-42760568D01*
X31268604Y-42771653D01*
X31224462Y-42776000D01*
X29775538Y-42776000D01*
X29731396Y-42771653D01*
X29694856Y-42760568D01*
X29661179Y-42742567D01*
X29631659Y-42718341D01*
X29607433Y-42688821D01*
X29589432Y-42655144D01*
X29578347Y-42618604D01*
X29574000Y-42574462D01*
X29574000Y-41625538D01*
X29578347Y-41581396D01*
X29589432Y-41544856D01*
X29607433Y-41511179D01*
X29631659Y-41481659D01*
X29661179Y-41457433D01*
X29694856Y-41439432D01*
X29731396Y-41428347D01*
X29775538Y-41424000D01*
X31224462Y-41424000D01*
X31268604Y-41428347D01*
G37*
G36*
X26268604Y-41428347D02*
G01*
X26305144Y-41439432D01*
X26338821Y-41457433D01*
X26368341Y-41481659D01*
X26392567Y-41511179D01*
X26410568Y-41544856D01*
X26421653Y-41581396D01*
X26426000Y-41625538D01*
X26426000Y-42574462D01*
X26421653Y-42618604D01*
X26410568Y-42655144D01*
X26392567Y-42688821D01*
X26368341Y-42718341D01*
X26338821Y-42742567D01*
X26305144Y-42760568D01*
X26268604Y-42771653D01*
X26224462Y-42776000D01*
X24775538Y-42776000D01*
X24731396Y-42771653D01*
X24694856Y-42760568D01*
X24661179Y-42742567D01*
X24631659Y-42718341D01*
X24607433Y-42688821D01*
X24589432Y-42655144D01*
X24578347Y-42618604D01*
X24574000Y-42574462D01*
X24574000Y-41625538D01*
X24578347Y-41581396D01*
X24589432Y-41544856D01*
X24607433Y-41511179D01*
X24631659Y-41481659D01*
X24661179Y-41457433D01*
X24694856Y-41439432D01*
X24731396Y-41428347D01*
X24775538Y-41424000D01*
X26224462Y-41424000D01*
X26268604Y-41428347D01*
G37*
G36*
X28246564Y-38489389D02*
G01*
X28425764Y-38563616D01*
X28437835Y-38568616D01*
X28602490Y-38678635D01*
X28609973Y-38683635D01*
X28756365Y-38830027D01*
X28871385Y-39002167D01*
X28950611Y-39193436D01*
X28991000Y-39396484D01*
X28991000Y-39603516D01*
X28950611Y-39806564D01*
X28873456Y-39992833D01*
X28871384Y-39997835D01*
X28756365Y-40169973D01*
X28609973Y-40316365D01*
X28437835Y-40431384D01*
X28437834Y-40431385D01*
X28437833Y-40431385D01*
X28246564Y-40510611D01*
X28043516Y-40551000D01*
X27836484Y-40551000D01*
X27633436Y-40510611D01*
X27442167Y-40431385D01*
X27442166Y-40431385D01*
X27442165Y-40431384D01*
X27270027Y-40316365D01*
X27123635Y-40169973D01*
X27008616Y-39997835D01*
X27006544Y-39992833D01*
X26929389Y-39806564D01*
X26889000Y-39603516D01*
X26889000Y-39396484D01*
X26929389Y-39193436D01*
X27008615Y-39002167D01*
X27123635Y-38830027D01*
X27270027Y-38683635D01*
X27277510Y-38678635D01*
X27442165Y-38568616D01*
X27454236Y-38563616D01*
X27633436Y-38489389D01*
X27836484Y-38449000D01*
X28043516Y-38449000D01*
X28246564Y-38489389D01*
G37*
G36*
X26491000Y-40551000D02*
G01*
X24389000Y-40551000D01*
X24389000Y-38449000D01*
X26491000Y-38449000D01*
X26491000Y-40551000D01*
G37*
G36*
X30746564Y-38489389D02*
G01*
X30925764Y-38563616D01*
X30937835Y-38568616D01*
X31102490Y-38678635D01*
X31109973Y-38683635D01*
X31256365Y-38830027D01*
X31371385Y-39002167D01*
X31450611Y-39193436D01*
X31491000Y-39396484D01*
X31491000Y-39603516D01*
X31450611Y-39806564D01*
X31373456Y-39992833D01*
X31371384Y-39997835D01*
X31256365Y-40169973D01*
X31109973Y-40316365D01*
X30937835Y-40431384D01*
X30937834Y-40431385D01*
X30937833Y-40431385D01*
X30746564Y-40510611D01*
X30543516Y-40551000D01*
X30336484Y-40551000D01*
X30133436Y-40510611D01*
X29942167Y-40431385D01*
X29942166Y-40431385D01*
X29942165Y-40431384D01*
X29770027Y-40316365D01*
X29623635Y-40169973D01*
X29508616Y-39997835D01*
X29506544Y-39992833D01*
X29429389Y-39806564D01*
X29389000Y-39603516D01*
X29389000Y-39396484D01*
X29429389Y-39193436D01*
X29508615Y-39002167D01*
X29623635Y-38830027D01*
X29770027Y-38683635D01*
X29777510Y-38678635D01*
X29942165Y-38568616D01*
X29954236Y-38563616D01*
X30133436Y-38489389D01*
X30336484Y-38449000D01*
X30543516Y-38449000D01*
X30746564Y-38489389D01*
G37*
G36*
X43951000Y-40546000D02*
G01*
X41849000Y-40546000D01*
X41849000Y-38444000D01*
X43951000Y-38444000D01*
X43951000Y-40546000D01*
G37*
G36*
X48206564Y-38484389D02*
G01*
X48397833Y-38563615D01*
X48397835Y-38563616D01*
X48405318Y-38568616D01*
X48569973Y-38678635D01*
X48716365Y-38825027D01*
X48831385Y-38997167D01*
X48910611Y-39188436D01*
X48951000Y-39391484D01*
X48951000Y-39598516D01*
X48910611Y-39801564D01*
X48831385Y-39992833D01*
X48831384Y-39992835D01*
X48716365Y-40164973D01*
X48569973Y-40311365D01*
X48397835Y-40426384D01*
X48397834Y-40426385D01*
X48397833Y-40426385D01*
X48206564Y-40505611D01*
X48003516Y-40546000D01*
X47796484Y-40546000D01*
X47593436Y-40505611D01*
X47402167Y-40426385D01*
X47402166Y-40426385D01*
X47402165Y-40426384D01*
X47230027Y-40311365D01*
X47083635Y-40164973D01*
X46968616Y-39992835D01*
X46968615Y-39992833D01*
X46889389Y-39801564D01*
X46849000Y-39598516D01*
X46849000Y-39391484D01*
X46889389Y-39188436D01*
X46968615Y-38997167D01*
X47083635Y-38825027D01*
X47230027Y-38678635D01*
X47394682Y-38568616D01*
X47402165Y-38563616D01*
X47402167Y-38563615D01*
X47593436Y-38484389D01*
X47796484Y-38444000D01*
X48003516Y-38444000D01*
X48206564Y-38484389D01*
G37*
G36*
X45706564Y-38484389D02*
G01*
X45897833Y-38563615D01*
X45897835Y-38563616D01*
X45905318Y-38568616D01*
X46069973Y-38678635D01*
X46216365Y-38825027D01*
X46331385Y-38997167D01*
X46410611Y-39188436D01*
X46451000Y-39391484D01*
X46451000Y-39598516D01*
X46410611Y-39801564D01*
X46331385Y-39992833D01*
X46331384Y-39992835D01*
X46216365Y-40164973D01*
X46069973Y-40311365D01*
X45897835Y-40426384D01*
X45897834Y-40426385D01*
X45897833Y-40426385D01*
X45706564Y-40505611D01*
X45503516Y-40546000D01*
X45296484Y-40546000D01*
X45093436Y-40505611D01*
X44902167Y-40426385D01*
X44902166Y-40426385D01*
X44902165Y-40426384D01*
X44730027Y-40311365D01*
X44583635Y-40164973D01*
X44468616Y-39992835D01*
X44468615Y-39992833D01*
X44389389Y-39801564D01*
X44349000Y-39598516D01*
X44349000Y-39391484D01*
X44389389Y-39188436D01*
X44468615Y-38997167D01*
X44583635Y-38825027D01*
X44730027Y-38678635D01*
X44894682Y-38568616D01*
X44902165Y-38563616D01*
X44902167Y-38563615D01*
X45093436Y-38484389D01*
X45296484Y-38444000D01*
X45503516Y-38444000D01*
X45706564Y-38484389D01*
G37*
G36*
X57413512Y-34993927D02*
G01*
X57562812Y-35023624D01*
X57726784Y-35091544D01*
X57874354Y-35190147D01*
X57999853Y-35315646D01*
X58098456Y-35463216D01*
X58166376Y-35627188D01*
X58201000Y-35801259D01*
X58201000Y-35978741D01*
X58166376Y-36152812D01*
X58098456Y-36316784D01*
X57999853Y-36464354D01*
X57874354Y-36589853D01*
X57726784Y-36688456D01*
X57562812Y-36756376D01*
X57413512Y-36786073D01*
X57388742Y-36791000D01*
X57211258Y-36791000D01*
X57186488Y-36786073D01*
X57037188Y-36756376D01*
X56873216Y-36688456D01*
X56725646Y-36589853D01*
X56600147Y-36464354D01*
X56501544Y-36316784D01*
X56433624Y-36152812D01*
X56399000Y-35978741D01*
X56399000Y-35801259D01*
X56433624Y-35627188D01*
X56501544Y-35463216D01*
X56600147Y-35315646D01*
X56725646Y-35190147D01*
X56873216Y-35091544D01*
X57037188Y-35023624D01*
X57186488Y-34993927D01*
X57211258Y-34989000D01*
X57388742Y-34989000D01*
X57413512Y-34993927D01*
G37*
G36*
X57413512Y-32453927D02*
G01*
X57562812Y-32483624D01*
X57726784Y-32551544D01*
X57874354Y-32650147D01*
X57999853Y-32775646D01*
X58098456Y-32923216D01*
X58166376Y-33087188D01*
X58201000Y-33261259D01*
X58201000Y-33438741D01*
X58166376Y-33612812D01*
X58098456Y-33776784D01*
X57999853Y-33924354D01*
X57874354Y-34049853D01*
X57726784Y-34148456D01*
X57562812Y-34216376D01*
X57413512Y-34246073D01*
X57388742Y-34251000D01*
X57211258Y-34251000D01*
X57186488Y-34246073D01*
X57037188Y-34216376D01*
X56873216Y-34148456D01*
X56725646Y-34049853D01*
X56600147Y-33924354D01*
X56501544Y-33776784D01*
X56433624Y-33612812D01*
X56399000Y-33438741D01*
X56399000Y-33261259D01*
X56433624Y-33087188D01*
X56501544Y-32923216D01*
X56600147Y-32775646D01*
X56725646Y-32650147D01*
X56873216Y-32551544D01*
X57037188Y-32483624D01*
X57186488Y-32453927D01*
X57211258Y-32449000D01*
X57388742Y-32449000D01*
X57413512Y-32453927D01*
G37*
G36*
X23391000Y-33651000D02*
G01*
X21289000Y-33651000D01*
X21289000Y-30349000D01*
X23391000Y-30349000D01*
X23391000Y-33651000D01*
G37*
G36*
X34591000Y-33651000D02*
G01*
X32489000Y-33651000D01*
X32489000Y-30349000D01*
X34591000Y-30349000D01*
X34591000Y-33651000D01*
G37*
G36*
X40851000Y-33646000D02*
G01*
X38749000Y-33646000D01*
X38749000Y-30344000D01*
X40851000Y-30344000D01*
X40851000Y-33646000D01*
G37*
G36*
X52051000Y-33646000D02*
G01*
X49949000Y-33646000D01*
X49949000Y-30344000D01*
X52051000Y-30344000D01*
X52051000Y-33646000D01*
G37*
G36*
X57413512Y-29913927D02*
G01*
X57562812Y-29943624D01*
X57726784Y-30011544D01*
X57874354Y-30110147D01*
X57999853Y-30235646D01*
X58098456Y-30383216D01*
X58166376Y-30547188D01*
X58201000Y-30721259D01*
X58201000Y-30898741D01*
X58166376Y-31072812D01*
X58098456Y-31236784D01*
X57999853Y-31384354D01*
X57874354Y-31509853D01*
X57726784Y-31608456D01*
X57562812Y-31676376D01*
X57413512Y-31706073D01*
X57388742Y-31711000D01*
X57211258Y-31711000D01*
X57186488Y-31706073D01*
X57037188Y-31676376D01*
X56873216Y-31608456D01*
X56725646Y-31509853D01*
X56600147Y-31384354D01*
X56501544Y-31236784D01*
X56433624Y-31072812D01*
X56399000Y-30898741D01*
X56399000Y-30721259D01*
X56433624Y-30547188D01*
X56501544Y-30383216D01*
X56600147Y-30235646D01*
X56725646Y-30110147D01*
X56873216Y-30011544D01*
X57037188Y-29943624D01*
X57186488Y-29913927D01*
X57211258Y-29909000D01*
X57388742Y-29909000D01*
X57413512Y-29913927D01*
G37*
G36*
X58201000Y-29171000D02*
G01*
X56399000Y-29171000D01*
X56399000Y-27369000D01*
X58201000Y-27369000D01*
X58201000Y-29171000D01*
G37*
G36*
X30746564Y-23989389D02*
G01*
X30925764Y-24063616D01*
X30937835Y-24068616D01*
X30987115Y-24101544D01*
X31109973Y-24183635D01*
X31256365Y-24330027D01*
X31371385Y-24502167D01*
X31450611Y-24693436D01*
X31491000Y-24896484D01*
X31491000Y-25103516D01*
X31450611Y-25306564D01*
X31381110Y-25474354D01*
X31371384Y-25497835D01*
X31256365Y-25669973D01*
X31109973Y-25816365D01*
X30937835Y-25931384D01*
X30937834Y-25931385D01*
X30937833Y-25931385D01*
X30746564Y-26010611D01*
X30543516Y-26051000D01*
X30336484Y-26051000D01*
X30133436Y-26010611D01*
X29942167Y-25931385D01*
X29942166Y-25931385D01*
X29942165Y-25931384D01*
X29770027Y-25816365D01*
X29623635Y-25669973D01*
X29508616Y-25497835D01*
X29498890Y-25474354D01*
X29429389Y-25306564D01*
X29389000Y-25103516D01*
X29389000Y-24896484D01*
X29429389Y-24693436D01*
X29508615Y-24502167D01*
X29623635Y-24330027D01*
X29770027Y-24183635D01*
X29892885Y-24101544D01*
X29942165Y-24068616D01*
X29954236Y-24063616D01*
X30133436Y-23989389D01*
X30336484Y-23949000D01*
X30543516Y-23949000D01*
X30746564Y-23989389D01*
G37*
G36*
X25746564Y-23989389D02*
G01*
X25925764Y-24063616D01*
X25937835Y-24068616D01*
X25987115Y-24101544D01*
X26109973Y-24183635D01*
X26256365Y-24330027D01*
X26371385Y-24502167D01*
X26450611Y-24693436D01*
X26491000Y-24896484D01*
X26491000Y-25103516D01*
X26450611Y-25306564D01*
X26381110Y-25474354D01*
X26371384Y-25497835D01*
X26256365Y-25669973D01*
X26109973Y-25816365D01*
X25937835Y-25931384D01*
X25937834Y-25931385D01*
X25937833Y-25931385D01*
X25746564Y-26010611D01*
X25543516Y-26051000D01*
X25336484Y-26051000D01*
X25133436Y-26010611D01*
X24942167Y-25931385D01*
X24942166Y-25931385D01*
X24942165Y-25931384D01*
X24770027Y-25816365D01*
X24623635Y-25669973D01*
X24508616Y-25497835D01*
X24498890Y-25474354D01*
X24429389Y-25306564D01*
X24389000Y-25103516D01*
X24389000Y-24896484D01*
X24429389Y-24693436D01*
X24508615Y-24502167D01*
X24623635Y-24330027D01*
X24770027Y-24183635D01*
X24892885Y-24101544D01*
X24942165Y-24068616D01*
X24954236Y-24063616D01*
X25133436Y-23989389D01*
X25336484Y-23949000D01*
X25543516Y-23949000D01*
X25746564Y-23989389D01*
G37*
G36*
X48206564Y-23984389D02*
G01*
X48397833Y-24063615D01*
X48397835Y-24063616D01*
X48569973Y-24178635D01*
X48716365Y-24325027D01*
X48815382Y-24473216D01*
X48831385Y-24497167D01*
X48910611Y-24688436D01*
X48951000Y-24891484D01*
X48951000Y-25098516D01*
X48910611Y-25301564D01*
X48839039Y-25474354D01*
X48831384Y-25492835D01*
X48716365Y-25664973D01*
X48569973Y-25811365D01*
X48397835Y-25926384D01*
X48397834Y-25926385D01*
X48397833Y-25926385D01*
X48206564Y-26005611D01*
X48003516Y-26046000D01*
X47796484Y-26046000D01*
X47593436Y-26005611D01*
X47402167Y-25926385D01*
X47402166Y-25926385D01*
X47402165Y-25926384D01*
X47230027Y-25811365D01*
X47083635Y-25664973D01*
X46968616Y-25492835D01*
X46960961Y-25474354D01*
X46889389Y-25301564D01*
X46849000Y-25098516D01*
X46849000Y-24891484D01*
X46889389Y-24688436D01*
X46968615Y-24497167D01*
X46984619Y-24473216D01*
X47083635Y-24325027D01*
X47230027Y-24178635D01*
X47402165Y-24063616D01*
X47402167Y-24063615D01*
X47593436Y-23984389D01*
X47796484Y-23944000D01*
X48003516Y-23944000D01*
X48206564Y-23984389D01*
G37*
G36*
X43206564Y-23984389D02*
G01*
X43397833Y-24063615D01*
X43397835Y-24063616D01*
X43569973Y-24178635D01*
X43716365Y-24325027D01*
X43815382Y-24473216D01*
X43831385Y-24497167D01*
X43910611Y-24688436D01*
X43951000Y-24891484D01*
X43951000Y-25098516D01*
X43910611Y-25301564D01*
X43839039Y-25474354D01*
X43831384Y-25492835D01*
X43716365Y-25664973D01*
X43569973Y-25811365D01*
X43397835Y-25926384D01*
X43397834Y-25926385D01*
X43397833Y-25926385D01*
X43206564Y-26005611D01*
X43003516Y-26046000D01*
X42796484Y-26046000D01*
X42593436Y-26005611D01*
X42402167Y-25926385D01*
X42402166Y-25926385D01*
X42402165Y-25926384D01*
X42230027Y-25811365D01*
X42083635Y-25664973D01*
X41968616Y-25492835D01*
X41960961Y-25474354D01*
X41889389Y-25301564D01*
X41849000Y-25098516D01*
X41849000Y-24891484D01*
X41889389Y-24688436D01*
X41968615Y-24497167D01*
X41984619Y-24473216D01*
X42083635Y-24325027D01*
X42230027Y-24178635D01*
X42402165Y-24063616D01*
X42402167Y-24063615D01*
X42593436Y-23984389D01*
X42796484Y-23944000D01*
X43003516Y-23944000D01*
X43206564Y-23984389D01*
G37*
G36*
X120933512Y-24003927D02*
G01*
X121082812Y-24033624D01*
X121246784Y-24101544D01*
X121394354Y-24200147D01*
X121519853Y-24325646D01*
X121618456Y-24473216D01*
X121686376Y-24637188D01*
X121721000Y-24811259D01*
X121721000Y-24988741D01*
X121686376Y-25162812D01*
X121618456Y-25326784D01*
X121519853Y-25474354D01*
X121394354Y-25599853D01*
X121246784Y-25698456D01*
X121082812Y-25766376D01*
X120933512Y-25796073D01*
X120908742Y-25801000D01*
X120731258Y-25801000D01*
X120706488Y-25796073D01*
X120557188Y-25766376D01*
X120393216Y-25698456D01*
X120245646Y-25599853D01*
X120120147Y-25474354D01*
X120021544Y-25326784D01*
X119953624Y-25162812D01*
X119919000Y-24988741D01*
X119919000Y-24811259D01*
X119953624Y-24637188D01*
X120021544Y-24473216D01*
X120120147Y-24325646D01*
X120245646Y-24200147D01*
X120393216Y-24101544D01*
X120557188Y-24033624D01*
X120706488Y-24003927D01*
X120731258Y-23999000D01*
X120908742Y-23999000D01*
X120933512Y-24003927D01*
G37*
G36*
X113313512Y-24003927D02*
G01*
X113462812Y-24033624D01*
X113626784Y-24101544D01*
X113774354Y-24200147D01*
X113899853Y-24325646D01*
X113998456Y-24473216D01*
X114066376Y-24637188D01*
X114101000Y-24811259D01*
X114101000Y-24988741D01*
X114066376Y-25162812D01*
X113998456Y-25326784D01*
X113899853Y-25474354D01*
X113774354Y-25599853D01*
X113626784Y-25698456D01*
X113462812Y-25766376D01*
X113313512Y-25796073D01*
X113288742Y-25801000D01*
X113111258Y-25801000D01*
X113086488Y-25796073D01*
X112937188Y-25766376D01*
X112773216Y-25698456D01*
X112625646Y-25599853D01*
X112500147Y-25474354D01*
X112401544Y-25326784D01*
X112333624Y-25162812D01*
X112299000Y-24988741D01*
X112299000Y-24811259D01*
X112333624Y-24637188D01*
X112401544Y-24473216D01*
X112500147Y-24325646D01*
X112625646Y-24200147D01*
X112773216Y-24101544D01*
X112937188Y-24033624D01*
X113086488Y-24003927D01*
X113111258Y-23999000D01*
X113288742Y-23999000D01*
X113313512Y-24003927D01*
G37*
G36*
X115853512Y-24003927D02*
G01*
X116002812Y-24033624D01*
X116166784Y-24101544D01*
X116314354Y-24200147D01*
X116439853Y-24325646D01*
X116538456Y-24473216D01*
X116606376Y-24637188D01*
X116641000Y-24811259D01*
X116641000Y-24988741D01*
X116606376Y-25162812D01*
X116538456Y-25326784D01*
X116439853Y-25474354D01*
X116314354Y-25599853D01*
X116166784Y-25698456D01*
X116002812Y-25766376D01*
X115853512Y-25796073D01*
X115828742Y-25801000D01*
X115651258Y-25801000D01*
X115626488Y-25796073D01*
X115477188Y-25766376D01*
X115313216Y-25698456D01*
X115165646Y-25599853D01*
X115040147Y-25474354D01*
X114941544Y-25326784D01*
X114873624Y-25162812D01*
X114839000Y-24988741D01*
X114839000Y-24811259D01*
X114873624Y-24637188D01*
X114941544Y-24473216D01*
X115040147Y-24325646D01*
X115165646Y-24200147D01*
X115313216Y-24101544D01*
X115477188Y-24033624D01*
X115626488Y-24003927D01*
X115651258Y-23999000D01*
X115828742Y-23999000D01*
X115853512Y-24003927D01*
G37*
G36*
X118393512Y-24003927D02*
G01*
X118542812Y-24033624D01*
X118706784Y-24101544D01*
X118854354Y-24200147D01*
X118979853Y-24325646D01*
X119078456Y-24473216D01*
X119146376Y-24637188D01*
X119181000Y-24811259D01*
X119181000Y-24988741D01*
X119146376Y-25162812D01*
X119078456Y-25326784D01*
X118979853Y-25474354D01*
X118854354Y-25599853D01*
X118706784Y-25698456D01*
X118542812Y-25766376D01*
X118393512Y-25796073D01*
X118368742Y-25801000D01*
X118191258Y-25801000D01*
X118166488Y-25796073D01*
X118017188Y-25766376D01*
X117853216Y-25698456D01*
X117705646Y-25599853D01*
X117580147Y-25474354D01*
X117481544Y-25326784D01*
X117413624Y-25162812D01*
X117379000Y-24988741D01*
X117379000Y-24811259D01*
X117413624Y-24637188D01*
X117481544Y-24473216D01*
X117580147Y-24325646D01*
X117705646Y-24200147D01*
X117853216Y-24101544D01*
X118017188Y-24033624D01*
X118166488Y-24003927D01*
X118191258Y-23999000D01*
X118368742Y-23999000D01*
X118393512Y-24003927D01*
G37*
G36*
X108233512Y-24003927D02*
G01*
X108382812Y-24033624D01*
X108546784Y-24101544D01*
X108694354Y-24200147D01*
X108819853Y-24325646D01*
X108918456Y-24473216D01*
X108986376Y-24637188D01*
X109021000Y-24811259D01*
X109021000Y-24988741D01*
X108986376Y-25162812D01*
X108918456Y-25326784D01*
X108819853Y-25474354D01*
X108694354Y-25599853D01*
X108546784Y-25698456D01*
X108382812Y-25766376D01*
X108233512Y-25796073D01*
X108208742Y-25801000D01*
X108031258Y-25801000D01*
X108006488Y-25796073D01*
X107857188Y-25766376D01*
X107693216Y-25698456D01*
X107545646Y-25599853D01*
X107420147Y-25474354D01*
X107321544Y-25326784D01*
X107253624Y-25162812D01*
X107219000Y-24988741D01*
X107219000Y-24811259D01*
X107253624Y-24637188D01*
X107321544Y-24473216D01*
X107420147Y-24325646D01*
X107545646Y-24200147D01*
X107693216Y-24101544D01*
X107857188Y-24033624D01*
X108006488Y-24003927D01*
X108031258Y-23999000D01*
X108208742Y-23999000D01*
X108233512Y-24003927D01*
G37*
G36*
X105693512Y-24003927D02*
G01*
X105842812Y-24033624D01*
X106006784Y-24101544D01*
X106154354Y-24200147D01*
X106279853Y-24325646D01*
X106378456Y-24473216D01*
X106446376Y-24637188D01*
X106481000Y-24811259D01*
X106481000Y-24988741D01*
X106446376Y-25162812D01*
X106378456Y-25326784D01*
X106279853Y-25474354D01*
X106154354Y-25599853D01*
X106006784Y-25698456D01*
X105842812Y-25766376D01*
X105693512Y-25796073D01*
X105668742Y-25801000D01*
X105491258Y-25801000D01*
X105466488Y-25796073D01*
X105317188Y-25766376D01*
X105153216Y-25698456D01*
X105005646Y-25599853D01*
X104880147Y-25474354D01*
X104781544Y-25326784D01*
X104713624Y-25162812D01*
X104679000Y-24988741D01*
X104679000Y-24811259D01*
X104713624Y-24637188D01*
X104781544Y-24473216D01*
X104880147Y-24325646D01*
X105005646Y-24200147D01*
X105153216Y-24101544D01*
X105317188Y-24033624D01*
X105466488Y-24003927D01*
X105491258Y-23999000D01*
X105668742Y-23999000D01*
X105693512Y-24003927D01*
G37*
G36*
X103153512Y-24003927D02*
G01*
X103302812Y-24033624D01*
X103466784Y-24101544D01*
X103614354Y-24200147D01*
X103739853Y-24325646D01*
X103838456Y-24473216D01*
X103906376Y-24637188D01*
X103941000Y-24811259D01*
X103941000Y-24988741D01*
X103906376Y-25162812D01*
X103838456Y-25326784D01*
X103739853Y-25474354D01*
X103614354Y-25599853D01*
X103466784Y-25698456D01*
X103302812Y-25766376D01*
X103153512Y-25796073D01*
X103128742Y-25801000D01*
X102951258Y-25801000D01*
X102926488Y-25796073D01*
X102777188Y-25766376D01*
X102613216Y-25698456D01*
X102465646Y-25599853D01*
X102340147Y-25474354D01*
X102241544Y-25326784D01*
X102173624Y-25162812D01*
X102139000Y-24988741D01*
X102139000Y-24811259D01*
X102173624Y-24637188D01*
X102241544Y-24473216D01*
X102340147Y-24325646D01*
X102465646Y-24200147D01*
X102613216Y-24101544D01*
X102777188Y-24033624D01*
X102926488Y-24003927D01*
X102951258Y-23999000D01*
X103128742Y-23999000D01*
X103153512Y-24003927D01*
G37*
G36*
X141253512Y-24003927D02*
G01*
X141402812Y-24033624D01*
X141566784Y-24101544D01*
X141714354Y-24200147D01*
X141839853Y-24325646D01*
X141938456Y-24473216D01*
X142006376Y-24637188D01*
X142041000Y-24811259D01*
X142041000Y-24988741D01*
X142006376Y-25162812D01*
X141938456Y-25326784D01*
X141839853Y-25474354D01*
X141714354Y-25599853D01*
X141566784Y-25698456D01*
X141402812Y-25766376D01*
X141253512Y-25796073D01*
X141228742Y-25801000D01*
X141051258Y-25801000D01*
X141026488Y-25796073D01*
X140877188Y-25766376D01*
X140713216Y-25698456D01*
X140565646Y-25599853D01*
X140440147Y-25474354D01*
X140341544Y-25326784D01*
X140273624Y-25162812D01*
X140239000Y-24988741D01*
X140239000Y-24811259D01*
X140273624Y-24637188D01*
X140341544Y-24473216D01*
X140440147Y-24325646D01*
X140565646Y-24200147D01*
X140713216Y-24101544D01*
X140877188Y-24033624D01*
X141026488Y-24003927D01*
X141051258Y-23999000D01*
X141228742Y-23999000D01*
X141253512Y-24003927D01*
G37*
G36*
X128553512Y-24003927D02*
G01*
X128702812Y-24033624D01*
X128866784Y-24101544D01*
X129014354Y-24200147D01*
X129139853Y-24325646D01*
X129238456Y-24473216D01*
X129306376Y-24637188D01*
X129341000Y-24811259D01*
X129341000Y-24988741D01*
X129306376Y-25162812D01*
X129238456Y-25326784D01*
X129139853Y-25474354D01*
X129014354Y-25599853D01*
X128866784Y-25698456D01*
X128702812Y-25766376D01*
X128553512Y-25796073D01*
X128528742Y-25801000D01*
X128351258Y-25801000D01*
X128326488Y-25796073D01*
X128177188Y-25766376D01*
X128013216Y-25698456D01*
X127865646Y-25599853D01*
X127740147Y-25474354D01*
X127641544Y-25326784D01*
X127573624Y-25162812D01*
X127539000Y-24988741D01*
X127539000Y-24811259D01*
X127573624Y-24637188D01*
X127641544Y-24473216D01*
X127740147Y-24325646D01*
X127865646Y-24200147D01*
X128013216Y-24101544D01*
X128177188Y-24033624D01*
X128326488Y-24003927D01*
X128351258Y-23999000D01*
X128528742Y-23999000D01*
X128553512Y-24003927D01*
G37*
G36*
X152201000Y-25801000D02*
G01*
X150399000Y-25801000D01*
X150399000Y-23999000D01*
X152201000Y-23999000D01*
X152201000Y-25801000D01*
G37*
G36*
X110773512Y-24003927D02*
G01*
X110922812Y-24033624D01*
X111086784Y-24101544D01*
X111234354Y-24200147D01*
X111359853Y-24325646D01*
X111458456Y-24473216D01*
X111526376Y-24637188D01*
X111561000Y-24811259D01*
X111561000Y-24988741D01*
X111526376Y-25162812D01*
X111458456Y-25326784D01*
X111359853Y-25474354D01*
X111234354Y-25599853D01*
X111086784Y-25698456D01*
X110922812Y-25766376D01*
X110773512Y-25796073D01*
X110748742Y-25801000D01*
X110571258Y-25801000D01*
X110546488Y-25796073D01*
X110397188Y-25766376D01*
X110233216Y-25698456D01*
X110085646Y-25599853D01*
X109960147Y-25474354D01*
X109861544Y-25326784D01*
X109793624Y-25162812D01*
X109759000Y-24988741D01*
X109759000Y-24811259D01*
X109793624Y-24637188D01*
X109861544Y-24473216D01*
X109960147Y-24325646D01*
X110085646Y-24200147D01*
X110233216Y-24101544D01*
X110397188Y-24033624D01*
X110546488Y-24003927D01*
X110571258Y-23999000D01*
X110748742Y-23999000D01*
X110773512Y-24003927D01*
G37*
G36*
X146333512Y-24003927D02*
G01*
X146482812Y-24033624D01*
X146646784Y-24101544D01*
X146794354Y-24200147D01*
X146919853Y-24325646D01*
X147018456Y-24473216D01*
X147086376Y-24637188D01*
X147121000Y-24811259D01*
X147121000Y-24988741D01*
X147086376Y-25162812D01*
X147018456Y-25326784D01*
X146919853Y-25474354D01*
X146794354Y-25599853D01*
X146646784Y-25698456D01*
X146482812Y-25766376D01*
X146333512Y-25796073D01*
X146308742Y-25801000D01*
X146131258Y-25801000D01*
X146106488Y-25796073D01*
X145957188Y-25766376D01*
X145793216Y-25698456D01*
X145645646Y-25599853D01*
X145520147Y-25474354D01*
X145421544Y-25326784D01*
X145353624Y-25162812D01*
X145319000Y-24988741D01*
X145319000Y-24811259D01*
X145353624Y-24637188D01*
X145421544Y-24473216D01*
X145520147Y-24325646D01*
X145645646Y-24200147D01*
X145793216Y-24101544D01*
X145957188Y-24033624D01*
X146106488Y-24003927D01*
X146131258Y-23999000D01*
X146308742Y-23999000D01*
X146333512Y-24003927D01*
G37*
G36*
X123473512Y-24003927D02*
G01*
X123622812Y-24033624D01*
X123786784Y-24101544D01*
X123934354Y-24200147D01*
X124059853Y-24325646D01*
X124158456Y-24473216D01*
X124226376Y-24637188D01*
X124261000Y-24811259D01*
X124261000Y-24988741D01*
X124226376Y-25162812D01*
X124158456Y-25326784D01*
X124059853Y-25474354D01*
X123934354Y-25599853D01*
X123786784Y-25698456D01*
X123622812Y-25766376D01*
X123473512Y-25796073D01*
X123448742Y-25801000D01*
X123271258Y-25801000D01*
X123246488Y-25796073D01*
X123097188Y-25766376D01*
X122933216Y-25698456D01*
X122785646Y-25599853D01*
X122660147Y-25474354D01*
X122561544Y-25326784D01*
X122493624Y-25162812D01*
X122459000Y-24988741D01*
X122459000Y-24811259D01*
X122493624Y-24637188D01*
X122561544Y-24473216D01*
X122660147Y-24325646D01*
X122785646Y-24200147D01*
X122933216Y-24101544D01*
X123097188Y-24033624D01*
X123246488Y-24003927D01*
X123271258Y-23999000D01*
X123448742Y-23999000D01*
X123473512Y-24003927D01*
G37*
G36*
X126013512Y-24003927D02*
G01*
X126162812Y-24033624D01*
X126326784Y-24101544D01*
X126474354Y-24200147D01*
X126599853Y-24325646D01*
X126698456Y-24473216D01*
X126766376Y-24637188D01*
X126801000Y-24811259D01*
X126801000Y-24988741D01*
X126766376Y-25162812D01*
X126698456Y-25326784D01*
X126599853Y-25474354D01*
X126474354Y-25599853D01*
X126326784Y-25698456D01*
X126162812Y-25766376D01*
X126013512Y-25796073D01*
X125988742Y-25801000D01*
X125811258Y-25801000D01*
X125786488Y-25796073D01*
X125637188Y-25766376D01*
X125473216Y-25698456D01*
X125325646Y-25599853D01*
X125200147Y-25474354D01*
X125101544Y-25326784D01*
X125033624Y-25162812D01*
X124999000Y-24988741D01*
X124999000Y-24811259D01*
X125033624Y-24637188D01*
X125101544Y-24473216D01*
X125200147Y-24325646D01*
X125325646Y-24200147D01*
X125473216Y-24101544D01*
X125637188Y-24033624D01*
X125786488Y-24003927D01*
X125811258Y-23999000D01*
X125988742Y-23999000D01*
X126013512Y-24003927D01*
G37*
G36*
X131093512Y-24003927D02*
G01*
X131242812Y-24033624D01*
X131406784Y-24101544D01*
X131554354Y-24200147D01*
X131679853Y-24325646D01*
X131778456Y-24473216D01*
X131846376Y-24637188D01*
X131881000Y-24811259D01*
X131881000Y-24988741D01*
X131846376Y-25162812D01*
X131778456Y-25326784D01*
X131679853Y-25474354D01*
X131554354Y-25599853D01*
X131406784Y-25698456D01*
X131242812Y-25766376D01*
X131093512Y-25796073D01*
X131068742Y-25801000D01*
X130891258Y-25801000D01*
X130866488Y-25796073D01*
X130717188Y-25766376D01*
X130553216Y-25698456D01*
X130405646Y-25599853D01*
X130280147Y-25474354D01*
X130181544Y-25326784D01*
X130113624Y-25162812D01*
X130079000Y-24988741D01*
X130079000Y-24811259D01*
X130113624Y-24637188D01*
X130181544Y-24473216D01*
X130280147Y-24325646D01*
X130405646Y-24200147D01*
X130553216Y-24101544D01*
X130717188Y-24033624D01*
X130866488Y-24003927D01*
X130891258Y-23999000D01*
X131068742Y-23999000D01*
X131093512Y-24003927D01*
G37*
G36*
X133633512Y-24003927D02*
G01*
X133782812Y-24033624D01*
X133946784Y-24101544D01*
X134094354Y-24200147D01*
X134219853Y-24325646D01*
X134318456Y-24473216D01*
X134386376Y-24637188D01*
X134421000Y-24811259D01*
X134421000Y-24988741D01*
X134386376Y-25162812D01*
X134318456Y-25326784D01*
X134219853Y-25474354D01*
X134094354Y-25599853D01*
X133946784Y-25698456D01*
X133782812Y-25766376D01*
X133633512Y-25796073D01*
X133608742Y-25801000D01*
X133431258Y-25801000D01*
X133406488Y-25796073D01*
X133257188Y-25766376D01*
X133093216Y-25698456D01*
X132945646Y-25599853D01*
X132820147Y-25474354D01*
X132721544Y-25326784D01*
X132653624Y-25162812D01*
X132619000Y-24988741D01*
X132619000Y-24811259D01*
X132653624Y-24637188D01*
X132721544Y-24473216D01*
X132820147Y-24325646D01*
X132945646Y-24200147D01*
X133093216Y-24101544D01*
X133257188Y-24033624D01*
X133406488Y-24003927D01*
X133431258Y-23999000D01*
X133608742Y-23999000D01*
X133633512Y-24003927D01*
G37*
G36*
X136173512Y-24003927D02*
G01*
X136322812Y-24033624D01*
X136486784Y-24101544D01*
X136634354Y-24200147D01*
X136759853Y-24325646D01*
X136858456Y-24473216D01*
X136926376Y-24637188D01*
X136961000Y-24811259D01*
X136961000Y-24988741D01*
X136926376Y-25162812D01*
X136858456Y-25326784D01*
X136759853Y-25474354D01*
X136634354Y-25599853D01*
X136486784Y-25698456D01*
X136322812Y-25766376D01*
X136173512Y-25796073D01*
X136148742Y-25801000D01*
X135971258Y-25801000D01*
X135946488Y-25796073D01*
X135797188Y-25766376D01*
X135633216Y-25698456D01*
X135485646Y-25599853D01*
X135360147Y-25474354D01*
X135261544Y-25326784D01*
X135193624Y-25162812D01*
X135159000Y-24988741D01*
X135159000Y-24811259D01*
X135193624Y-24637188D01*
X135261544Y-24473216D01*
X135360147Y-24325646D01*
X135485646Y-24200147D01*
X135633216Y-24101544D01*
X135797188Y-24033624D01*
X135946488Y-24003927D01*
X135971258Y-23999000D01*
X136148742Y-23999000D01*
X136173512Y-24003927D01*
G37*
G36*
X138713512Y-24003927D02*
G01*
X138862812Y-24033624D01*
X139026784Y-24101544D01*
X139174354Y-24200147D01*
X139299853Y-24325646D01*
X139398456Y-24473216D01*
X139466376Y-24637188D01*
X139501000Y-24811259D01*
X139501000Y-24988741D01*
X139466376Y-25162812D01*
X139398456Y-25326784D01*
X139299853Y-25474354D01*
X139174354Y-25599853D01*
X139026784Y-25698456D01*
X138862812Y-25766376D01*
X138713512Y-25796073D01*
X138688742Y-25801000D01*
X138511258Y-25801000D01*
X138486488Y-25796073D01*
X138337188Y-25766376D01*
X138173216Y-25698456D01*
X138025646Y-25599853D01*
X137900147Y-25474354D01*
X137801544Y-25326784D01*
X137733624Y-25162812D01*
X137699000Y-24988741D01*
X137699000Y-24811259D01*
X137733624Y-24637188D01*
X137801544Y-24473216D01*
X137900147Y-24325646D01*
X138025646Y-24200147D01*
X138173216Y-24101544D01*
X138337188Y-24033624D01*
X138486488Y-24003927D01*
X138511258Y-23999000D01*
X138688742Y-23999000D01*
X138713512Y-24003927D01*
G37*
G36*
X143793512Y-24003927D02*
G01*
X143942812Y-24033624D01*
X144106784Y-24101544D01*
X144254354Y-24200147D01*
X144379853Y-24325646D01*
X144478456Y-24473216D01*
X144546376Y-24637188D01*
X144581000Y-24811259D01*
X144581000Y-24988741D01*
X144546376Y-25162812D01*
X144478456Y-25326784D01*
X144379853Y-25474354D01*
X144254354Y-25599853D01*
X144106784Y-25698456D01*
X143942812Y-25766376D01*
X143793512Y-25796073D01*
X143768742Y-25801000D01*
X143591258Y-25801000D01*
X143566488Y-25796073D01*
X143417188Y-25766376D01*
X143253216Y-25698456D01*
X143105646Y-25599853D01*
X142980147Y-25474354D01*
X142881544Y-25326784D01*
X142813624Y-25162812D01*
X142779000Y-24988741D01*
X142779000Y-24811259D01*
X142813624Y-24637188D01*
X142881544Y-24473216D01*
X142980147Y-24325646D01*
X143105646Y-24200147D01*
X143253216Y-24101544D01*
X143417188Y-24033624D01*
X143566488Y-24003927D01*
X143591258Y-23999000D01*
X143768742Y-23999000D01*
X143793512Y-24003927D01*
G37*
G36*
X148873512Y-24003927D02*
G01*
X149022812Y-24033624D01*
X149186784Y-24101544D01*
X149334354Y-24200147D01*
X149459853Y-24325646D01*
X149558456Y-24473216D01*
X149626376Y-24637188D01*
X149661000Y-24811259D01*
X149661000Y-24988741D01*
X149626376Y-25162812D01*
X149558456Y-25326784D01*
X149459853Y-25474354D01*
X149334354Y-25599853D01*
X149186784Y-25698456D01*
X149022812Y-25766376D01*
X148873512Y-25796073D01*
X148848742Y-25801000D01*
X148671258Y-25801000D01*
X148646488Y-25796073D01*
X148497188Y-25766376D01*
X148333216Y-25698456D01*
X148185646Y-25599853D01*
X148060147Y-25474354D01*
X147961544Y-25326784D01*
X147893624Y-25162812D01*
X147859000Y-24988741D01*
X147859000Y-24811259D01*
X147893624Y-24637188D01*
X147961544Y-24473216D01*
X148060147Y-24325646D01*
X148185646Y-24200147D01*
X148333216Y-24101544D01*
X148497188Y-24033624D01*
X148646488Y-24003927D01*
X148671258Y-23999000D01*
X148848742Y-23999000D01*
X148873512Y-24003927D01*
G37*
G36*
X48418604Y-20978347D02*
G01*
X48455144Y-20989432D01*
X48488821Y-21007433D01*
X48518341Y-21031659D01*
X48542567Y-21061179D01*
X48560568Y-21094856D01*
X48571653Y-21131396D01*
X48576000Y-21175538D01*
X48576000Y-22624462D01*
X48571653Y-22668604D01*
X48560568Y-22705144D01*
X48542567Y-22738821D01*
X48518341Y-22768341D01*
X48488821Y-22792567D01*
X48455144Y-22810568D01*
X48418604Y-22821653D01*
X48374462Y-22826000D01*
X47425538Y-22826000D01*
X47381396Y-22821653D01*
X47344856Y-22810568D01*
X47311179Y-22792567D01*
X47281659Y-22768341D01*
X47257433Y-22738821D01*
X47239432Y-22705144D01*
X47228347Y-22668604D01*
X47224000Y-22624462D01*
X47224000Y-21175538D01*
X47228347Y-21131396D01*
X47239432Y-21094856D01*
X47257433Y-21061179D01*
X47281659Y-21031659D01*
X47311179Y-21007433D01*
X47344856Y-20989432D01*
X47381396Y-20978347D01*
X47425538Y-20974000D01*
X48374462Y-20974000D01*
X48418604Y-20978347D01*
G37*
G36*
X51218604Y-20978347D02*
G01*
X51255144Y-20989432D01*
X51288821Y-21007433D01*
X51318341Y-21031659D01*
X51342567Y-21061179D01*
X51360568Y-21094856D01*
X51371653Y-21131396D01*
X51376000Y-21175538D01*
X51376000Y-22624462D01*
X51371653Y-22668604D01*
X51360568Y-22705144D01*
X51342567Y-22738821D01*
X51318341Y-22768341D01*
X51288821Y-22792567D01*
X51255144Y-22810568D01*
X51218604Y-22821653D01*
X51174462Y-22826000D01*
X50225538Y-22826000D01*
X50181396Y-22821653D01*
X50144856Y-22810568D01*
X50111179Y-22792567D01*
X50081659Y-22768341D01*
X50057433Y-22738821D01*
X50039432Y-22705144D01*
X50028347Y-22668604D01*
X50024000Y-22624462D01*
X50024000Y-21175538D01*
X50028347Y-21131396D01*
X50039432Y-21094856D01*
X50057433Y-21061179D01*
X50081659Y-21031659D01*
X50111179Y-21007433D01*
X50144856Y-20989432D01*
X50181396Y-20978347D01*
X50225538Y-20974000D01*
X51174462Y-20974000D01*
X51218604Y-20978347D01*
G37*
G36*
X33718604Y-20978347D02*
G01*
X33755144Y-20989432D01*
X33788821Y-21007433D01*
X33818341Y-21031659D01*
X33842567Y-21061179D01*
X33860568Y-21094856D01*
X33871653Y-21131396D01*
X33876000Y-21175538D01*
X33876000Y-22624462D01*
X33871653Y-22668604D01*
X33860568Y-22705144D01*
X33842567Y-22738821D01*
X33818341Y-22768341D01*
X33788821Y-22792567D01*
X33755144Y-22810568D01*
X33718604Y-22821653D01*
X33674462Y-22826000D01*
X32725538Y-22826000D01*
X32681396Y-22821653D01*
X32644856Y-22810568D01*
X32611179Y-22792567D01*
X32581659Y-22768341D01*
X32557433Y-22738821D01*
X32539432Y-22705144D01*
X32528347Y-22668604D01*
X32524000Y-22624462D01*
X32524000Y-21175538D01*
X32528347Y-21131396D01*
X32539432Y-21094856D01*
X32557433Y-21061179D01*
X32581659Y-21031659D01*
X32611179Y-21007433D01*
X32644856Y-20989432D01*
X32681396Y-20978347D01*
X32725538Y-20974000D01*
X33674462Y-20974000D01*
X33718604Y-20978347D01*
G37*
G36*
X30918604Y-20978347D02*
G01*
X30955144Y-20989432D01*
X30988821Y-21007433D01*
X31018341Y-21031659D01*
X31042567Y-21061179D01*
X31060568Y-21094856D01*
X31071653Y-21131396D01*
X31076000Y-21175538D01*
X31076000Y-22624462D01*
X31071653Y-22668604D01*
X31060568Y-22705144D01*
X31042567Y-22738821D01*
X31018341Y-22768341D01*
X30988821Y-22792567D01*
X30955144Y-22810568D01*
X30918604Y-22821653D01*
X30874462Y-22826000D01*
X29925538Y-22826000D01*
X29881396Y-22821653D01*
X29844856Y-22810568D01*
X29811179Y-22792567D01*
X29781659Y-22768341D01*
X29757433Y-22738821D01*
X29739432Y-22705144D01*
X29728347Y-22668604D01*
X29724000Y-22624462D01*
X29724000Y-21175538D01*
X29728347Y-21131396D01*
X29739432Y-21094856D01*
X29757433Y-21061179D01*
X29781659Y-21031659D01*
X29811179Y-21007433D01*
X29844856Y-20989432D01*
X29881396Y-20978347D01*
X29925538Y-20974000D01*
X30874462Y-20974000D01*
X30918604Y-20978347D01*
G37*
G36*
X23248228Y-20681703D02*
G01*
X23403100Y-20745853D01*
X23542481Y-20838985D01*
X23661015Y-20957519D01*
X23754147Y-21096900D01*
X23818297Y-21251772D01*
X23851000Y-21416184D01*
X23851000Y-21583816D01*
X23818297Y-21748228D01*
X23754147Y-21903100D01*
X23661015Y-22042481D01*
X23542481Y-22161015D01*
X23403100Y-22254147D01*
X23248228Y-22318297D01*
X23083816Y-22351000D01*
X22916184Y-22351000D01*
X22751772Y-22318297D01*
X22596900Y-22254147D01*
X22457519Y-22161015D01*
X22338985Y-22042481D01*
X22245853Y-21903100D01*
X22181703Y-21748228D01*
X22149000Y-21583816D01*
X22149000Y-21416184D01*
X22181703Y-21251772D01*
X22245853Y-21096900D01*
X22338985Y-20957519D01*
X22457519Y-20838985D01*
X22596900Y-20745853D01*
X22751772Y-20681703D01*
X22916184Y-20649000D01*
X23083816Y-20649000D01*
X23248228Y-20681703D01*
G37*
G36*
X40248228Y-20681703D02*
G01*
X40403100Y-20745853D01*
X40542481Y-20838985D01*
X40661015Y-20957519D01*
X40754147Y-21096900D01*
X40818297Y-21251772D01*
X40851000Y-21416184D01*
X40851000Y-21583816D01*
X40818297Y-21748228D01*
X40754147Y-21903100D01*
X40661015Y-22042481D01*
X40542481Y-22161015D01*
X40403100Y-22254147D01*
X40248228Y-22318297D01*
X40083816Y-22351000D01*
X39916184Y-22351000D01*
X39751772Y-22318297D01*
X39596900Y-22254147D01*
X39457519Y-22161015D01*
X39338985Y-22042481D01*
X39245853Y-21903100D01*
X39181703Y-21748228D01*
X39149000Y-21583816D01*
X39149000Y-21416184D01*
X39181703Y-21251772D01*
X39245853Y-21096900D01*
X39338985Y-20957519D01*
X39457519Y-20838985D01*
X39596900Y-20745853D01*
X39751772Y-20681703D01*
X39916184Y-20649000D01*
X40083816Y-20649000D01*
X40248228Y-20681703D01*
G37*
G36*
X45248228Y-20681703D02*
G01*
X45403100Y-20745853D01*
X45542481Y-20838985D01*
X45661015Y-20957519D01*
X45754147Y-21096900D01*
X45818297Y-21251772D01*
X45851000Y-21416184D01*
X45851000Y-21583816D01*
X45818297Y-21748228D01*
X45754147Y-21903100D01*
X45661015Y-22042481D01*
X45542481Y-22161015D01*
X45403100Y-22254147D01*
X45248228Y-22318297D01*
X45083816Y-22351000D01*
X44916184Y-22351000D01*
X44751772Y-22318297D01*
X44596900Y-22254147D01*
X44457519Y-22161015D01*
X44338985Y-22042481D01*
X44245853Y-21903100D01*
X44181703Y-21748228D01*
X44149000Y-21583816D01*
X44149000Y-21416184D01*
X44181703Y-21251772D01*
X44245853Y-21096900D01*
X44338985Y-20957519D01*
X44457519Y-20838985D01*
X44596900Y-20745853D01*
X44751772Y-20681703D01*
X44916184Y-20649000D01*
X45083816Y-20649000D01*
X45248228Y-20681703D01*
G37*
G36*
X28248228Y-20681703D02*
G01*
X28403100Y-20745853D01*
X28542481Y-20838985D01*
X28661015Y-20957519D01*
X28754147Y-21096900D01*
X28818297Y-21251772D01*
X28851000Y-21416184D01*
X28851000Y-21583816D01*
X28818297Y-21748228D01*
X28754147Y-21903100D01*
X28661015Y-22042481D01*
X28542481Y-22161015D01*
X28403100Y-22254147D01*
X28248228Y-22318297D01*
X28083816Y-22351000D01*
X27916184Y-22351000D01*
X27751772Y-22318297D01*
X27596900Y-22254147D01*
X27457519Y-22161015D01*
X27338985Y-22042481D01*
X27245853Y-21903100D01*
X27181703Y-21748228D01*
X27149000Y-21583816D01*
X27149000Y-21416184D01*
X27181703Y-21251772D01*
X27245853Y-21096900D01*
X27338985Y-20957519D01*
X27457519Y-20838985D01*
X27596900Y-20745853D01*
X27751772Y-20681703D01*
X27916184Y-20649000D01*
X28083816Y-20649000D01*
X28248228Y-20681703D01*
G37*
M02*
