M48
; DRILL file {KiCad (5.1.5)-3} date 18-Nov-20 6:18:29 PM
; FORMAT={-:-/ absolute / inch / decimal}
; #@! TF.CreationDate,2020-11-18T18:18:29+13:00
; #@! TF.GenerationSoftware,Kicad,Pcbnew,(5.1.5)-3
FMAT,2
INCH
T1C0.0157
T2C0.0315
T3C0.0394
T4C0.0591
%
G90
G05
T1
X3.6614Y-1.4961
T2
X0.9055Y-0.8465
X1.1024Y-0.8465
X1.5748Y-0.8465
X1.7717Y-0.8465
T3
X4.0567Y-0.9803
X4.1567Y-0.9803
X4.2567Y-0.9803
X4.3567Y-0.9803
X4.4567Y-0.9803
X4.5567Y-0.9803
X4.6567Y-0.9803
X4.7567Y-0.9803
X4.8567Y-0.9803
X4.9567Y-0.9803
X5.0567Y-0.9803
X5.1567Y-0.9803
X5.2567Y-0.9803
X5.3567Y-0.9803
X5.4567Y-0.9803
X5.5567Y-0.9803
X5.6567Y-0.9803
X5.7567Y-0.9803
X5.8567Y-0.9803
X5.9567Y-0.9803
X4.0583Y-1.6776
X4.1583Y-1.6776
X4.2583Y-1.6776
X4.3583Y-1.6776
X4.4583Y-1.6776
X4.5583Y-1.6776
X4.6583Y-1.6776
X4.7583Y-1.6776
X4.8583Y-1.6776
X4.9583Y-1.6776
X5.0583Y-1.6776
X5.1583Y-1.6776
X5.2583Y-1.6776
X5.3583Y-1.6776
X5.4583Y-1.6776
X5.5583Y-1.6776
X5.6583Y-1.6776
X5.7583Y-1.6776
X5.8583Y-1.6776
X5.9583Y-1.6776
X2.2559Y-1.113
X2.2559Y-1.213
X2.2559Y-1.313
X2.2559Y-1.413
X1.0016Y-0.9843
X1.0016Y-1.5551
X1.1Y-1.5551
X1.1984Y-0.9843
X1.1984Y-1.5551
X2.7843Y-1.6535
X2.8843Y-1.6535
X2.9843Y-1.6535
X3.0843Y-1.6535
X3.1843Y-1.6535
X3.2843Y-1.6535
X3.3843Y-1.6535
X3.4843Y-1.6535
X1.689Y-0.9841
X1.689Y-1.5549
X1.7874Y-1.5549
X1.8858Y-0.9841
X1.8858Y-1.5549
T4
G00X0.8795Y-1.2854
M15
G01X0.8795Y-1.2343
M16
G05
G00X1.3205Y-1.2854
M15
G01X1.3205Y-1.2343
M16
G05
G00X1.5669Y-1.2852
M15
G01X1.5669Y-1.2341
M16
G05
G00X2.0079Y-1.2852
M15
G01X2.0079Y-1.2341
M16
G05
T0
M30
