G04 #@! TF.GenerationSoftware,KiCad,Pcbnew,(5.1.5)-3*
G04 #@! TF.CreationDate,2020-11-18T18:17:57+13:00*
G04 #@! TF.ProjectId,MidiControllerV1,4d696469-436f-46e7-9472-6f6c6c657256,rev?*
G04 #@! TF.SameCoordinates,Original*
G04 #@! TF.FileFunction,Copper,L2,Bot*
G04 #@! TF.FilePolarity,Positive*
%FSLAX46Y46*%
G04 Gerber Fmt 4.6, Leading zero omitted, Abs format (unit mm)*
G04 Created by KiCad (PCBNEW (5.1.5)-3) date 2020-11-18 18:17:57*
%MOMM*%
%LPD*%
G04 APERTURE LIST*
%ADD10C,2.000000*%
%ADD11R,2.000000X3.200000*%
%ADD12R,2.000000X2.000000*%
%ADD13O,1.700000X1.700000*%
%ADD14R,1.700000X1.700000*%
%ADD15C,1.600000*%
%ADD16C,0.800000*%
%ADD17C,0.250000*%
G04 APERTURE END LIST*
D10*
X30440000Y-25000000D03*
X25440000Y-25000000D03*
D11*
X33540000Y-32000000D03*
X22340000Y-32000000D03*
D10*
X30440000Y-39500000D03*
X27940000Y-39500000D03*
D12*
X25440000Y-39500000D03*
D13*
X103040000Y-24900000D03*
X105580000Y-24900000D03*
X108120000Y-24900000D03*
X110660000Y-24900000D03*
X113200000Y-24900000D03*
X115740000Y-24900000D03*
X118280000Y-24900000D03*
X120820000Y-24900000D03*
X123360000Y-24900000D03*
X125900000Y-24900000D03*
X128440000Y-24900000D03*
X130980000Y-24900000D03*
X133520000Y-24900000D03*
X136060000Y-24900000D03*
X138600000Y-24900000D03*
X141140000Y-24900000D03*
X143680000Y-24900000D03*
X146220000Y-24900000D03*
X148760000Y-24900000D03*
D14*
X151300000Y-24900000D03*
D15*
X40000000Y-21500000D03*
X45000000Y-21500000D03*
X23000000Y-21500000D03*
X28000000Y-21500000D03*
D13*
X70720000Y-42000000D03*
X73260000Y-42000000D03*
X75800000Y-42000000D03*
X78340000Y-42000000D03*
X80880000Y-42000000D03*
X83420000Y-42000000D03*
X85960000Y-42000000D03*
D14*
X88500000Y-42000000D03*
X57300000Y-28270000D03*
D13*
X57300000Y-30810000D03*
X57300000Y-33350000D03*
X57300000Y-35890000D03*
D14*
X103080000Y-42610000D03*
D13*
X105620000Y-42610000D03*
X108160000Y-42610000D03*
X110700000Y-42610000D03*
X113240000Y-42610000D03*
X115780000Y-42610000D03*
X118320000Y-42610000D03*
X120860000Y-42610000D03*
X123400000Y-42610000D03*
X125940000Y-42610000D03*
X128480000Y-42610000D03*
X131020000Y-42610000D03*
X133560000Y-42610000D03*
X136100000Y-42610000D03*
X138640000Y-42610000D03*
X141180000Y-42610000D03*
X143720000Y-42610000D03*
X146260000Y-42610000D03*
X148800000Y-42610000D03*
X151340000Y-42610000D03*
D10*
X47900000Y-24995000D03*
X42900000Y-24995000D03*
D11*
X51000000Y-31995000D03*
X39800000Y-31995000D03*
D10*
X47900000Y-39495000D03*
X45400000Y-39495000D03*
D12*
X42900000Y-39495000D03*
D16*
X93000000Y-38000000D03*
D17*
X146260000Y-41407919D02*
X132582081Y-27730000D01*
X146260000Y-42610000D02*
X146260000Y-41407919D01*
X105870000Y-27730000D02*
X103040000Y-24900000D01*
X132582081Y-27730000D02*
X105870000Y-27730000D01*
X30440000Y-25000000D02*
X39500000Y-25000000D01*
X51049990Y-36549990D02*
X54049990Y-36549990D01*
X39500000Y-25000000D02*
X51049990Y-36549990D01*
X55500000Y-38000000D02*
X54049990Y-36549990D01*
X93000000Y-38000000D02*
X55500000Y-38000000D01*
X112390001Y-43459999D02*
X113240000Y-42610000D01*
X112064999Y-43785001D02*
X112390001Y-43459999D01*
X38785001Y-43785001D02*
X112064999Y-43785001D01*
X34500000Y-39500000D02*
X38785001Y-43785001D01*
X30440000Y-39500000D02*
X34500000Y-39500000D01*
X114930001Y-43459999D02*
X115780000Y-42610000D01*
X114154990Y-44235010D02*
X114930001Y-43459999D01*
X25440000Y-40750000D02*
X28925010Y-44235010D01*
X28925010Y-44235010D02*
X114154990Y-44235010D01*
X25440000Y-39500000D02*
X25440000Y-40750000D01*
X125365000Y-39495000D02*
X128480000Y-42610000D01*
X47900000Y-39495000D02*
X125365000Y-39495000D01*
X42900000Y-38245000D02*
X44145000Y-37000000D01*
X42900000Y-39495000D02*
X42900000Y-38245000D01*
X44145000Y-37000000D02*
X53500000Y-37000000D01*
X130170001Y-41760001D02*
X131020000Y-42610000D01*
X127454990Y-39044990D02*
X130170001Y-41760001D01*
X55544990Y-39044990D02*
X127454990Y-39044990D01*
X53500000Y-37000000D02*
X55544990Y-39044990D01*
X48980001Y-26075001D02*
X84075001Y-26075001D01*
X47900000Y-24995000D02*
X48980001Y-26075001D01*
X84075001Y-26075001D02*
X96500000Y-38500000D01*
X131990000Y-38500000D02*
X136100000Y-42610000D01*
X96500000Y-38500000D02*
X131990000Y-38500000D01*
M02*
